<svg width="18" height="10" viewBox="0 0 18 10" fill="none" xmlns="http://www.w3.org/2000/svg">
<g clip-path="url(#clip0_1_329)">
<path d="M17.8482 9.83072C17.9441 9.73065 17.9985 9.59467 17.9992 9.45257C17.9999 9.38205 17.9868 9.31214 17.9608 9.24711C17.9348 9.18209 17.8965 9.12333 17.8482 9.07443L9.36529 0.157809C9.31827 0.107733 9.26226 0.0679713 9.2005 0.0408326C9.13875 0.0136939 9.07248 -0.000281226 9.00554 -0.000281227C8.93861 -0.000281227 8.87234 0.0136939 8.81058 0.0408326C8.74882 0.0679713 8.69281 0.107733 8.64579 0.157809L0.161133 9.07443C0.0637918 9.17176 0.00700081 9.30559 0.00314016 9.44674C-0.00072049 9.5879 0.0486623 9.72494 0.140523 9.82798C0.232384 9.93103 0.359274 9.99172 0.493532 9.99684C0.627789 10.002 0.758527 9.95108 0.857246 9.85529L0.880629 9.83072L9.00554 1.29224L17.1287 9.83072C17.1758 9.88056 17.2318 9.92012 17.2936 9.94712C17.3553 9.97411 17.4215 9.98801 17.4884 9.98801C17.5553 9.98801 17.6215 9.97411 17.6832 9.94712C17.745 9.92012 17.801 9.88056 17.8482 9.83072Z" fill="#5485A5"/>
</g>
<defs>
<clipPath id="clip0_1_329">
<rect width="10" height="18" fill="white" transform="translate(0 10) rotate(-90)"/>
</clipPath>
</defs>
</svg>
