<svg width="18" height="10" viewBox="0 0 18 10" fill="none" xmlns="http://www.w3.org/2000/svg">
<g clip-path="url(#clip0_1_331)">
<path d="M0.151848 0.169284C0.0558662 0.269352 0.0015354 0.40533 0.000755286 0.547427C0.000125858 0.617949 0.0132026 0.687863 0.0391845 0.752885C0.0651645 0.817908 0.103502 0.87667 0.151848 0.92557L8.63471 9.84219C8.68173 9.89227 8.73774 9.93203 8.7995 9.95917C8.86125 9.98631 8.92752 10.0003 8.99446 10.0003C9.06139 10.0003 9.12766 9.98631 9.18942 9.95917C9.25118 9.93203 9.30719 9.89227 9.35421 9.84219L17.8389 0.925571C17.9362 0.828243 17.993 0.694414 17.9969 0.553257C18.0007 0.4121 17.9513 0.275062 17.8595 0.172017C17.7676 0.0689716 17.6407 0.00827527 17.5065 0.00315923C17.3722 -0.00195681 17.2415 0.0489225 17.1428 0.144705L17.1194 0.169285L8.99446 8.70776L0.871346 0.169284C0.824203 0.119435 0.768152 0.0798753 0.706413 0.0528805C0.644672 0.0258857 0.578465 0.0119884 0.511597 0.0119884C0.444729 0.0119884 0.378521 0.0258856 0.316782 0.0528804C0.255043 0.0798753 0.19899 0.119435 0.151848 0.169284Z" fill="#5485A5"/>
</g>
<defs>
<clipPath id="clip0_1_331">
<rect width="10" height="18" fill="white" transform="translate(18) rotate(90)"/>
</clipPath>
</defs>
</svg>
