<svg width="1200" height="799" viewBox="0 0 1200 799" fill="none" xmlns="http://www.w3.org/2000/svg">
<path d="M1200 53.3068L1200 432.307L0 433.807L3.62007e-05 46.8067C186.714 -14.6933 386.268 -11.1933 621.667 31.8067C857.066 74.8067 1047.53 77.8068 1200 53.3068Z" fill="#D9F1FF"/>
<path d="M1200 70.3066L1200 449.307L0 450.807L3.62007e-05 63.8065C197.949 -11.5001 390.013 0.661219 616.317 41.9999C842.621 83.3386 879.536 111 1200 70.3066Z" fill="#8FC7EC"/>
<path d="M1200 81.5023L1200 775.2C1200 775.2 903.611 828 600 775.95C296.389 723.899 2.07576e-06 776.699 2.07576e-06 776.699L6.68067e-05 84.7005C213.464 6.5023 393.223 6.00231 622.737 57.8938C852.251 109.785 1047.53 106.002 1200 81.5023Z" fill="#70A6C9"/>
</svg>
