<svg width="1200" height="799" viewBox="0 0 1200 799" fill="none" xmlns="http://www.w3.org/2000/svg">
<g clip-path="url(#clip0_1267_886)">
<path d="M1200 52.4805L1200 431.48L0.00012207 432.98L0.000157663 52.4759C186.714 -9.02404 386.269 -12.0196 621.668 30.9804C857.067 73.9804 1047.53 76.9805 1200 52.4805Z" fill="#D9F1FF"/>
<path d="M1200 69.48L1200 448.48L0.00012207 449.98L0.000157663 69.481C197.949 -5.82564 390.013 -0.165441 616.317 41.1732C842.622 82.5119 879.536 110.173 1200 69.48Z" fill="#8FC7EC"/>
<path d="M1200 82.906L1200 776.603C1200 776.603 903.611 829.404 600 777.353C296.389 725.303 0.000124325 776.191 0.000124325 776.191L6.70503e-05 83.5C213.464 5.30186 393.224 7.406 622.737 59.2975C852.251 111.189 1047.53 107.406 1200 82.906Z" fill="#70A6C9"/>
</g>
<defs>
<clipPath id="clip0_1267_886">
<rect width="1200" height="799" fill="white"/>
</clipPath>
</defs>
</svg>
