<svg width="163" height="163" viewBox="0 0 163 163" fill="none" xmlns="http://www.w3.org/2000/svg">
<g filter="url(#filter0_d_4_7)">
<circle cx="81.5" cy="77.5" r="77.5" fill="white"/>
</g>
<g clip-path="url(#clip0_4_7)">
<path d="M119.011 89.2423V62.9089C119.011 62.5915 118.891 62.287 118.676 62.0625C118.461 61.8381 118.17 61.712 117.866 61.712H99.7671V43.1829C99.7671 41.8083 99.2446 40.49 98.3144 39.518C97.3842 38.546 96.1226 38 94.8071 38H57.0058C56.3506 37.9937 55.7007 38.123 55.0936 38.3807C54.4866 38.6383 53.9344 39.0191 53.4689 39.501C53.0035 39.9829 52.634 40.5564 52.3819 41.1883C52.1298 41.8203 52 42.4982 52 43.1829V111.817C52 113.192 52.5226 114.51 53.4527 115.482C54.3829 116.454 55.6445 117 56.96 117H94.7613C96.0768 117 97.3384 116.454 98.2686 115.482C99.1987 114.51 99.7213 113.192 99.7213 111.817V90.4392H117.82C117.974 90.4457 118.128 90.4195 118.273 90.3622C118.417 90.305 118.549 90.2178 118.66 90.106C118.771 89.9942 118.86 89.8601 118.92 89.7117C118.98 89.5632 119.012 89.4036 119.011 89.2423ZM80.5228 70.6413H116.72V72.7839H80.5228V70.6413ZM116.72 68.2474H80.5228V64.0939H116.72V68.2474ZM97.4762 101.116H54.291V50.0894H97.4762V61.7H79.3773C79.0735 61.7 78.7822 61.8261 78.5673 62.0506C78.3525 62.275 78.2318 62.5795 78.2318 62.8969V89.2303C78.2318 89.5477 78.3525 89.8522 78.5673 90.0767C78.7822 90.3011 79.0735 90.4273 79.3773 90.4273H97.4762V101.116Z" fill="#5F5EAA"/>
<path d="M80.4083 42.8477H71.3589C71.0551 42.8477 70.7637 42.9738 70.5489 43.1982C70.3341 43.4227 70.2134 43.7272 70.2134 44.0446C70.2134 44.3621 70.3341 44.6665 70.5489 44.891C70.7637 45.1155 71.0551 45.2416 71.3589 45.2416H80.4083C80.7121 45.2416 81.0034 45.1155 81.2183 44.891C81.4331 44.6665 81.5538 44.3621 81.5538 44.0446C81.5538 43.7272 81.4331 43.4227 81.2183 43.1982C81.0034 42.9738 80.7121 42.8477 80.4083 42.8477Z" fill="white"/>
<path d="M110.317 78.6969C109.772 78.7067 109.238 78.8546 108.759 79.1278C108.258 78.828 107.689 78.6712 107.111 78.673C106.533 78.6748 105.966 78.8353 105.466 79.1383C104.966 79.4414 104.551 79.8763 104.263 80.3997C103.974 80.923 103.822 81.5163 103.822 82.1203C103.822 82.7242 103.974 83.3175 104.263 83.8408C104.551 84.3642 104.966 84.7991 105.466 85.1022C105.966 85.4052 106.533 85.5657 107.111 85.5675C107.689 85.5694 108.258 85.4125 108.759 85.1127C109.234 85.3945 109.771 85.543 110.317 85.5436C110.766 85.5713 111.215 85.5028 111.638 85.3423C112.061 85.1819 112.447 84.9329 112.774 84.6106C113.102 84.2884 113.362 83.8996 113.54 83.4683C113.719 83.0369 113.81 82.5721 113.81 82.1023C113.81 81.6325 113.719 81.1677 113.54 80.7363C113.362 80.305 113.102 79.9162 112.774 79.594C112.447 79.2717 112.061 79.0227 111.638 78.8623C111.215 78.7018 110.766 78.6333 110.317 78.661V78.6969ZM106.205 82.1442C106.205 81.8669 106.309 81.6008 106.496 81.4036C106.683 81.2064 106.936 81.094 107.201 81.0909C107.342 81.0921 107.48 81.1235 107.608 81.1833C107.736 81.243 107.851 81.3297 107.946 81.438C108.073 81.5893 108.156 81.7755 108.185 81.9745C108.213 82.1734 108.187 82.3769 108.109 82.5607C108.031 82.7446 107.903 82.9011 107.743 83.0119C107.582 83.1226 107.394 83.1829 107.201 83.1856C106.937 83.1856 106.684 83.0758 106.497 82.8805C106.31 82.6853 106.205 82.4204 106.205 82.1442ZM110.352 83.1856C110.352 83.1018 110.352 83.006 110.409 82.9222V82.7427C110.485 82.3477 110.485 81.9407 110.409 81.5457C110.414 81.478 110.414 81.4099 110.409 81.3422C110.419 81.2588 110.419 81.1743 110.409 81.0909C110.656 81.1185 110.885 81.2408 111.051 81.4341C111.218 81.6275 111.31 81.8783 111.31 82.1382C111.31 82.3982 111.218 82.6489 111.051 82.8423C110.885 83.0356 110.656 83.1579 110.409 83.1856H110.352Z" fill="#5F5EAA"/>
<path d="M97.3159 81.438H84.074C83.7702 81.438 83.4788 81.5641 83.264 81.7886C83.0492 82.013 82.9285 82.3175 82.9285 82.635C82.9285 82.9524 83.0492 83.2569 83.264 83.4813C83.4788 83.7058 83.7702 83.8319 84.074 83.8319H97.3159C97.6197 83.8319 97.911 83.7058 98.1259 83.4813C98.3407 83.2569 98.4614 82.9524 98.4614 82.635C98.4614 82.3175 98.3407 82.013 98.1259 81.7886C97.911 81.5641 97.6197 81.438 97.3159 81.438Z" fill="#5F5EAA"/>
<path d="M75.8836 112.787C76.5914 112.789 77.2839 112.572 77.8734 112.162C78.4629 111.753 78.9228 111.17 79.1947 110.487C79.4666 109.804 79.5384 109.052 79.4008 108.327C79.2633 107.601 78.9227 106.934 78.4221 106.411C77.9216 105.888 77.2838 105.533 76.5894 105.389C75.8951 105.245 75.1755 105.32 74.522 105.604C73.8685 105.888 73.3104 106.369 72.9186 106.985C72.5268 107.601 72.3188 108.324 72.3211 109.064C72.3241 110.05 72.7004 110.995 73.3678 111.693C74.0353 112.39 74.9397 112.784 75.8836 112.787ZM75.8836 107.724C76.1378 107.721 76.3869 107.798 76.5994 107.944C76.8119 108.089 76.9781 108.298 77.077 108.543C77.1758 108.787 77.2029 109.057 77.1547 109.318C77.1065 109.579 76.9852 109.819 76.8062 110.008C76.6273 110.196 76.3987 110.325 76.1495 110.378C75.9004 110.431 75.6418 110.405 75.4067 110.304C75.1716 110.203 74.9706 110.031 74.8291 109.81C74.6876 109.589 74.6121 109.33 74.6121 109.064C74.612 108.711 74.7456 108.371 74.9838 108.12C75.2219 107.869 75.5453 107.727 75.8836 107.724Z" fill="white"/>
</g>
<defs>
<filter id="filter0_d_4_7" x="0" y="0" width="163" height="163" filterUnits="userSpaceOnUse" color-interpolation-filters="sRGB">
<feFlood flood-opacity="0" result="BackgroundImageFix"/>
<feColorMatrix in="SourceAlpha" type="matrix" values="0 0 0 0 0 0 0 0 0 0 0 0 0 0 0 0 0 0 127 0" result="hardAlpha"/>
<feOffset dy="4"/>
<feGaussianBlur stdDeviation="2"/>
<feComposite in2="hardAlpha" operator="out"/>
<feColorMatrix type="matrix" values="0 0 0 0 0 0 0 0 0 0 0 0 0 0 0 0 0 0 0.25 0"/>
<feBlend mode="normal" in2="BackgroundImageFix" result="effect1_dropShadow_4_7"/>
<feBlend mode="normal" in="SourceGraphic" in2="effect1_dropShadow_4_7" result="shape"/>
</filter>
<clipPath id="clip0_4_7">
<rect width="67" height="79" fill="white" transform="translate(52 38)"/>
</clipPath>
</defs>
</svg>
