<svg width="163" height="163" viewBox="0 0 163 163" fill="none" xmlns="http://www.w3.org/2000/svg">
<g filter="url(#filter0_d_4_5)">
<circle cx="81.5" cy="77.5" r="77.5" fill="white"/>
</g>
<g clip-path="url(#clip0_4_5)">
<path d="M43.4865 97.6C42.7887 97.5976 42.1203 97.3243 41.6268 96.8398C41.1334 96.3553 40.8551 95.6988 40.8526 95.0136C40.8598 94.4592 41.0426 93.9207 41.3756 93.473L42.4691 92.007C44.1045 89.853 45.1814 87.3406 45.607 84.6865L45.8257 83.0152C43.4026 80.7418 41.4631 78.0187 40.1198 75.0038C38.7765 71.9889 38.0559 68.7421 38 65.4517C38 50.3159 52.9952 38 71.4326 38C89.87 38 104.875 50.3159 104.875 65.4517C104.875 80.5875 89.87 92.894 71.4326 92.894C66.2676 92.9086 61.1511 91.9152 56.3803 89.9715C53.7515 93.4299 50.0244 95.9301 45.7876 97.0772L44.1997 97.5067C43.9676 97.5704 43.7275 97.6018 43.4865 97.6Z" fill="#5F5EAA"/>
<path d="M116.485 110C116.241 110.002 115.998 109.97 115.762 109.907L114.155 109.477C109.932 108.323 106.222 105.819 103.61 102.362C98.8371 104.31 93.7172 105.307 88.5483 105.294C80.5229 105.386 72.6831 102.922 66.2029 98.2723C66.0508 98.164 65.9221 98.0273 65.824 97.8701C65.7258 97.7128 65.6603 97.5381 65.6312 97.3559C65.602 97.1737 65.6098 96.9876 65.6541 96.8084C65.6983 96.6292 65.7782 96.4603 65.8891 96.3114L65.9461 96.2461C66.185 95.9678 66.5243 95.7909 66.8929 95.7527C67.2616 95.7144 67.631 95.8176 67.9239 96.0407C73.9071 100.325 81.1438 102.589 88.5483 102.493C93.7157 102.503 98.8245 101.417 103.525 99.3087L104.685 98.8325L105.36 99.8503C107.598 103.232 111.017 105.695 114.973 106.779L115.971 107.096L115.239 106.162C113.355 103.653 112.113 100.735 111.616 97.656L111.198 94.5187L111.721 94.0238C114.016 91.9828 115.86 89.5011 117.139 86.7323C118.418 83.9634 119.105 80.9662 119.157 77.9263C119.157 70.167 114.621 62.9025 106.967 58.2432C106.655 58.0549 106.428 57.7567 106.332 57.4096C106.237 57.0625 106.28 56.6926 106.453 56.3758C106.536 56.2108 106.652 56.0635 106.793 55.9423C106.934 55.8211 107.097 55.7284 107.275 55.6694C107.452 55.6105 107.64 55.5864 107.827 55.5987C108.014 55.6109 108.197 55.6592 108.365 55.7408L108.46 55.7969C117.017 60.9604 122.01 69.1212 122.01 77.8609C121.956 81.1603 121.235 84.4163 119.888 87.4395C118.541 90.4627 116.596 93.1928 114.165 95.4711L114.393 97.1705C114.819 99.7935 115.878 102.278 117.483 104.416L118.501 105.779C118.839 106.208 119.037 106.728 119.07 107.269C119.102 107.811 118.967 108.349 118.681 108.814C118.445 109.176 118.12 109.474 117.737 109.681C117.353 109.888 116.923 109.998 116.485 110Z" fill="#5F5EAA"/>
<path d="M72.859 53.4346H88.0064C88.3847 53.4346 88.7475 53.5821 89.015 53.8448C89.2825 54.1075 89.4327 54.4637 89.4327 54.8352C89.4327 55.2066 89.2825 55.5629 89.015 55.8255C88.7475 56.0882 88.3847 56.2358 88.0064 56.2358H72.859C72.4808 56.2358 72.118 56.0882 71.8505 55.8255C71.583 55.5629 71.4327 55.2066 71.4327 54.8352C71.4327 54.4637 71.583 54.1075 71.8505 53.8448C72.118 53.5821 72.4808 53.4346 72.859 53.4346Z" fill="white"/>
<path d="M52.4723 53.4345H67.924C68.1113 53.4308 68.2975 53.4633 68.472 53.5303C68.6465 53.5973 68.8059 53.6974 68.941 53.8248C69.0761 53.9523 69.1843 54.1046 69.2594 54.2732C69.3345 54.4417 69.3751 54.6231 69.3788 54.8071C69.3788 55.1785 69.2286 55.5348 68.9611 55.7974C68.6936 56.0601 68.3308 56.2077 67.9525 56.2077H52.4723C52.094 56.2077 51.7313 56.0601 51.4638 55.7974C51.1963 55.5348 51.046 55.1785 51.046 54.8071C51.0535 54.4405 51.207 54.0914 51.4737 53.8348C51.7404 53.5781 52.0989 53.4344 52.4723 53.4345Z" fill="white"/>
<path d="M87.9112 65.5824H61.8573C61.6638 65.5887 61.4708 65.5574 61.2896 65.4903C61.1083 65.4233 60.9423 65.3218 60.801 65.1918C60.6597 65.0617 60.5459 64.9055 60.4661 64.7322C60.3863 64.559 60.3421 64.3719 60.3359 64.1818C60.3421 63.9917 60.3863 63.8047 60.4661 63.6314C60.5459 63.4581 60.6597 63.302 60.801 63.1719C60.9423 63.0418 61.1083 62.9404 61.2896 62.8733C61.4708 62.8063 61.6638 62.775 61.8573 62.7812H87.9112C88.2959 62.7684 88.6704 62.9039 88.9547 63.1586C89.2389 63.4133 89.4105 63.7672 89.4326 64.1445C89.4302 64.3374 89.3887 64.5279 89.3107 64.7049C89.2326 64.8819 89.1196 65.042 88.978 65.1758C88.8365 65.3095 88.6693 65.4144 88.4862 65.4842C88.303 65.554 88.1076 65.5874 87.9112 65.5824Z" fill="white"/>
<path d="M52.4723 62.7719H56.2758C56.6541 62.7719 57.0169 62.9194 57.2844 63.1821C57.5519 63.4447 57.7021 63.801 57.7021 64.1724C57.7021 64.5439 57.5519 64.9002 57.2844 65.1628C57.0169 65.4255 56.6541 65.573 56.2758 65.573H52.4723C52.094 65.573 51.7313 65.4255 51.4638 65.1628C51.1963 64.9002 51.046 64.5439 51.046 64.1724C51.046 63.9885 51.0829 63.8064 51.1546 63.6365C51.2263 63.4665 51.3313 63.3121 51.4638 63.1821C51.5962 63.052 51.7535 62.9489 51.9265 62.8785C52.0996 62.8081 52.285 62.7719 52.4723 62.7719Z" fill="white"/>
<path d="M74.2187 72.1093H88.0063C88.3846 72.1093 88.7474 72.2568 89.0149 72.5195C89.2823 72.7821 89.4326 73.1384 89.4326 73.5098C89.4326 73.8813 89.2823 74.2376 89.0149 74.5002C88.7474 74.7629 88.3846 74.9104 88.0063 74.9104H74.2187C73.8404 74.9104 73.4776 74.7629 73.2101 74.5002C72.9426 74.2376 72.7924 73.8813 72.7924 73.5098C72.7924 73.1384 72.9426 72.7821 73.2101 72.5195C73.4776 72.2568 73.8404 72.1093 74.2187 72.1093Z" fill="white"/>
<path d="M52.4723 72.1093H60.5547C60.933 72.1093 61.2958 72.2568 61.5633 72.5195C61.8308 72.7821 61.981 73.1384 61.981 73.5098C61.981 73.8813 61.8308 74.2376 61.5633 74.5002C61.2958 74.7629 60.933 74.9104 60.5547 74.9104H52.4723C52.094 74.9104 51.7313 74.7629 51.4638 74.5002C51.1963 74.2376 51.046 73.8813 51.046 73.5098C51.046 73.3259 51.0829 73.1438 51.1546 72.9739C51.2263 72.8039 51.3313 72.6495 51.4638 72.5195C51.5962 72.3894 51.7535 72.2863 51.9265 72.2159C52.0996 72.1455 52.285 72.1093 52.4723 72.1093Z" fill="white"/>
<path d="M66.3739 71.9972H68.7511C69.1294 71.9972 69.4922 72.1448 69.7597 72.4074C70.0272 72.6701 70.1774 73.0263 70.1774 73.3978C70.1774 73.7692 70.0272 74.1255 69.7597 74.3882C69.4922 74.6508 69.1294 74.7984 68.7511 74.7984H66.3739C65.9957 74.7984 65.6329 74.6508 65.3654 74.3882C65.0979 74.1255 64.9476 73.7692 64.9476 73.3978C64.9476 73.0263 65.0979 72.6701 65.3654 72.4074C65.6329 72.1448 65.9957 71.9972 66.3739 71.9972Z" fill="white"/>
</g>
<defs>
<filter id="filter0_d_4_5" x="0" y="0" width="163" height="163" filterUnits="userSpaceOnUse" color-interpolation-filters="sRGB">
<feFlood flood-opacity="0" result="BackgroundImageFix"/>
<feColorMatrix in="SourceAlpha" type="matrix" values="0 0 0 0 0 0 0 0 0 0 0 0 0 0 0 0 0 0 127 0" result="hardAlpha"/>
<feOffset dy="4"/>
<feGaussianBlur stdDeviation="2"/>
<feComposite in2="hardAlpha" operator="out"/>
<feColorMatrix type="matrix" values="0 0 0 0 0 0 0 0 0 0 0 0 0 0 0 0 0 0 0.25 0"/>
<feBlend mode="normal" in2="BackgroundImageFix" result="effect1_dropShadow_4_5"/>
<feBlend mode="normal" in="SourceGraphic" in2="effect1_dropShadow_4_5" result="shape"/>
</filter>
<clipPath id="clip0_4_5">
<rect width="84" height="72" fill="white" transform="translate(38 38)"/>
</clipPath>
</defs>
</svg>
