<svg width="163" height="163" viewBox="0 0 163 163" fill="none" xmlns="http://www.w3.org/2000/svg">
<g filter="url(#filter0_d_4_6)">
<circle cx="81.5" cy="77.5" r="77.5" fill="white"/>
</g>
<g clip-path="url(#clip0_4_6)">
<path d="M125.972 66.9734C125.075 66.7113 124.143 66.5956 123.211 66.6306C121.325 66.7078 119.523 67.4392 118.103 68.7029C117.632 69.1894 117.196 69.7101 116.8 70.261C116.708 69.2483 116.585 68.2355 116.416 67.2383L116.278 66.8332L117.183 66.6774C118.115 66.4937 119.002 66.1235 119.792 65.5886C120.582 65.0536 121.259 64.3644 121.785 63.5612C122.883 61.6128 123.325 59.3531 123.042 57.1262C122.966 56.3146 122.843 55.5082 122.674 54.7111C122.596 54.2952 122.478 53.8881 122.321 53.4958C122.192 53.1995 121.974 52.9517 121.699 52.7869C121.424 52.6221 121.106 52.5486 120.788 52.5765C119.897 52.7061 119.032 52.9796 118.226 53.3868C116.583 54.1938 115.254 55.5381 114.453 57.2041C114.165 57.7897 113.944 58.4065 113.793 59.0427C113.261 57.9192 112.667 56.8268 112.014 55.7707C112.429 55.5674 112.829 55.333 113.21 55.0695C114.697 53.9969 115.711 52.3745 116.033 50.551C116.252 48.4272 115.829 46.286 114.821 44.4121C114.312 43.4627 113.722 42.5607 113.057 41.7166C112.828 41.4302 112.507 41.2354 112.15 41.1669C111.794 41.0985 111.425 41.1607 111.109 41.3426C110.391 41.7916 109.754 42.3605 109.222 43.0254C108.103 44.3717 107.441 46.0495 107.336 47.8087C107.33 48.4601 107.371 49.111 107.458 49.7564C106.922 49.1955 106.339 48.6501 105.741 48.1983C105.679 47.5847 105.555 46.9791 105.372 46.3909C104.859 44.5948 103.727 43.0462 102.182 42.0282L101.998 41.9191C100.381 41.0621 98.5191 40.8084 96.7369 41.2024C95.8928 41.3766 95.0771 41.6703 94.3134 42.0749C93.9914 42.2537 93.7432 42.5437 93.6137 42.8925C93.4843 43.2413 93.4822 43.6256 93.6078 43.9758C93.9014 44.7411 94.2553 45.481 94.6662 46.1883L94.8963 46.5467C95.5517 47.7901 96.5272 48.8294 97.7185 49.5538C98.9759 50.2722 100.403 50.6278 101.845 50.5822H103.762C107.533 53.9375 110.403 58.2118 112.101 63.0033C113.8 67.7948 114.271 72.9462 113.471 77.9736C113.389 78.3268 113.328 78.6852 113.287 79.0487C113.211 79.5742 113.103 80.0945 112.965 80.6068L112.244 83.1465L111.278 85.6239C111.083 86.0878 110.862 86.5403 110.618 86.9795C110.449 87.3067 110.281 87.6183 110.173 87.8676C106.873 93.9707 101.602 98.7308 95.2491 101.345C93.4391 102.078 91.3378 103.168 89.1137 104.321C86.5675 105.63 83.7452 107.079 81.015 108.185C78.2847 107.095 75.4625 105.63 72.9163 104.321C70.6769 103.168 68.5755 102.078 66.7809 101.345C60.4358 98.7572 55.1644 94.0242 51.8566 87.9455L51.3658 86.9951C51.1154 86.5538 50.895 86.0957 50.7062 85.6239L49.7399 83.1621L49.0036 80.5601C48.8706 80.0896 48.7681 79.6108 48.6969 79.1266C48.6785 78.7939 48.6219 78.4644 48.5282 78.145C47.6915 73.0847 48.1461 67.891 49.8486 63.06C51.5511 58.2291 54.4446 53.9222 58.2527 50.551H60.1547C61.5966 50.5966 63.0233 50.241 64.2807 49.5227C65.4721 48.7983 66.4476 47.7589 67.103 46.5155L67.3638 46.1104C67.7584 45.4152 68.1019 44.6913 68.3914 43.9446C68.5171 43.5944 68.515 43.2101 68.3856 42.8613C68.2561 42.5126 68.0079 42.2225 67.6859 42.0438C66.9345 41.6552 66.1347 41.3722 65.3084 41.2024C63.5171 40.78 61.6363 41.0174 60.0013 41.8724L59.8172 41.9814C58.2873 42.9907 57.1615 44.5209 56.6422 46.2974C56.4544 46.901 56.3259 47.5221 56.2587 48.1515C55.6605 48.6813 55.0777 49.2266 54.5408 49.7875C54.628 49.1422 54.669 48.4913 54.6635 47.8399C54.5584 46.0806 53.8967 44.4029 52.7769 43.0565C52.2458 42.3917 51.6079 41.8228 50.8903 41.3738C50.5745 41.1919 50.2055 41.1296 49.8488 41.1981C49.4921 41.2666 49.1709 41.4613 48.9423 41.7477C48.267 42.6183 47.6666 43.5462 47.1477 44.5211C46.1616 46.3631 45.7497 48.4659 45.9666 50.551C46.2886 52.3745 47.302 53.9969 48.7889 55.0695C49.1537 55.3427 49.5382 55.5875 49.9393 55.8018C49.2867 56.858 48.6926 57.9503 48.16 59.0738C48.0092 58.4376 47.788 57.8209 47.5005 57.2353C46.7052 55.5704 45.3815 54.2258 43.7426 53.4179C42.917 53.0059 42.0313 52.7323 41.1197 52.6077C40.8016 52.5797 40.4829 52.6533 40.208 52.8181C39.933 52.9828 39.7155 53.2307 39.5858 53.527C39.4291 53.9193 39.3109 54.3264 39.2331 54.7423C39.0619 55.5173 38.9441 56.3034 38.8803 57.095C38.5747 59.3527 39.0172 61.6494 40.138 63.6235C40.6634 64.4268 41.3408 65.1159 42.1308 65.6509C42.9208 66.1859 43.8075 66.556 44.7396 66.7397L45.6445 66.8955L45.5525 67.2695C45.3838 68.2822 45.2611 69.295 45.169 70.3078C44.7724 69.7569 44.3366 69.2361 43.8653 68.7497C42.4642 67.4958 40.6841 66.7648 38.8189 66.6774C37.8815 66.6433 36.9447 66.759 36.0427 67.0202C35.7252 67.1286 35.4514 67.3396 35.263 67.6209C35.0747 67.9023 34.9822 68.2385 34.9996 68.5783C35.0071 68.9125 35.0378 69.2457 35.0917 69.5755C35.1981 70.4723 35.3986 71.3551 35.6899 72.2087C36.0269 73.2569 36.4743 74.2651 37.0243 75.2158C37.6499 76.2095 38.4632 77.0674 39.4171 77.7399C40.5286 78.4769 41.8327 78.8569 43.1597 78.8306C43.744 78.8151 44.325 78.7368 44.8929 78.5969C45.1005 78.565 45.3055 78.5181 45.5065 78.4566C45.5219 78.5074 45.5219 78.5617 45.5065 78.6125C45.5789 78.9103 45.6352 79.212 45.6752 79.5162C45.7548 80.1448 45.8883 80.7652 46.074 81.3703L46.1814 81.7131C45.6965 81.3723 45.1833 81.0751 44.6475 80.825C43.3322 80.2323 41.8959 79.9696 40.4597 80.0591C39.0235 80.1486 37.6296 80.5876 36.3954 81.3391C36.0961 81.5452 35.8781 81.8521 35.7799 82.2056C35.6817 82.5591 35.7095 82.9365 35.8586 83.2712C36.3503 84.3947 36.9353 85.4737 37.6072 86.4965C38.2352 87.5128 39.0168 88.4225 39.9233 89.192C40.809 90.0147 41.8537 90.6409 42.991 91.0305C43.6239 91.2174 44.2798 91.3118 44.939 91.311C46.2857 91.2931 47.6077 90.94 48.7889 90.2827L49.4791 89.8776C50.0006 90.7968 50.5682 91.6849 51.1664 92.5575C50.4951 92.4044 49.813 92.3054 49.1264 92.2615C47.2537 92.2062 45.426 92.8491 43.988 94.0689C43.2531 94.6484 42.6248 95.3552 42.132 96.1567C41.9671 96.4398 41.8947 96.7686 41.925 97.096C41.9553 97.4235 42.0868 97.7328 42.3007 97.9797C43.1456 98.8876 44.1172 99.6646 45.1844 100.286C46.0932 100.863 47.0663 101.328 48.0833 101.672C48.8975 101.906 49.7378 102.031 50.5835 102.046C50.8741 102.078 51.1672 102.078 51.4578 102.046C52.3963 101.91 53.2982 101.583 54.1097 101.085C54.9213 100.587 55.6261 99.9284 56.182 99.1483L56.5502 98.6341C57.4436 99.4089 58.3753 100.137 59.3418 100.815C58.7824 100.849 58.2277 100.938 57.6852 101.08C56.3039 101.431 55.0257 102.114 53.958 103.071C52.8904 104.028 52.0645 105.232 51.5498 106.58C51.4308 106.932 51.4396 107.316 51.5746 107.661C51.7096 108.007 51.962 108.292 52.2861 108.466C53.3561 109.016 54.4695 109.474 55.6145 109.837C56.6957 110.166 57.8148 110.349 58.943 110.382H59.5258C61.0392 110.399 62.5227 109.954 63.7836 109.104C65.0446 108.253 66.0248 107.038 66.5968 105.614C66.7195 105.318 66.8423 105.022 66.9343 104.726C68.3301 105.365 69.9099 106.191 71.5358 107.032C73.1617 107.874 74.8796 108.746 76.5975 109.556C74.9396 110.008 73.1938 110.008 71.5358 109.556C71.1542 109.446 70.7452 109.49 70.3948 109.679C70.0444 109.868 69.7798 110.188 69.6567 110.571C69.5336 110.955 69.5615 111.371 69.7346 111.734C69.9077 112.097 70.2124 112.377 70.5848 112.517C71.618 112.841 72.6938 113.004 73.7752 113C76.2633 112.904 78.7171 112.377 81.0303 111.442C83.3436 112.377 85.7973 112.904 88.2854 113C89.3668 113.004 90.4427 112.841 91.4758 112.517C91.6787 112.469 91.87 112.38 92.038 112.255C92.206 112.13 92.3472 111.972 92.4529 111.79C92.5587 111.608 92.6268 111.405 92.6532 111.196C92.6795 110.986 92.6635 110.773 92.6062 110.569C92.5489 110.366 92.4514 110.177 92.3196 110.013C92.1879 109.849 92.0247 109.714 91.84 109.616C91.6553 109.519 91.453 109.46 91.2454 109.445C91.0377 109.429 90.8291 109.456 90.6322 109.525H90.5248C88.8669 109.977 87.1211 109.977 85.4631 109.525C87.181 108.715 88.8683 107.858 90.5248 107.001C92.1814 106.144 93.7459 105.334 95.1263 104.695C95.2228 105.002 95.3354 105.304 95.4638 105.599C96.1867 107.459 97.6034 108.954 99.4058 109.759C100.378 110.168 101.422 110.369 102.473 110.351H102.995C104.125 110.304 105.244 110.104 106.323 109.759C107.468 109.397 108.582 108.938 109.652 108.388C109.976 108.215 110.228 107.929 110.363 107.584C110.498 107.238 110.507 106.854 110.388 106.503C110.052 105.63 109.587 104.816 109.008 104.087C107.842 102.575 106.229 101.483 104.406 100.971C103.864 100.829 103.309 100.74 102.75 100.706C103.715 100.044 104.647 99.3314 105.541 98.5718L105.909 99.0859C107.015 100.619 108.666 101.653 110.511 101.968H111.37C112.242 101.956 113.109 101.825 113.947 101.579C114.934 101.236 115.881 100.781 116.769 100.223C117.845 99.6024 118.822 98.8197 119.668 97.9018C119.882 97.6549 120.013 97.3456 120.044 97.0181C120.074 96.6907 120.001 96.3619 119.837 96.0788C119.344 95.286 118.722 94.5851 117.996 94.0065C116.556 92.7775 114.722 92.1288 112.842 92.1835C112.151 92.2275 111.463 92.3265 110.787 92.4796C111.385 91.607 111.953 90.7189 112.474 89.7996L113.18 90.2048C114.344 90.8481 115.643 91.1956 116.968 91.2175C117.643 91.2184 118.314 91.124 118.962 90.9371C120.096 90.5468 121.14 89.9266 122.03 89.1141C122.92 88.3787 123.691 87.5059 124.315 86.5276C125.011 85.4948 125.621 84.4056 126.141 83.2712C126.283 82.9349 126.304 82.5586 126.2 82.2082C126.096 81.8577 125.874 81.5556 125.573 81.3547C124.34 80.5995 122.946 80.1583 121.509 80.0687C120.072 79.9792 118.635 80.244 117.321 80.8405C116.785 81.0907 116.272 81.3879 115.787 81.7287L115.879 81.4015C116.065 80.7964 116.198 80.176 116.278 79.5473C116.302 79.2089 116.363 78.8743 116.462 78.5501C116.669 78.5837 116.874 78.6305 117.076 78.6904C117.651 78.8142 118.237 78.8768 118.824 78.8773C120.154 78.8944 121.459 78.5035 122.567 77.7555C123.552 77.0746 124.387 76.1939 125.021 75.169C125.54 74.2453 125.961 73.2687 126.279 72.2554C126.57 71.4178 126.77 70.5506 126.877 69.6689C126.871 69.3127 126.907 68.957 126.984 68.6094C127.021 68.2608 126.942 67.9096 126.758 67.6128C126.574 67.3159 126.297 67.0906 125.972 66.9734Z" fill="#5F5EAA"/>
<path d="M64.8181 60.8346C62.5992 63.0952 61.3531 66.1573 61.3531 69.3496C61.3531 72.542 62.5992 75.6041 64.8181 77.8647L65.2322 78.2386L65.3243 78.3789L79.9111 93.1964C80.0537 93.3425 80.2234 93.4584 80.4103 93.5375C80.5972 93.6166 80.7977 93.6573 81.0002 93.6573C81.2027 93.6573 81.4031 93.6166 81.59 93.5375C81.777 93.4584 81.9466 93.3425 82.0892 93.1964L96.6761 78.3789L96.7681 78.2386L97.1822 77.8647C99.409 75.669 100.698 72.673 100.773 69.5215C100.847 66.3699 99.7001 63.3147 97.5793 61.0133C95.4584 58.7119 92.5329 57.3482 89.4323 57.2157C86.3317 57.0832 83.3038 58.1925 81.0002 60.3049C78.7391 58.2932 75.8104 57.2289 72.8063 57.3272C69.8022 57.4256 66.9469 58.6792 64.8181 60.8346Z" fill="#5F5EAA"/>
<path d="M89.3442 65.1818C90.6512 65.7884 91.7819 66.7276 92.6266 67.9085C92.8216 68.1638 93.0899 68.3512 93.3944 68.4447C93.6988 68.5383 94.0244 68.5334 94.326 68.4307C94.6276 68.328 94.8903 68.1326 95.0777 67.8716C95.2652 67.6105 95.3681 67.2967 95.3722 66.9736C95.3669 66.6735 95.2764 66.3813 95.1115 66.1323C94.6289 65.4393 94.0678 64.8066 93.4396 64.2469C92.5871 63.4849 91.625 62.8597 90.5866 62.3928C90.4104 62.2905 90.216 62.2245 90.0146 62.1984C89.8133 62.1724 89.6088 62.187 89.413 62.2412C89.2171 62.2955 89.0337 62.3884 88.8732 62.5147C88.7127 62.6409 88.5783 62.7981 88.4776 62.9771C88.3769 63.1561 88.3119 63.3536 88.2863 63.5581C88.2607 63.7627 88.275 63.9704 88.3284 64.1693C88.3818 64.3682 88.4733 64.5545 88.5976 64.7176C88.7219 64.8806 88.8765 65.0172 89.0528 65.1195L89.2982 65.2286L89.3442 65.1818Z" fill="white"/>
</g>
<defs>
<filter id="filter0_d_4_6" x="0" y="0" width="163" height="163" filterUnits="userSpaceOnUse" color-interpolation-filters="sRGB">
<feFlood flood-opacity="0" result="BackgroundImageFix"/>
<feColorMatrix in="SourceAlpha" type="matrix" values="0 0 0 0 0 0 0 0 0 0 0 0 0 0 0 0 0 0 127 0" result="hardAlpha"/>
<feOffset dy="4"/>
<feGaussianBlur stdDeviation="2"/>
<feComposite in2="hardAlpha" operator="out"/>
<feColorMatrix type="matrix" values="0 0 0 0 0 0 0 0 0 0 0 0 0 0 0 0 0 0 0.25 0"/>
<feBlend mode="normal" in2="BackgroundImageFix" result="effect1_dropShadow_4_6"/>
<feBlend mode="normal" in="SourceGraphic" in2="effect1_dropShadow_4_6" result="shape"/>
</filter>
<clipPath id="clip0_4_6">
<rect width="92" height="72" fill="white" transform="translate(35 41)"/>
</clipPath>
</defs>
</svg>
