<svg width="14" height="24" viewBox="0 0 14 24" fill="none" xmlns="http://www.w3.org/2000/svg">
<path d="M9.33333 10.8333H4.66667C4.04783 10.8333 3.45434 10.5875 3.01675 10.1499C2.57917 9.71231 2.33333 9.11882 2.33333 8.49998C2.33333 7.88114 2.57917 7.28765 3.01675 6.85006C3.45434 6.41248 4.04783 6.16665 4.66667 6.16665H10.5C10.8094 6.16665 11.1062 6.28956 11.325 6.50836C11.5437 6.72715 11.6667 7.02389 11.6667 7.33331C11.6667 7.64273 11.7896 7.93948 12.0084 8.15827C12.2272 8.37706 12.5239 8.49998 12.8333 8.49998C13.1428 8.49998 13.4395 8.37706 13.6583 8.15827C13.8771 7.93948 14 7.64273 14 7.33331C14 6.40506 13.6313 5.51482 12.9749 4.85844C12.3185 4.20206 11.4283 3.83331 10.5 3.83331H8.16667V1.49998C8.16667 1.19056 8.04375 0.893814 7.82496 0.675022C7.60616 0.456229 7.30942 0.333313 7 0.333313C6.69058 0.333313 6.39383 0.456229 6.17504 0.675022C5.95625 0.893814 5.83333 1.19056 5.83333 1.49998V3.83331H4.66667C3.42899 3.83331 2.242 4.32498 1.36683 5.20015C0.491665 6.07532 0 7.2623 0 8.49998C0 9.73766 0.491665 10.9246 1.36683 11.7998C2.242 12.675 3.42899 13.1666 4.66667 13.1666H9.33333C9.95217 13.1666 10.5457 13.4125 10.9832 13.8501C11.4208 14.2877 11.6667 14.8811 11.6667 15.5C11.6667 16.1188 11.4208 16.7123 10.9832 17.1499C10.5457 17.5875 9.95217 17.8333 9.33333 17.8333H3.5C3.19058 17.8333 2.89383 17.7104 2.67504 17.4916C2.45625 17.2728 2.33333 16.9761 2.33333 16.6666C2.33333 16.3572 2.21042 16.0605 1.99162 15.8417C1.77283 15.6229 1.47609 15.5 1.16667 15.5C0.857247 15.5 0.560501 15.6229 0.341709 15.8417C0.122917 16.0605 0 16.3572 0 16.6666C0 17.5949 0.368749 18.4851 1.02513 19.1415C1.6815 19.7979 2.57174 20.1666 3.5 20.1666H5.83333V22.5C5.83333 22.8094 5.95625 23.1061 6.17504 23.3249C6.39383 23.5437 6.69058 23.6666 7 23.6666C7.30942 23.6666 7.60616 23.5437 7.82496 23.3249C8.04375 23.1061 8.16667 22.8094 8.16667 22.5V20.1666H9.33333C10.571 20.1666 11.758 19.675 12.6332 18.7998C13.5083 17.9246 14 16.7377 14 15.5C14 14.2623 13.5083 13.0753 12.6332 12.2001C11.758 11.325 10.571 10.8333 9.33333 10.8333Z" fill="#BB308A"/>
</svg>
