<svg width="96" height="96" viewBox="0 0 96 96" fill="none" xmlns="http://www.w3.org/2000/svg">
<path d="M16.0002 22.4C13.3538 22.4 11.2002 24.5536 11.2002 27.2V40.0001C11.2002 42.6465 13.3538 44.8001 16.0002 44.8001C18.6466 44.8001 20.8002 42.6465 20.8002 40.0001V27.2C20.8002 24.5536 18.6466 22.4 16.0002 22.4Z" fill="#7777BD"/>
<path d="M80.0002 22.4C77.3538 22.4 75.2002 24.5536 75.2002 27.2V40.0001C75.2002 42.6465 77.3538 44.8001 80.0002 44.8001C82.6466 44.8001 84.8002 42.6465 84.8002 40.0001V27.2C84.8002 24.5536 82.6466 22.4 80.0002 22.4Z" fill="#7777BD"/>
<path d="M80.0926 23.8976C75.8398 9.82725 62.6429 0 47.9998 0C33.3566 0 20.1598 9.82725 15.9069 23.8976C15.6509 24.7425 16.1293 25.6369 16.9756 25.8913C17.8237 26.1489 18.7149 25.6689 18.9708 24.8226C22.8189 12.0928 34.7549 3.20006 47.9998 3.20006C61.2446 3.20006 73.1806 12.0928 77.0285 24.8226C77.2381 25.5154 77.8734 25.9601 78.5596 25.9601C78.7132 25.9601 78.8684 25.9376 79.0237 25.8913C79.8701 25.6369 80.3486 24.7423 80.0926 23.8976Z" fill="#7777BD"/>
<path d="M79.9998 41.6001C79.1166 41.6001 78.3998 42.3152 78.3998 43.2C78.3998 47.6112 74.8111 51.2001 70.3997 51.2001C69.5166 51.2001 68.7998 51.9152 68.7998 52.8C68.7998 53.6848 69.5166 54.4 70.3997 54.4C76.5758 54.4 81.5997 49.3744 81.5997 43.2C81.5997 42.3152 80.8829 41.6001 79.9998 41.6001Z" fill="#7777BD"/>
<path d="M67.1998 46.4H57.5998C54.9534 46.4 52.7998 48.5536 52.7998 51.2V54.4001C52.7998 57.0464 54.9534 59.2001 57.5998 59.2001H67.1998C69.8462 59.2001 71.9998 57.0464 71.9998 54.4001V51.2C71.9998 48.5536 69.8462 46.4 67.1998 46.4Z" fill="#7777BD"/>
<path d="M48.0003 8C33.8835 8 22.4004 19.4847 22.4004 33.5999C22.4004 47.7151 33.8835 59.1999 48.0003 59.1999C50.6115 59.1999 53.1971 58.8046 55.6852 58.0239C56.2005 57.8608 56.6004 57.4496 56.7461 56.9294C56.8918 56.4078 56.7652 55.8494 56.4084 55.4414C56.2228 55.2303 56.0004 54.8767 56.0004 54.3999V51.1998C56.0004 50.3167 56.7172 49.5999 57.6003 49.5999H67.1668C67.6708 49.5999 68.1444 49.3647 68.4468 48.9631C71.8181 44.4815 73.6004 39.1694 73.6004 33.5999C73.6003 19.4847 62.1172 8 48.0003 8ZM66.3523 46.4H57.6003C54.954 46.4 52.8003 48.5536 52.8003 51.2V54.4001C52.8003 54.7569 52.8419 55.1105 52.922 55.4544C51.3091 55.8176 49.6612 56 48.0003 56C35.6484 56 25.6003 45.9521 25.6003 33.5999C25.6003 21.2478 35.6484 11.1999 48.0003 11.1999C60.3523 11.1999 70.4004 21.248 70.4004 33.5999C70.4004 38.2079 69.0035 42.6176 66.3523 46.4Z" fill="#7777BD"/>
<path d="M64.6207 62.3999H31.3775C21.1344 62.3999 12.7998 70.7343 12.7998 80.9776V94.4C12.7998 95.2848 13.5166 95.9999 14.3997 95.9999H81.5997C82.4829 95.9999 83.1997 95.2848 83.1997 94.4V80.9776C83.1999 70.7343 74.8655 62.3999 64.6207 62.3999Z" fill="#D7BDFC"/>
</svg>
