<svg width="100" height="100" viewBox="0 0 100 100" fill="none" xmlns="http://www.w3.org/2000/svg">
<g clip-path="url(#clip0_127_1609)">
<path d="M40.2161 28.3151C40.4509 31.6987 44.3169 33.5515 47.1112 31.6292C49.5692 29.937 52.9247 31.6995 52.9247 34.686V46.9731H62.1296C60.4948 40.2978 65.7876 33.7944 72.828 34.2806C79.0226 34.7099 83.6163 40.6745 82.0695 46.9731H91.3673C99.1474 35.2101 91.312 18.1913 76.1511 17.4128C77.8653 8.35986 70.8851 0.0151367 61.7372 0.0151367C58.4327 0.0151367 55.38 1.11357 52.9247 2.96396V21.3024C52.9247 24.2868 49.5718 26.0522 47.1109 24.3593C44.1208 22.3022 39.9569 24.5745 40.2161 28.3151Z" fill="#7777BD"/>
<path d="M21.1972 46.9734C24.1822 46.9734 25.9472 50.3271 24.2536 52.7877C22.2062 55.7627 24.4542 59.9394 28.2107 59.6801C31.6021 59.4449 33.4456 55.576 31.5257 52.7869C29.8329 50.3275 31.597 46.9734 34.5828 46.9734H47.0673V37.9607C40.7546 39.5115 34.8015 34.9004 34.3728 28.7203C33.8867 21.7095 40.3628 16.3816 47.0673 18.0232V2.96423C36.5568 -4.95686 21.4997 4.08767 23.8062 17.2191C8.55482 18.0295 0.836655 35.0851 8.68412 46.9734H21.1972Z" fill="#D7BEFC"/>
<path d="M91.2696 52.831H78.7952C75.8089 52.831 74.0456 49.4765 75.7384 47.0173C77.6597 44.227 75.8112 40.3593 72.4233 40.1243C68.6675 39.8636 66.4181 44.0403 68.4663 47.0167C70.1593 49.4772 68.3956 52.831 65.4099 52.831H52.9253V61.8386C59.6106 60.2017 66.1071 65.5077 65.6198 72.5354C65.1909 78.7179 59.2362 83.3253 52.9253 81.7761V97.0359C63.4358 104.957 78.4929 95.9124 76.1864 82.781C91.0712 81.9897 99.3448 65.2907 91.2696 52.831Z" fill="#D7BEFC"/>
<path d="M59.7756 72.1303C60.0348 68.3917 55.8711 66.1172 52.8811 68.1751C50.4215 69.8663 47.067 68.1051 47.067 65.1182V52.8313H37.857C39.4514 59.3196 34.5094 65.5497 27.8768 65.5497C21.1816 65.5497 16.3467 59.2409 17.9172 52.8313H8.68477C0.84161 64.7182 8.54473 81.8018 23.8408 82.5874C22.1266 91.6403 29.1068 99.985 38.2547 99.985C41.5592 99.985 44.6119 98.8866 47.0672 97.0362V78.502C47.0672 75.518 50.4203 73.752 52.8805 75.445C55.6691 77.3643 59.5404 75.521 59.7756 72.1303Z" fill="#7777BD"/>
</g>
<defs>
<clipPath id="clip0_127_1609">
<rect width="100" height="100" fill="white"/>
</clipPath>
</defs>
</svg>
