<svg width="98" height="98" viewBox="0 0 98 98" fill="none" xmlns="http://www.w3.org/2000/svg">
<g clip-path="url(#clip0_127_1546)">
<path d="M7.9072 41.4878C9.81895 41.4878 9.82201 38.6179 7.9072 38.6179C5.99545 38.6179 5.9922 41.4878 7.9072 41.4878Z" fill="#CCAEF8"/>
<path d="M23.8601 50.2596C10.7035 50.2596 0 60.9652 0 74.124C0 86.8367 11.1494 97.9883 23.8601 97.9883C37.0168 97.9883 47.7202 87.2827 47.7202 74.124C47.7202 60.9652 37.0168 50.2596 23.8601 50.2596ZM23.8601 95.1186C18.5716 95.1186 13.2296 92.8081 9.20344 88.7795C-4.26891 75.6286 5.40444 53.1443 23.8605 53.1296C51.7056 54.2825 51.6991 93.9691 23.8601 95.1186Z" fill="#CCAEF8"/>
<path d="M13.0971 70.2923C13.8897 70.2923 14.532 69.6498 14.532 68.8574C14.532 67.8468 15.354 67.0246 16.364 67.0246C17.3742 67.0246 18.1961 67.8468 18.1961 68.8574C18.2606 70.7559 21.001 70.7571 21.0661 68.8574C21.0661 66.2643 18.9569 64.1549 16.364 64.1549C13.7713 64.1549 11.6621 66.2645 11.6621 68.8576C11.6621 69.6498 12.3046 70.2923 13.0971 70.2923Z" fill="#CCAEF8"/>
<path d="M28.1688 70.2923C28.9615 70.2923 29.6038 69.6498 29.6038 68.8574C29.6038 67.8468 30.4257 67.0246 31.4358 67.0246C32.446 67.0246 33.2679 67.8468 33.2679 68.8574C33.3324 70.7559 36.0728 70.7571 36.1378 68.8574C36.1378 66.2643 34.0286 64.1549 31.4358 64.1549C28.8431 64.1549 26.7339 66.2645 26.7339 68.8576C26.7339 69.6498 27.3762 70.2923 28.1688 70.2923Z" fill="#CCAEF8"/>
<path d="M6.84717 74.0681C6.84717 77.384 7.80342 80.6021 9.61262 83.3752C10.0458 84.0391 10.9349 84.226 11.5986 83.7929C12.2623 83.3599 12.4492 82.4708 12.0163 81.8071C10.7747 79.9041 10.0163 77.7486 9.78922 75.5032H38.0106C37.1213 85.4385 25.8068 91.4644 17.0338 86.4812C15.3402 85.617 14.0134 88.0132 15.6419 88.9909C26.8151 95.3116 41.0627 86.9146 40.9523 74.0681C40.9525 73.2758 40.31 72.6333 39.5175 72.6333H8.28213C7.48965 72.6331 6.84717 73.2756 6.84717 74.0681Z" fill="#CCAEF8"/>
<path d="M39.7558 47.7573C45.0042 47.7573 50.1254 46.0129 54.2736 42.831C55.4558 43.4742 56.3239 43.819 56.4413 43.8647C56.7878 43.9948 57.1345 43.9948 57.4812 43.8647C57.8945 43.7042 67.6007 39.8449 67.6013 32.2817C67.6015 29.5455 65.8906 27.2064 63.495 26.3022C64.0881 20.4724 62.52 14.5996 59.07 9.87762C58.0144 8.42506 55.6448 10.0458 56.7482 11.5646C59.7674 15.6969 61.1471 20.8319 60.6477 25.9371C59.2481 26.0823 57.9591 26.6902 56.9625 27.6499C55.8128 26.5423 54.2746 25.9021 52.6253 25.9019C49.151 25.9015 46.3236 28.7628 46.3232 32.28C46.323 36.2853 49.0448 39.2518 51.667 41.1808C37.8552 50.8309 19.0842 40.3299 18.7657 23.8926C18.6206 7.24304 37.8636 -2.95626 51.5359 6.51389C53.0212 7.52314 54.702 5.19545 53.1492 4.14028C37.6017 -6.62612 15.7327 4.96414 15.8959 23.8933C15.8957 36.6057 27.0452 47.7573 39.7558 47.7573Z" fill="#7777BD"/>
<path d="M39.1474 26.7942C37.3041 26.7504 37.2712 29.6488 39.1238 29.6639C39.8218 29.6697 40.3853 30.2237 40.3795 30.8987C40.3757 31.3577 40.1097 31.7725 39.6854 31.9813C38.6451 32.4927 38.6327 34.0178 39.6643 34.5462C40.0853 34.7617 40.3445 35.1809 40.3407 35.6397C40.3353 36.3114 39.7688 36.854 39.0758 36.854C37.1966 36.8305 37.1954 39.7239 39.0762 39.7239C41.3406 39.7239 43.192 37.9096 43.2106 35.6632C43.2177 34.7932 42.9512 33.9688 42.47 33.2865C42.9621 32.6123 43.2422 31.7922 43.2494 30.9225C43.268 28.6646 41.4276 26.8128 39.1474 26.7942Z" fill="#7777BD"/>
<path d="M27.5181 20.2561C27.5845 22.156 30.3224 22.155 30.388 20.2561C30.388 19.2455 31.2099 18.4236 32.2199 18.4236C33.2302 18.4236 34.0521 19.2457 34.0521 20.2563C34.1166 22.1548 36.857 22.156 36.922 20.2563C36.6637 14.0173 27.7752 14.0196 27.5181 20.2561Z" fill="#7777BD"/>
<path d="M45.4602 20.2559C45.5613 17.8241 49.0243 17.8259 49.1244 20.2559C49.1888 22.1545 51.929 22.1556 51.9943 20.2559C51.9943 17.6629 49.8851 15.5535 47.2922 15.5535C44.6995 15.5535 42.5903 17.663 42.5903 20.2561C42.5903 22.0517 45.4602 22.1334 45.4602 20.2559Z" fill="#7777BD"/>
<path d="M96.8569 58.3632C97.9597 54.8337 96.5954 53.0332 93.7742 52.0494C84.747 38.3928 63.3889 38.2902 54.4267 52.0515C51.2487 52.4569 50.4865 55.6433 51.3813 58.2409C46.3234 73.3353 58.1618 89.6185 74.0998 89.4185C89.5359 89.4999 101.897 73.1339 96.8569 58.3632ZM74.0996 44.5598C80.2948 44.5598 86.1332 47.2952 90.103 51.969C81.4305 52.0901 75.8053 54.207 74.4589 54.7698H73.7401C72.3941 54.2071 66.7698 52.0905 58.096 51.9692C62.0662 47.296 67.9071 44.5598 74.0996 44.5598ZM88.7563 80.2097C75.1305 94.1428 51.9781 83.2855 53.1507 64.2264L53.511 65.4454C54.3808 68.534 57.2291 70.691 60.4373 70.691H65.1487C68.3194 70.691 71.0814 68.6562 72.0212 65.6277L74.0994 58.9301L76.1778 65.6277C77.1174 68.6562 79.8794 70.691 83.0503 70.691H87.7618C90.9699 70.691 93.818 68.534 94.683 65.4632L95.0479 64.2289C95.4397 70.0292 93.1163 75.8291 88.7563 80.2097Z" fill="#CCAEF8"/>
<path d="M81.243 74.5458C77.478 78.4693 70.7211 78.4692 66.9563 74.5458C65.5726 73.2499 63.6278 75.1825 64.9269 76.575C69.76 81.6119 78.4394 81.6121 83.2726 76.5748C84.5677 75.1867 82.6343 73.2482 81.243 74.5458Z" fill="#CCAEF8"/>
<path d="M73.4917 15.741C75.4034 15.741 75.4065 12.8711 73.4917 12.8711C71.5799 12.8711 71.5767 15.741 73.4917 15.741Z" fill="#7777BD"/>
<path d="M83.4692 34.694C85.381 34.694 85.384 31.8241 83.4692 31.8241C81.5575 31.8241 81.5542 34.694 83.4692 34.694Z" fill="#CCAEF8"/>
<path d="M54.0756 91.7704C52.1638 91.7704 52.1608 94.6403 54.0756 94.6403C55.9873 94.6403 55.9906 91.7704 54.0756 91.7704Z" fill="#7777BD"/>
</g>
<defs>
<clipPath id="clip0_127_1546">
<rect width="98" height="98" fill="white"/>
</clipPath>
</defs>
</svg>
