<svg width="217" height="168" viewBox="0 0 217 168" fill="none" xmlns="http://www.w3.org/2000/svg">
<g clip-path="url(#clip0_1_290)">
<path d="M174.881 96.5729C173.6 60.2254 137.295 38.4965 104.047 37.7732C77.0358 37.1504 54.7048 57.4687 47.7298 78.3395C33.1258 122.19 86.875 176.84 138.734 155.377C162.81 145.269 175.743 120.423 174.881 96.5729Z" fill="#CCAEF8"/>
<path d="M166.122 76.533C153.721 45.2554 115.291 37.5688 86.0493 47.24C62.2817 55.0664 49.0993 79.6915 49.4903 100.04C50.3561 142.778 114.23 173.748 152.828 138.976C170.702 122.709 174.277 97.0493 166.122 76.533Z" fill="#E1CDFF" fill-opacity="0.5"/>
<path d="M113.392 101.634C112.163 102.975 110.599 104.708 108.756 104.708C106.912 104.708 106.605 103.311 106.912 101.913C107.566 100.133 108.389 98.4206 109.37 96.7981C109.926 95.8335 110.219 94.7394 110.219 93.6256C110.219 92.5118 109.926 91.4177 109.37 90.4531C108.365 88.9717 105.935 90.4531 106.968 91.8786C108.001 93.3041 106.549 96.0713 105.6 97.6925C104.29 99.5409 103.74 101.823 104.063 104.065C104.348 105.18 105.039 106.147 106 106.778C106.961 107.409 108.123 107.658 109.258 107.475C111.707 107.018 113.893 105.65 115.375 103.646C116.576 102.304 114.593 100.32 113.392 101.634Z" fill="#351D47"/>
<path d="M90.7338 102.358C91.8921 99.5818 93.9471 97.1779 94.8364 98.7805C96.331 101.508 97.2352 106.947 93.8649 108.42C93.2073 108.757 92.4562 108.812 91.763 108.573C91.0697 108.334 90.4856 107.82 90.1284 107.134C89.6352 106.017 90.0014 104.114 90.7338 102.358Z" fill="#351D47"/>
<path d="M129.073 104.267C128.301 102.323 126.931 100.64 126.338 101.762C125.342 103.672 124.739 107.479 126.986 108.51C127.424 108.746 127.925 108.784 128.387 108.617C128.849 108.45 129.239 108.09 129.477 107.609C129.806 106.827 129.561 105.496 129.073 104.267Z" fill="#351D47"/>
<path d="M100.763 64.4165C93.9632 64.8923 87.6124 67.9609 83.039 72.9805C82.7204 73.3099 82.5425 73.7489 82.5425 74.2056C82.5425 74.6623 82.7204 75.1013 83.039 75.4307C83.3678 75.7525 83.8109 75.9329 84.2726 75.9329C84.7342 75.9329 85.1774 75.7525 85.5061 75.4307C89.4216 71.0555 94.8876 68.3516 100.763 67.8837C101.222 67.872 101.659 67.6856 101.984 67.363C102.309 67.0404 102.496 66.6062 102.508 66.1501C102.502 65.6922 102.316 65.2547 101.99 64.9309C101.664 64.6071 101.224 64.4225 100.763 64.4165Z" fill="#351D47"/>
<path d="M137.897 75.7311C136.616 72.5605 134.693 69.6851 132.247 67.2835C129.801 64.8818 126.883 63.0051 123.676 61.7699C123.23 61.6494 122.755 61.7095 122.353 61.937C121.952 62.1645 121.657 62.5408 121.535 62.9834C121.42 63.4184 121.477 63.8803 121.693 64.2754C121.909 64.6704 122.269 64.9688 122.699 65.1099C124.011 65.6375 125.269 66.2876 126.458 67.0516C127.647 67.824 128.755 68.7146 129.763 69.7098C130.773 70.6963 131.681 71.7803 132.474 72.9458C133.255 74.1188 133.925 75.3607 134.476 76.6557C134.625 77.0803 134.928 77.4342 135.327 77.648C135.725 77.8618 136.189 77.9201 136.629 77.8115C137.069 77.6942 137.448 77.4122 137.684 77.0245C137.92 76.6369 137.997 76.1734 137.897 75.7311Z" fill="#351D47"/>
<path d="M99.3058 89.0993C99.1982 87.8054 98.7929 86.553 98.121 85.4382C97.4492 84.3235 96.5286 83.3759 95.4299 82.6681C94.2475 81.9638 92.9007 81.5758 91.5215 81.5421C90.1422 81.5085 88.7778 81.8303 87.5618 82.4761C86.3732 83.1068 85.3827 84.0495 84.699 85.2008C84.0154 86.3522 83.6649 87.6677 83.6859 89.0033C83.5221 90.3042 83.723 91.6247 84.2665 92.8201C84.81 94.0154 85.6752 95.0395 86.7672 95.7801C87.3468 96.2088 88.005 96.5217 88.7052 96.7016L89.4222 96.9704C90.6147 97.2762 91.8628 97.3019 93.0671 97.0453C94.2713 96.7887 95.3984 96.2569 96.3584 95.4924C97.3185 94.7278 98.0849 93.7517 98.5966 92.6417C99.1083 91.5317 99.3512 90.3187 99.3058 89.0993Z" fill="#AE96CF"/>
<path d="M135.894 89.0993C135.787 87.8054 135.381 86.553 134.709 85.4382C134.038 84.3235 133.117 83.3759 132.018 82.6681C130.836 81.9638 129.489 81.5758 128.11 81.5421C126.731 81.5085 125.366 81.8303 124.15 82.4761C122.962 83.1068 121.971 84.0495 121.287 85.2008C120.604 86.3522 120.253 87.6677 120.274 89.0033C120.11 90.3042 120.311 91.6247 120.855 92.8201C121.398 94.0154 122.264 95.0395 123.356 95.7801C123.935 96.2088 124.593 96.5217 125.294 96.7016L126.011 96.9704C127.203 97.2762 128.451 97.3019 129.655 97.0453C130.86 96.7887 131.987 96.2569 132.947 95.4924C133.907 94.7278 134.673 93.7517 135.185 92.6417C135.697 91.5317 135.94 90.3187 135.894 89.0993Z" fill="#AE96CF"/>
<path d="M95.8322 89.3341C95.7676 88.5551 95.5242 87.8012 95.1207 87.13C94.7173 86.4589 94.1645 85.8885 93.5047 85.4624C92.7947 85.0384 91.986 84.8048 91.1577 84.7845C90.3295 84.7643 89.5102 84.958 88.78 85.3468C88.0662 85.7265 87.4715 86.294 87.0609 86.9871C86.6504 87.6802 86.4399 88.4722 86.4525 89.2763C86.3542 90.0595 86.4748 90.8544 86.8012 91.574C87.1276 92.2937 87.6471 92.9102 88.3029 93.356C88.6509 93.6141 89.0462 93.8025 89.4666 93.9108L89.8972 94.0726C90.6132 94.2567 91.3627 94.2722 92.0859 94.1177C92.809 93.9632 93.4858 93.6431 94.0623 93.1828C94.6388 92.7225 95.099 92.1349 95.4063 91.4667C95.7136 90.7984 95.8594 90.0682 95.8322 89.3341Z" fill="#351D47"/>
<path d="M131.723 89.3341C131.658 88.5551 131.414 87.8012 131.011 87.13C130.608 86.4589 130.055 85.8885 129.395 85.4624C128.685 85.0384 127.876 84.8048 127.048 84.7845C126.22 84.7643 125.4 84.958 124.67 85.3468C123.957 85.7265 123.362 86.294 122.951 86.9871C122.541 87.6802 122.33 88.4722 122.343 89.2763C122.245 90.0595 122.365 90.8544 122.691 91.574C123.018 92.2937 123.537 92.9102 124.193 93.356C124.541 93.6141 124.936 93.8025 125.357 93.9108L125.787 94.0726C126.504 94.2567 127.253 94.2722 127.976 94.1177C128.699 93.9632 129.376 93.6431 129.953 93.1828C130.529 92.7225 130.989 92.1349 131.297 91.4667C131.604 90.7984 131.75 90.0682 131.723 89.3341Z" fill="#351D47"/>
<path d="M131.473 123.989C130.601 124.902 129.588 119.967 129.402 119.504C129.133 118.541 128.563 117.686 127.775 117.063C126.987 116.441 126.021 116.081 125.015 116.037C122.757 116.037 121.151 118.002 120.162 119.805C119.778 120.672 119.272 121.482 118.661 122.209C117.741 123.087 116.787 122.417 116.042 121.643C114.53 120.082 113.715 117.99 111.678 116.962C110.629 116.48 109.463 116.302 108.316 116.449C107.17 116.596 106.088 117.062 105.196 117.794C104.325 118.467 103.56 119.265 102.927 120.163C102.277 121.256 101.525 122.285 100.681 123.238C99.0054 124.763 97.6438 120.753 96.8059 119.77C95.9793 118.817 94.8539 118.168 93.6106 117.926C92.3673 117.685 91.0785 117.867 89.9516 118.441C87.4845 119.597 86.088 121.908 84.8894 124.22C83.8536 126.196 86.8677 127.953 87.9034 125.965C88.846 124.174 90.0097 121.643 92.2907 121.342C94.5716 121.042 95.2349 124.231 96.4568 125.549C97.1382 126.394 98.1132 126.955 99.19 127.121C100.267 127.288 101.367 127.049 102.275 126.45C104.254 125.098 105.045 122.66 106.756 121.042C107.096 120.647 107.525 120.336 108.008 120.136C108.491 119.935 109.015 119.849 109.537 119.886C110.537 120.241 111.367 120.954 111.865 121.885C113.121 123.642 114.495 125.526 116.741 126.034C117.777 126.218 118.845 126.077 119.798 125.632C120.75 125.187 121.54 124.459 122.059 123.55C122.641 122.729 124.2 118.649 125.62 119.747C126.376 120.337 126.458 121.77 126.644 122.613C126.836 123.858 127.349 125.033 128.134 126.023C128.482 126.44 128.912 126.783 129.398 127.029C129.884 127.276 130.416 127.421 130.96 127.457C131.505 127.493 132.051 127.418 132.565 127.237C133.08 127.056 133.552 126.772 133.952 126.404C135.488 124.821 133.021 122.371 131.473 123.989Z" fill="#351D47"/>
</g>
<defs>
<clipPath id="clip0_1_290">
<rect width="216.394" height="167.261" fill="white"/>
</clipPath>
</defs>
</svg>
