<svg width="216" height="167" viewBox="0 0 216 167" fill="none" xmlns="http://www.w3.org/2000/svg">
<g clip-path="url(#clip0_1_268)">
<path d="M174.563 96.4223C173.284 60.1315 137.045 38.4365 103.858 37.7143C76.8956 37.0924 54.6052 57.3791 47.6429 78.2173C33.0655 121.999 86.717 176.564 138.482 155.134C162.513 145.043 175.423 120.235 174.563 96.4223Z" fill="#5F5EAA"/>
<path d="M165.819 76.4136C153.441 45.1849 115.081 37.5102 85.8927 47.1663C62.1684 54.9805 49.0099 79.5672 49.4002 99.8841C50.2644 142.555 114.022 173.477 152.549 138.76C170.391 122.517 173.96 96.8979 165.819 76.4136Z" fill="#7777BD"/>
<path d="M113.186 103.627C111.959 104.967 110.398 106.697 108.558 106.697C106.718 106.697 106.411 105.302 106.718 103.906C107.371 102.129 108.192 100.419 109.171 98.7991C109.726 97.8361 110.019 96.7436 110.019 95.6316C110.019 94.5195 109.726 93.4271 109.171 92.4641C108.167 90.9849 105.742 92.464 106.773 93.8873C107.805 95.3106 106.355 98.0735 105.407 99.6922C104.1 101.538 103.551 103.816 103.874 106.055C104.159 107.168 104.848 108.134 105.808 108.764C106.767 109.394 107.927 109.642 109.06 109.46C111.504 109.003 113.685 107.637 115.165 105.637C116.364 104.297 114.384 102.316 113.186 103.627Z" fill="#351D47"/>
<g clip-path="url(#clip1_1_268)">
<path d="M136.59 79.7627C136.296 78.6222 135.424 77.8867 133.711 78.5156C129.276 80.1677 121.174 79.4003 119.24 84.9109C118.975 85.6987 118.899 86.5391 119.017 87.3627C119.135 88.1863 119.445 88.9697 119.92 89.6483C120.395 90.3269 121.022 90.8813 121.75 91.266C122.478 91.6506 123.285 91.8543 124.106 91.8605H124.41C129.181 91.6047 132.818 87.0853 135.708 83.6638C136.12 83.1147 136.412 82.4827 136.564 81.8099C136.716 81.1372 136.725 80.4392 136.59 79.7627Z" fill="#351D47"/>
</g>
<g clip-path="url(#clip2_1_268)">
<path d="M131.311 67.2488C131.014 66.9631 130.618 66.8035 130.205 66.8035C129.793 66.8035 129.396 66.9631 129.099 67.2488L121.68 74.6386C121.403 74.9354 121.253 75.3279 121.26 75.7335C121.267 76.1391 121.432 76.5261 121.718 76.813C122.005 77.0998 122.392 77.2641 122.797 77.2713C123.203 77.2784 123.595 77.1279 123.892 76.8513L131.311 69.4616C131.602 69.1667 131.765 68.7692 131.765 68.3552C131.765 67.9411 131.602 67.5437 131.311 67.2488Z" fill="#351D47"/>
<path d="M101.384 76.0372L93.4539 68.2403C93.1605 67.9455 92.7621 67.7794 92.3463 67.7784C91.9304 67.7774 91.5312 67.9417 91.2365 68.2351C90.9418 68.5286 90.7756 68.9271 90.7747 69.343C90.7737 69.759 90.9379 70.1583 91.2313 70.4531L99.1721 78.2499C99.4682 78.5381 99.8651 78.6993 100.278 78.6993C100.691 78.6993 101.088 78.5381 101.384 78.2499C101.668 77.9513 101.826 77.5552 101.826 77.1435C101.826 76.7318 101.668 76.3358 101.384 76.0372Z" fill="#351D47"/>
</g>
<g clip-path="url(#clip3_1_268)">
<path d="M82.5402 79.7627C82.8344 78.6222 83.7066 77.8867 85.4196 78.5156C89.8544 80.1677 97.9568 79.4003 99.8905 84.9109C100.155 85.6987 100.232 86.5391 100.113 87.3627C99.9951 88.1863 99.6858 88.9697 99.2106 89.6483C98.7355 90.3269 98.1082 90.8813 97.3805 91.266C96.6528 91.6506 95.8454 91.8543 95.0248 91.8605H94.72C89.949 91.6047 86.3129 87.0853 83.4229 83.6638C83.0105 83.1147 82.7185 82.4827 82.5662 81.8099C82.414 81.1372 82.4051 80.4392 82.5402 79.7627Z" fill="#351D47"/>
</g>
<g clip-path="url(#clip4_1_268)">
<path d="M127.064 130.25C126.163 127.197 124.553 124.4 122.366 122.087C120.179 119.775 117.477 118.012 114.48 116.942C111.423 115.89 108.151 115.625 104.964 116.173C101.778 116.72 98.7815 118.061 96.2505 120.073C93.3396 122.337 91.1202 125.37 89.8435 128.83C89.1444 130.719 92.16 131.544 92.8592 129.665C94.0518 126.395 96.2557 123.591 99.1507 121.659C102.046 119.727 105.481 118.769 108.958 118.924C112.434 119.079 115.771 120.338 118.483 122.52C121.195 124.701 123.141 127.69 124.038 131.053C124.179 131.414 124.448 131.709 124.793 131.884C125.138 132.059 125.536 132.101 125.91 132.002C126.284 131.903 126.608 131.669 126.821 131.346C127.034 131.023 127.121 130.633 127.064 130.25Z" fill="#351D47"/>
</g>
</g>
<defs>
<clipPath id="clip0_1_268">
<rect width="216" height="167" fill="white"/>
</clipPath>
<clipPath id="clip1_1_268">
<rect width="17.7391" height="13.5687" fill="white" transform="translate(118.957 78.2812)"/>
</clipPath>
<clipPath id="clip2_1_268">
<rect width="40.9774" height="11.8988" fill="white" transform="translate(90.7826 66.8)"/>
</clipPath>
<clipPath id="clip3_1_268">
<rect width="17.7391" height="13.5687" fill="white" transform="matrix(-1 0 0 1 100.174 78.2812)"/>
</clipPath>
<clipPath id="clip4_1_268">
<rect width="37.3878" height="16.3347" fill="white" transform="translate(89.7391 115.856)"/>
</clipPath>
</defs>
</svg>
