<svg width="217" height="168" viewBox="0 0 217 168" fill="none" xmlns="http://www.w3.org/2000/svg">
<g clip-path="url(#clip0_1_304)">
<path d="M174.881 97.2407C173.6 60.8932 137.295 39.1642 104.047 38.4409C77.0358 37.8181 54.7048 58.1365 47.7298 79.0072C33.1258 122.858 86.875 177.507 138.734 156.044C162.81 145.937 175.743 121.09 174.881 97.2407Z" fill="#CCAEF8"/>
<path d="M166.122 77.2007C153.721 45.9232 115.291 38.2365 86.0493 47.9077C62.2817 55.7341 49.0993 80.3592 49.4903 100.708C50.3561 143.445 114.23 174.416 152.828 139.644C170.702 123.376 174.277 97.717 166.122 77.2007Z" fill="#E1CDFF" fill-opacity="0.5"/>
<path d="M113.392 102.301C112.163 103.643 110.599 105.376 108.756 105.376C106.912 105.376 106.605 103.978 106.912 102.581C107.566 100.801 108.389 99.0883 109.37 97.4658C109.926 96.5013 110.219 95.4071 110.219 94.2933C110.219 93.1795 109.926 92.0854 109.37 91.1208C108.365 89.6394 105.935 91.1208 106.968 92.5463C108.001 93.9719 106.549 96.7391 105.6 98.3602C104.29 100.209 103.74 102.49 104.063 104.733C104.348 105.848 105.039 106.815 106 107.446C106.961 108.077 108.123 108.326 109.258 108.143C111.707 107.686 113.893 106.318 115.375 104.314C116.576 102.972 114.593 100.988 113.392 102.301Z" fill="#351D47"/>
<path d="M108.342 136.932C113.153 137.029 117.837 135.387 121.536 132.306C125.235 129.226 127.7 124.914 128.478 120.161C128.55 119.774 128.47 119.374 128.255 119.043C128.233 118.648 128.057 118.277 127.765 118.01C127.472 117.743 127.086 117.603 126.691 117.618C115.073 117.618 103.445 117.32 91.8077 116.723C91.8077 116.723 91.668 116.723 91.5842 116.723C91.3659 116.688 91.1426 116.704 90.9311 116.768C90.7196 116.833 90.5257 116.945 90.364 117.096C90.2024 117.247 90.0774 117.433 89.9985 117.64C89.9195 117.846 89.8888 118.068 89.9086 118.289C90.2467 123.088 92.292 127.608 95.6737 131.028C99.0554 134.449 103.55 136.543 108.342 136.932Z" fill="#351D47"/>
<path d="M97.3922 88.3277C94.0582 85.4298 89.9247 83.6114 85.537 83.1124C81.1492 82.6134 76.7135 83.4572 72.8147 85.5326C71.2507 86.3991 72.6471 88.8029 74.239 87.9644C77.595 86.1818 81.4097 85.4523 85.1859 85.8712C88.9621 86.29 92.5247 87.8376 95.4093 90.3123C96.8616 91.4863 98.7328 89.4737 97.3922 88.3277Z" fill="#351D47"/>
<path d="M147.134 87.4334C143.367 84.0544 138.505 82.1556 133.447 82.0888C128.389 82.022 123.478 83.7916 119.624 87.0701C118.255 88.244 120.238 90.2286 121.579 89.0546C124.905 86.2792 129.116 84.7896 133.446 84.8563C137.777 84.9229 141.939 86.5415 145.179 89.418C146.519 90.6478 148.475 88.6633 147.134 87.4334Z" fill="#351D47"/>
<path d="M132.192 70.9143C130.052 70.6571 128 69.9076 126.198 68.7244C124.395 67.5411 122.891 65.9564 121.803 64.0941C121.617 63.7717 121.312 63.5361 120.953 63.4391C120.594 63.3421 120.212 63.3917 119.889 63.5771C119.567 63.7624 119.332 64.0682 119.235 64.4273C119.138 64.7864 119.188 65.1692 119.373 65.4917C120.72 67.7683 122.581 69.6974 124.807 71.1245C127.033 72.5515 129.563 73.4368 132.192 73.7094C132.563 73.7094 132.918 73.5622 133.18 73.3001C133.442 73.038 133.589 72.6825 133.589 72.3119C133.581 71.9434 133.432 71.5921 133.172 71.3315C132.911 71.071 132.56 70.9214 132.192 70.9143Z" fill="#351D47"/>
<path d="M99.4874 66.3863C99.1684 66.2029 98.79 66.1529 98.4344 66.2471C98.0788 66.3413 97.7748 66.5721 97.5882 66.8894C95.9662 68.9438 93.8794 70.5829 91.5 71.6715C89.1206 72.7601 86.5166 73.267 83.903 73.1505C82.1155 73.1505 82.1155 75.9457 83.903 75.9457C86.9989 76.0357 90.0719 75.3882 92.8688 74.0567C95.6657 72.7251 98.1065 70.7476 99.9901 68.287C100.085 68.1299 100.147 67.9554 100.172 67.7739C100.198 67.5923 100.187 67.4074 100.141 67.2302C100.094 67.0529 100.012 66.8869 99.8995 66.7419C99.7873 66.597 99.6472 66.476 99.4874 66.3863Z" fill="#351D47"/>
</g>
<defs>
<clipPath id="clip0_1_304">
<rect width="216.394" height="167.261" fill="white" transform="translate(0 0.667725)"/>
</clipPath>
</defs>
</svg>
