<svg width="216" height="168" viewBox="0 0 216 168" fill="none" xmlns="http://www.w3.org/2000/svg">
<g clip-path="url(#clip0_8_2)">
<path d="M174.563 96.4223C173.284 60.1315 137.045 38.4365 103.858 37.7143C76.8956 37.0924 54.6052 57.3791 47.6429 78.2173C33.0655 121.999 86.717 176.564 138.482 155.134C162.513 145.043 175.423 120.235 174.563 96.4223Z" fill="#CCAEF8"/>
<path d="M165.819 76.4136C153.441 45.1849 115.081 37.5102 85.8927 47.1663C62.1684 54.9805 49.0099 79.5672 49.4002 99.8841C50.2644 142.555 114.022 173.477 152.549 138.76C170.391 122.517 173.96 96.8979 165.819 76.4136Z" fill="#E1CDFF" fill-opacity="0.5"/>
<path d="M108.39 109.038C103.588 108.941 98.9118 110.581 95.2198 113.657C91.5277 116.733 89.0673 121.038 88.2901 125.783C88.2188 126.17 88.2987 126.569 88.5132 126.899C88.5348 127.294 88.7106 127.665 89.0026 127.931C89.2947 128.197 89.6796 128.338 90.0744 128.323C107.478 110.116 112.174 114.933 124.894 129.216C124.894 129.216 125.034 129.216 125.117 129.216C125.335 129.25 125.558 129.235 125.769 129.171C125.98 129.106 126.174 128.994 126.335 128.843C126.497 128.693 126.621 128.507 126.7 128.301C126.779 128.094 126.81 127.873 126.79 127.653C126.452 122.86 124.411 118.348 121.035 114.933C117.66 111.518 113.174 109.427 108.39 109.038Z" fill="#351D47"/>
<path d="M113.186 96.2562C111.959 97.5958 110.398 99.3261 108.558 99.3261C106.718 99.3261 106.411 97.9307 106.718 96.5353C107.371 94.7583 108.192 93.0481 109.171 91.4282C109.726 90.4651 110.019 89.3726 110.019 88.2606C110.019 87.1486 109.726 86.0561 109.171 85.0931C108.167 83.614 105.742 85.0931 106.773 86.5164C107.805 87.9397 106.355 90.7025 105.407 92.3212C104.1 94.1667 103.551 96.4448 103.874 98.6841C104.159 99.7968 104.848 100.763 105.808 101.393C106.767 102.023 107.927 102.271 109.06 102.089C111.504 101.632 113.685 100.266 115.165 98.2656C116.364 96.926 114.384 94.9445 113.186 96.2562Z" fill="#351D47"/>
<path d="M133.425 68.5714C131.289 68.3146 129.241 67.5662 127.441 66.3849C125.642 65.2035 124.141 63.6212 123.054 61.7619C122.87 61.4399 122.565 61.2046 122.206 61.1078C121.848 61.011 121.466 61.0605 121.145 61.2456C120.823 61.4306 120.588 61.736 120.491 62.0945C120.395 62.453 120.444 62.8353 120.629 63.1573C121.974 65.4303 123.831 67.3564 126.054 68.7812C128.276 70.2061 130.8 71.09 133.425 71.3621C133.795 71.3621 134.149 71.2151 134.411 70.9534C134.672 70.6917 134.819 70.3368 134.819 69.9668C134.812 69.5989 134.663 69.2481 134.403 68.988C134.143 68.7278 133.793 68.5785 133.425 68.5714Z" fill="#351D47"/>
<path d="M100.78 64.0504C100.461 63.8674 100.084 63.8174 99.7288 63.9114C99.3738 64.0055 99.0703 64.236 98.8841 64.5528C97.265 66.6039 95.1821 68.2404 92.807 69.3274C90.4319 70.4143 87.8327 70.9204 85.2238 70.8041C83.4396 70.8041 83.4396 73.5949 85.2238 73.5949C88.3141 73.6848 91.3815 73.0383 94.1733 71.7089C96.9651 70.3794 99.4015 68.4049 101.282 65.9481C101.376 65.7913 101.438 65.6171 101.464 65.4358C101.489 65.2546 101.479 65.07 101.432 64.893C101.385 64.716 101.303 64.5502 101.191 64.4055C101.079 64.2608 100.939 64.14 100.78 64.0504Z" fill="#351D47"/>
<path d="M99.1251 83.7415C99.0176 82.4496 98.6131 81.1992 97.9425 80.0861C97.2718 78.9731 96.353 78.027 95.2562 77.3203C94.076 76.6171 92.7317 76.2297 91.3549 76.1961C89.9781 76.1625 88.6162 76.4838 87.4025 77.1286C86.216 77.7584 85.2273 78.6996 84.5449 79.8491C83.8625 80.9986 83.5126 82.3122 83.5336 83.6457C83.3701 84.9446 83.5706 86.263 84.1131 87.4565C84.6557 88.65 85.5193 89.6724 86.6093 90.4119C87.1879 90.8399 87.8449 91.1523 88.5438 91.3319L89.2595 91.6003C90.4498 91.9057 91.6956 91.9313 92.8977 91.6751C94.0998 91.4189 95.2248 90.888 96.1831 90.1246C97.1414 89.3613 97.9064 88.3866 98.4172 87.2784C98.9279 86.1701 99.1704 84.959 99.1251 83.7415Z" fill="#351D47"/>
<path d="M135.647 83.7415C135.539 82.4496 135.135 81.1992 134.464 80.0861C133.794 78.9731 132.875 78.027 131.778 77.3203C130.598 76.6171 129.253 76.2297 127.877 76.1961C126.5 76.1625 125.138 76.4838 123.924 77.1286C122.738 77.7584 121.749 78.6996 121.067 79.8491C120.384 80.9986 120.034 82.3122 120.055 83.6457C119.892 84.9446 120.092 86.263 120.635 87.4565C121.177 88.65 122.041 89.6724 123.131 90.4119C123.71 90.8399 124.367 91.1523 125.065 91.3319L125.781 91.6003C126.972 91.9057 128.217 91.9313 129.419 91.6751C130.621 91.4189 131.747 90.888 132.705 90.1246C133.663 89.3613 134.428 88.3866 134.939 87.2784C135.45 86.1701 135.692 84.959 135.647 83.7415Z" fill="#351D47"/>
<path d="M95.6578 83.9759C95.5933 83.1981 95.3503 82.4454 94.9476 81.7753C94.5449 81.1052 93.9931 80.5357 93.3346 80.1102C92.6258 79.6869 91.8186 79.4537 90.9918 79.4334C90.1651 79.4132 89.3473 79.6067 88.6184 79.9948C87.9059 80.3739 87.3123 80.9406 86.9025 81.6326C86.4927 82.3247 86.2826 83.1154 86.2952 83.9182C86.197 84.7002 86.3174 85.4939 86.6432 86.2124C86.969 86.9309 87.4876 87.5464 88.1421 87.9916C88.4896 88.2492 88.8841 88.4374 89.3038 88.5455L89.7335 88.707C90.4483 88.8909 91.1964 88.9063 91.9183 88.7521C92.6401 88.5978 93.3157 88.2782 93.8911 87.8186C94.4666 87.3591 94.9259 86.7723 95.2327 86.1052C95.5394 85.438 95.685 84.7089 95.6578 83.9759Z" fill="#D7BDFC"/>
<path d="M131.483 83.9759C131.418 83.1981 131.175 82.4454 130.773 81.7753C130.37 81.1052 129.818 80.5357 129.16 80.1102C128.451 79.6869 127.644 79.4537 126.817 79.4334C125.99 79.4132 125.172 79.6067 124.443 79.9948C123.731 80.3739 123.137 80.9406 122.727 81.6326C122.318 82.3247 122.108 83.1154 122.12 83.9182C122.022 84.7002 122.142 85.4939 122.468 86.2124C122.794 86.9309 123.313 87.5464 123.967 87.9916C124.315 88.2492 124.709 88.4374 125.129 88.5455L125.558 88.707C126.273 88.8909 127.021 88.9063 127.743 88.7521C128.465 88.5978 129.141 88.2782 129.716 87.8186C130.292 87.3591 130.751 86.7723 131.058 86.1052C131.364 85.438 131.51 84.7089 131.483 83.9759Z" fill="#D7BDFC"/>
<path d="M129.39 83.9284C129.354 83.4978 129.219 83.081 128.995 82.7099C128.772 82.3389 128.466 82.0236 128.1 81.788C127.707 81.5536 127.258 81.4245 126.799 81.4133C126.341 81.4021 125.887 81.5092 125.482 81.7241C125.087 81.934 124.757 82.2478 124.529 82.6309C124.302 83.0141 124.185 83.452 124.192 83.8965C124.138 84.3294 124.205 84.7689 124.386 85.1667C124.566 85.5646 124.854 85.9054 125.218 86.1519C125.41 86.2945 125.629 86.3987 125.862 86.4585L126.101 86.548C126.498 86.6498 126.913 86.6583 127.314 86.5729C127.714 86.4875 128.089 86.3106 128.409 86.0561C128.728 85.8017 128.983 85.4768 129.154 85.1074C129.324 84.7379 129.405 84.3342 129.39 83.9284Z" fill="#351D47"/>
<path d="M93.9113 83.9284C93.8755 83.4978 93.7406 83.081 93.5171 82.7099C93.2935 82.3389 92.9872 82.0236 92.6217 81.788C92.2283 81.5536 91.7801 81.4245 91.3212 81.4133C90.8623 81.4021 90.4083 81.5092 90.0037 81.7241C89.6082 81.934 89.2787 82.2478 89.0512 82.6309C88.8237 83.0141 88.7071 83.452 88.7141 83.8965C88.6596 84.3294 88.7265 84.7689 88.9073 85.1667C89.0881 85.5646 89.376 85.9054 89.7394 86.1519C89.9322 86.2945 90.1512 86.3987 90.3842 86.4585L90.6227 86.548C91.0195 86.6498 91.4348 86.6583 91.8355 86.5729C92.2362 86.4875 92.6112 86.3106 92.9306 86.0561C93.25 85.8017 93.505 85.4768 93.6753 85.1074C93.8456 84.7379 93.9264 84.3342 93.9113 83.9284Z" fill="#351D47"/>
<path d="M189.458 54.9479L171.366 73.2065C170.894 73.686 171.72 74.3238 172.192 73.8443L190.274 55.5896C190.75 55.1198 189.924 54.482 189.458 54.9479Z" fill="#351D47"/>
<path d="M183.824 74.4126L175.371 80.7233C175.257 80.8091 175.181 80.937 175.16 81.0789C175.139 81.2208 175.176 81.3651 175.262 81.4799C175.348 81.5948 175.476 81.6708 175.617 81.6913C175.759 81.7119 175.903 81.6752 176.018 81.5894L184.471 75.2786C184.586 75.1928 184.662 75.0649 184.682 74.923C184.703 74.7811 184.666 74.6369 184.58 74.522C184.495 74.4072 184.367 74.3311 184.225 74.3106C184.083 74.2901 183.939 74.3267 183.824 74.4126Z" fill="#351D47"/>
<path d="M175.263 42.6371C174.634 41.5867 173.78 40.6888 172.762 40.0084C171.744 39.328 170.588 38.8818 169.377 38.7022C168.159 38.5176 166.916 38.5993 165.732 38.9417C164.549 39.284 163.453 39.8789 162.522 40.6853C159.036 43.8166 159.516 50.34 163.774 52.5841C166.017 53.7635 169.617 53.5548 170.723 50.9036C171.6 48.8161 170.4 45.9354 167.979 45.7997C167.301 45.7997 167.311 46.8435 167.979 46.8435C169.753 46.9478 170.431 49.4006 169.649 50.7575C168.532 52.678 165.652 52.5215 163.993 51.509C160.518 49.4215 160.362 43.8688 163.388 41.3011C164.205 40.6437 165.151 40.1648 166.165 39.8951C167.178 39.6255 168.237 39.5711 169.273 39.7355C170.322 39.8983 171.322 40.2905 172.202 40.884C173.082 41.4775 173.821 42.2579 174.365 43.1695C175.494 45.0671 175.865 47.3207 175.404 49.4801C174.944 51.6395 173.686 53.5457 171.882 54.8177C167.332 58.1473 161.144 56.9052 157.377 53.0016C156.908 52.5215 156.177 53.2625 156.637 53.7426C160.55 57.8133 166.967 59.2328 171.871 56.0911C174.094 54.7142 175.716 52.5483 176.41 50.0269C176.714 48.7802 176.769 47.4857 176.572 46.2177C176.375 44.9497 175.93 43.7329 175.263 42.6371Z" fill="#351D47"/>
</g>
<g clip-path="url(#clip1_8_2)">
<path d="M107.502 140.656V140.662V140.656L107.495 140.662H107.502V140.656Z" fill="#351D47"/>
<path d="M142.334 147.39C139.968 145.556 137.189 144.309 134.231 143.752C134.364 143.383 134.422 142.992 134.401 142.602C134.379 142.211 134.28 141.828 134.107 141.476C134.003 141.27 133.869 141.08 133.708 140.913C133.511 140.678 133.279 140.472 133.021 140.304C132.58 140.027 132.075 139.867 131.554 139.837C131.033 139.808 130.512 139.91 130.042 140.134C129.572 140.378 129.182 140.748 128.915 141.201C128.649 141.654 128.517 142.172 128.536 142.695C128.536 142.736 128.536 142.783 128.536 142.824L127.566 142.709C121.668 142.076 115.739 141.769 109.806 141.787C109.881 141.532 109.918 141.267 109.916 141.001C109.907 140.839 109.884 140.679 109.848 140.52C109.807 140.107 109.665 139.71 109.435 139.362C109.216 139.027 108.932 138.739 108.599 138.515C108.266 138.29 107.891 138.134 107.495 138.054C107.098 137.975 106.688 137.977 106.291 138.061C105.895 138.145 105.52 138.309 105.191 138.542C104.83 138.796 104.529 139.122 104.306 139.499C104.083 139.877 103.944 140.296 103.898 140.73C103.869 141.09 103.914 141.452 104.029 141.794C99.1463 141.842 94.2707 142.166 89.4259 142.763C88.2154 142.919 87.0116 143.108 85.8079 143.305C85.8368 142.999 85.7921 142.69 85.6772 142.404C85.6045 142.226 85.5147 142.056 85.409 141.896C85.2894 141.455 85.0745 141.045 84.7788 140.694C84.4832 140.344 84.1138 140.06 83.6963 139.863C83.168 139.599 82.5778 139.479 81.9865 139.515C81.3953 139.55 80.8244 139.741 80.3328 140.066C79.7907 140.434 79.3907 140.971 79.1979 141.591C79.0327 142.139 79.0327 142.723 79.1979 143.271C79.3396 143.718 79.5738 144.131 79.8857 144.484C77.3132 145.1 74.555 145.751 72.3196 147.16C70.6007 148.218 69.3094 149.833 68.6672 151.726C67.5667 153.393 67.8899 155.683 68.3439 157.627C68.6275 158.728 68.9672 159.813 69.3619 160.879C69.3671 161.059 69.4068 161.236 69.4788 161.401L69.9259 162.438C70.3249 163.461 70.7513 164.47 71.2328 165.459C71.2736 165.537 71.327 165.608 71.391 165.669C71.4634 165.847 71.5848 166.002 71.7416 166.116C71.8983 166.229 72.0842 166.298 72.2783 166.313C85.4846 167.519 98.7529 167.919 112.014 167.973C118.679 167.973 125.338 167.973 132.003 167.864L136.955 167.804C138.274 167.841 139.592 167.706 140.876 167.404C143.489 166.659 144.824 164.545 145.34 162.038C146.378 157.024 146.702 151.015 142.334 147.39ZM143.675 159.416C143.407 161.543 143.146 164.362 140.828 165.297C139.637 165.689 138.381 165.855 137.127 165.785L132.512 165.846C126.321 165.92 120.131 165.981 113.892 165.967C101.511 165.967 89.1852 165.649 76.873 164.687C75.7381 164.599 74.6101 164.497 73.4751 164.402C73.4544 164.323 73.4244 164.245 73.3857 164.172C71.7762 161.15 69.6714 156.977 70.3455 153.379C71.2466 152.77 72.5603 153.285 73.3719 153.793C74.3737 154.563 75.3184 155.403 76.1989 156.306C77.216 157.188 78.4481 157.793 79.7746 158.064C81.101 158.335 82.4762 158.262 83.7651 157.851C86.6402 157.079 89.027 155.283 91.7714 154.233C93.1441 153.618 94.6707 153.415 96.1598 153.65C97.2603 153.943 98.2911 154.448 99.1931 155.134C101.119 156.435 103.059 157.966 105.528 157.898C107.764 157.844 109.655 156.591 111.395 155.351C113.259 154.037 115.213 152.573 117.641 152.797C120.626 153.081 123.075 155.195 125.606 156.57C126.947 157.349 128.423 157.875 129.96 158.122C131.638 158.289 133.333 158.083 134.919 157.519C137.719 156.645 141.11 154.883 143.964 156.55C143.902 157.492 143.792 158.488 143.675 159.416Z" fill="#351D47"/>
<path d="M143.675 159.416C143.407 161.543 143.146 164.362 140.828 165.297C139.637 165.689 138.381 165.855 137.127 165.785L132.512 165.846C126.321 165.92 120.131 165.981 113.892 165.968C101.511 165.968 89.1852 165.649 76.873 164.687C75.7381 164.599 74.6101 164.497 73.4752 164.403C73.4545 164.323 73.4245 164.245 73.3857 164.172C71.7762 161.15 69.6714 156.977 70.3455 153.379C71.2466 152.77 72.5603 153.285 73.372 153.793C74.3737 154.563 75.3185 155.403 76.199 156.306C77.216 157.188 78.4482 157.794 79.7746 158.064C81.1011 158.335 82.4762 158.262 83.7651 157.851C86.6402 157.079 89.027 155.283 91.7715 154.233C93.1442 153.618 94.6707 153.415 96.1598 153.65C97.2603 153.943 98.2911 154.448 99.1931 155.134C101.119 156.435 103.059 157.966 105.528 157.898C107.764 157.844 109.655 156.591 111.395 155.351C113.259 154.037 115.213 152.573 117.641 152.797C120.626 153.081 123.075 155.195 125.606 156.571C126.947 157.349 128.423 157.875 129.96 158.122C131.638 158.289 133.333 158.083 134.919 157.519C137.719 156.645 141.11 154.884 143.964 156.55C143.902 157.492 143.792 158.488 143.675 159.416Z" fill="white"/>
</g>
<defs>
<clipPath id="clip0_8_2">
<rect width="216" height="167" fill="white"/>
</clipPath>
<clipPath id="clip1_8_2">
<rect width="78" height="30" fill="white" transform="translate(68 138)"/>
</clipPath>
</defs>
</svg>
