<svg width="216" height="167" viewBox="0 0 216 167" fill="none" xmlns="http://www.w3.org/2000/svg">
<g clip-path="url(#clip0_1_257)">
<path d="M174.563 96.4223C173.284 60.1315 137.045 38.4365 103.858 37.7143C76.8956 37.0924 54.6052 57.3791 47.6429 78.2173C33.0655 121.999 86.717 176.564 138.482 155.134C162.513 145.043 175.423 120.235 174.563 96.4223Z" fill="#CCAEF8"/>
<path d="M165.819 76.4136C153.441 45.1849 115.081 37.5102 85.8927 47.1663C62.1684 54.9805 49.0099 79.5672 49.4002 99.8841C50.2644 142.555 114.022 173.477 152.549 138.76C170.391 122.517 173.96 96.8979 165.819 76.4136Z" fill="#E1CDFF" fill-opacity="0.5"/>
<path d="M108.391 111.871C103.588 111.774 98.9121 113.414 95.22 116.49C91.5279 119.566 89.0676 123.871 88.2904 128.616C88.219 129.003 88.2989 129.403 88.5134 129.732C88.5351 130.127 88.7108 130.498 89.0029 130.764C89.2949 131.03 89.6799 131.171 90.0746 131.156C101.672 131.156 113.278 131.453 124.894 132.049C124.894 132.049 125.034 132.049 125.117 132.049C125.335 132.083 125.558 132.068 125.769 132.004C125.98 131.939 126.174 131.827 126.335 131.677C126.497 131.526 126.622 131.34 126.7 131.134C126.779 130.927 126.81 130.706 126.79 130.486C126.453 125.694 124.411 121.181 121.035 117.766C117.66 114.351 113.174 112.26 108.391 111.871ZM107.889 115.164C111.555 115.404 115.041 116.846 117.808 119.268C120.574 121.689 122.467 124.954 123.194 128.56C112.767 127.974 102.313 127.723 91.8588 127.751C92.7523 124.158 94.8102 120.963 97.7106 118.665C100.611 116.368 104.19 115.097 107.889 115.053V115.164Z" fill="#351D47"/>
<path d="M113.185 99.0893C111.959 100.429 110.398 102.159 108.558 102.159C106.718 102.159 106.411 100.764 106.718 99.3684C107.371 97.5914 108.192 95.8812 109.171 94.2613C109.726 93.2982 110.019 92.2058 110.019 91.0937C110.019 89.9817 109.726 88.8893 109.171 87.9262C108.167 86.4471 105.742 87.9262 106.773 89.3495C107.805 90.7728 106.355 93.5357 105.407 95.1543C104.1 96.9999 103.551 99.2779 103.874 101.517C104.159 102.63 104.848 103.596 105.808 104.226C106.767 104.856 107.927 105.104 109.06 104.922C111.504 104.466 113.685 103.1 115.165 101.099C116.364 99.7591 114.384 97.7777 113.185 99.0893Z" fill="#351D47"/>
<path d="M93.3674 85.923C92.7271 84.2014 91.4359 82.8022 89.7735 82.0284C88.1016 81.3096 86.2277 81.2167 84.4932 81.7668C83.9613 81.9387 83.4497 82.1681 82.9673 82.4511C82.7368 82.455 82.5129 82.5287 82.3248 82.6624C80.8313 83.7716 79.8069 85.4018 79.4538 87.2312C79.091 89.0705 79.3935 90.9792 80.3071 92.6152C82.3148 95.9965 86.772 96.872 90.145 95.2015C93.518 93.531 94.7226 89.2942 93.3674 85.923Z" fill="#351D47"/>
<path d="M133.61 81.121C132.793 80.6467 131.863 80.4156 130.924 80.4539C129.798 80.2545 128.639 80.4072 127.6 80.892C126.56 81.3768 125.688 82.171 125.097 83.1708C124.476 84.2443 124.156 85.4725 124.175 86.7198C124.193 87.967 124.548 89.1848 125.201 90.2387C125.969 91.3034 127.034 92.1047 128.257 92.5363C129.48 92.968 130.803 93.0097 132.049 92.6559C133.289 92.3652 134.406 91.6794 135.239 90.6974C136.072 89.7155 136.578 88.4883 136.684 87.193C136.753 85.9919 136.504 84.794 135.963 83.7254C135.422 82.6568 134.609 81.7571 133.61 81.121Z" fill="#351D47"/>
<path d="M136.38 102.652C134.53 98.561 131.248 95.0182 129.828 97.38C127.442 101.4 125.998 109.416 131.38 111.587C132.43 112.083 133.629 112.164 134.736 111.812C135.843 111.46 136.776 110.702 137.347 109.69C138.134 108.044 137.549 105.241 136.38 102.652Z" fill="#351D47"/>
<path d="M82.4762 106.231C84.3259 102.14 87.6076 98.5967 89.0278 100.959C91.4145 104.979 92.8585 112.995 87.4764 115.166C86.4262 115.662 85.2269 115.742 84.1197 115.39C83.0126 115.039 82.08 114.281 81.5095 113.269C80.7219 111.623 81.3067 108.82 82.4762 106.231Z" fill="#351D47"/>
<path d="M136.656 70.7334C134.519 70.4767 132.471 69.7283 130.672 68.5469C128.873 67.3655 127.371 65.7832 126.285 63.9239C126.1 63.602 125.795 63.3667 125.437 63.2699C125.079 63.1731 124.697 63.2226 124.375 63.4076C124.054 63.5927 123.819 63.898 123.722 64.2565C123.625 64.6151 123.675 64.9973 123.859 65.3193C125.204 67.5923 127.062 69.5184 129.284 70.9433C131.506 72.3681 134.031 73.252 136.656 73.5242C137.025 73.5242 137.38 73.3772 137.641 73.1155C137.903 72.8538 138.049 72.4989 138.049 72.1288C138.042 71.761 137.893 71.4102 137.633 71.15C137.373 70.8899 137.023 70.7406 136.656 70.7334Z" fill="#351D47"/>
<path d="M96.85 65.0197C96.5316 64.8366 96.1539 64.7866 95.799 64.8807C95.444 64.9747 95.1405 65.2052 94.9543 65.522C93.3352 67.5732 91.2523 69.2097 88.8772 70.2966C86.5021 71.3835 83.9029 71.8897 81.294 71.7734C79.5098 71.7734 79.5098 74.5641 81.294 74.5641C84.3843 74.654 87.4517 74.0076 90.2435 72.6781C93.0353 71.3486 95.4717 69.3742 97.3518 66.9174C97.4461 66.7605 97.508 66.5863 97.5338 66.4051C97.5596 66.2238 97.5488 66.0392 97.502 65.8622C97.4552 65.6853 97.3734 65.5195 97.2614 65.3747C97.1494 65.23 97.0095 65.1093 96.85 65.0197Z" fill="#351D47"/>
</g>
<defs>
<clipPath id="clip0_1_257">
<rect width="216" height="167" fill="white"/>
</clipPath>
</defs>
</svg>
