<svg width="216" height="168" viewBox="0 0 216 168" fill="none" xmlns="http://www.w3.org/2000/svg">
<g clip-path="url(#clip0_1_152)">
<path d="M174.563 96.9997C173.284 60.4916 137.045 38.6666 103.858 37.9402C76.8956 37.3145 54.6052 57.7227 47.6429 78.6857C33.0655 122.73 86.717 177.621 138.482 156.063C162.513 145.911 175.423 120.955 174.563 96.9997Z" fill="#5F5EAA"/>
<path d="M165.819 76.8712C153.441 45.4554 115.081 37.7348 85.8927 47.4487C62.1684 55.3097 49.0099 80.0437 49.4002 100.482C50.2644 143.409 114.022 174.516 152.549 139.59C170.391 123.251 173.96 97.4781 165.819 76.8712Z" fill="#7777BD"/>
<path d="M113.186 98.9326C111.959 100.28 110.398 102.021 108.558 102.021C106.718 102.021 106.411 100.617 106.718 99.2134C107.371 97.4258 108.192 95.7053 109.171 94.0757C109.726 93.1069 110.019 92.0078 110.019 90.8891C110.019 89.7704 109.726 88.6715 109.171 87.7027C108.167 86.2147 105.742 87.7026 106.773 89.1345C107.805 90.5663 106.355 93.3457 105.407 94.974C104.1 96.8306 103.551 99.1223 103.874 101.375C104.159 102.494 104.848 103.466 105.808 104.1C106.767 104.734 107.927 104.983 109.06 104.8C111.504 104.341 113.685 102.967 115.165 100.954C116.364 99.6064 114.384 97.6131 113.186 98.9326Z" fill="#351D47"/>
<path d="M133.425 71.082C131.289 70.8237 129.241 70.0708 127.441 68.8824C125.642 67.6939 124.141 66.1021 123.054 64.2317C122.87 63.9078 122.565 63.6711 122.206 63.5737C121.848 63.4763 121.466 63.5262 121.145 63.7123C120.823 63.8985 120.588 64.2056 120.491 64.5663C120.395 64.927 120.444 65.3115 120.629 65.6354C121.974 67.9221 123.831 69.8597 126.054 71.2931C128.276 72.7264 130.8 73.6157 133.425 73.8895C133.795 73.8895 134.149 73.7415 134.411 73.4783C134.672 73.215 134.819 72.858 134.819 72.4857C134.812 72.1157 134.663 71.7628 134.403 71.5011C134.143 71.2393 133.793 71.0891 133.425 71.082Z" fill="#351D47"/>
<path d="M100.78 66.5339C100.461 66.3498 100.084 66.2995 99.7288 66.3941C99.3738 66.4887 99.0703 66.7206 98.8841 67.0393C97.265 69.1027 95.1821 70.749 92.807 71.8424C90.4319 72.9359 87.8327 73.4451 85.2238 73.3281C83.4396 73.3281 83.4396 76.1355 85.2238 76.1355C88.3141 76.2259 91.3815 75.5756 94.1733 74.2382C96.9651 72.9008 99.4015 70.9145 101.282 68.443C101.376 68.2852 101.438 68.11 101.464 67.9276C101.489 67.7453 101.479 67.5596 101.432 67.3816C101.385 67.2035 101.303 67.0367 101.191 66.8911C101.079 66.7455 100.939 66.6241 100.78 66.5339Z" fill="#351D47"/>
<path d="M109.188 133.717C113.99 133.814 118.666 132.164 122.358 129.07C126.051 125.976 128.511 121.645 129.288 116.872C129.359 116.482 129.28 116.08 129.065 115.749C129.043 115.351 128.868 114.979 128.576 114.711C128.284 114.443 127.899 114.302 127.504 114.317C115.907 114.317 104.3 114.017 92.6841 113.418C92.6841 113.418 92.5447 113.418 92.461 113.418C92.2431 113.383 92.0201 113.399 91.8091 113.464C91.598 113.529 91.4044 113.641 91.243 113.793C91.0817 113.944 90.957 114.131 90.8781 114.339C90.7993 114.546 90.7686 114.769 90.7884 114.991C91.1259 119.812 93.1675 124.351 96.543 127.787C99.9185 131.222 104.405 133.326 109.188 133.717Z" fill="#351D47"/>
<path d="M131.099 90.2727C129.808 89.5894 128.381 89.2038 126.923 89.1438C125.464 89.0839 124.011 89.3512 122.668 89.9262C123.31 88.0124 124.344 86.2558 125.705 84.7707C126.612 83.7732 125.141 82.2822 124.223 83.2797C122.037 85.6445 120.586 88.6008 120.049 91.7847C119.978 92.0101 119.984 92.2531 120.068 92.4744C120.151 92.6956 120.306 92.8821 120.507 93.0036C120.709 93.1251 120.946 93.1745 121.179 93.1439C121.412 93.1132 121.628 93.0043 121.792 92.8347C122.955 91.9337 124.351 91.3867 125.813 91.2583C127.276 91.13 128.745 91.4255 130.046 92.1102C131.225 92.7192 132.289 90.9132 131.099 90.2727Z" fill="#351D47"/>
<path d="M95.7124 92.3535C94.2994 89.4808 91.8516 87.258 88.8672 86.1375C88.6001 86.0637 88.3149 86.0997 88.0742 86.2375C87.8335 86.3754 87.657 86.6038 87.5837 86.8725C87.5104 87.1413 87.5461 87.4283 87.6831 87.6705C87.8201 87.9127 88.0471 88.0902 88.3141 88.164C89.8407 88.759 91.2013 89.7174 92.2794 90.957C88.8359 89.907 85.215 89.4765 81.9072 91.293C80.7281 91.9335 81.782 93.75 82.9507 93.099C86.6133 91.0935 90.8916 92.616 94.5229 93.897C95.462 94.2225 96.0776 93.1095 95.7124 92.3535Z" fill="#351D47"/>
</g>
<defs>
<clipPath id="clip0_1_152">
<rect width="216" height="168" fill="white"/>
</clipPath>
</defs>
</svg>
