<svg width="216" height="168" viewBox="0 0 216 168" fill="none" xmlns="http://www.w3.org/2000/svg">
<g clip-path="url(#clip0_1_281)">
<path d="M174.563 96.9997C173.284 60.4916 137.045 38.6666 103.858 37.9402C76.8956 37.3145 54.6052 57.7227 47.6429 78.6857C33.0655 122.73 86.717 177.621 138.482 156.063C162.513 145.911 175.423 120.955 174.563 96.9997Z" fill="#CCAEF8"/>
<path d="M165.819 76.8711C153.441 45.4553 115.081 37.7347 85.8927 47.4486C62.1684 55.3096 49.0099 80.0435 49.4002 100.482C50.2644 143.409 114.022 174.515 152.549 139.59C170.391 123.251 173.96 97.478 165.819 76.8711Z" fill="#E1CDFF" fill-opacity="0.5"/>
<path d="M127.064 131.029C126.163 127.958 124.553 125.145 122.366 122.818C120.179 120.492 117.477 118.718 114.48 117.642C111.423 116.584 108.151 116.318 104.964 116.868C101.778 117.419 98.7815 118.768 96.2505 120.792C93.3396 123.069 91.1202 126.121 89.8435 129.601C89.1444 131.502 92.16 132.331 92.8592 130.441C94.0518 127.152 96.2557 124.33 99.1507 122.387C102.046 120.444 105.481 119.48 108.958 119.636C112.434 119.792 115.771 121.059 118.483 123.253C121.195 125.447 123.141 128.455 124.038 131.838C124.179 132.2 124.448 132.498 124.793 132.674C125.138 132.85 125.536 132.892 125.91 132.792C126.284 132.692 126.608 132.457 126.821 132.132C127.034 131.807 127.121 131.415 127.064 131.029Z" fill="#351D47"/>
<path d="M113.186 104.248C111.959 105.595 110.398 107.336 108.558 107.336C106.718 107.336 106.411 105.932 106.718 104.528C107.371 102.741 108.192 101.02 109.171 99.3908C109.726 98.4219 110.019 97.3229 110.019 96.2042C110.019 95.0855 109.726 93.9866 109.171 93.0178C108.167 91.5298 105.742 93.0177 106.773 94.4496C107.805 95.8814 106.355 98.6608 105.407 100.289C104.1 102.146 103.551 104.437 103.874 106.69C104.159 107.81 104.848 108.781 105.808 109.415C106.767 110.049 107.927 110.298 109.06 110.115C111.504 109.656 113.685 108.282 115.165 106.269C116.364 104.922 114.384 102.928 113.186 104.248Z" fill="#351D47"/>
<path d="M134.061 73.707C131.925 73.4487 129.877 72.6958 128.078 71.5074C126.278 70.3189 124.777 68.7271 123.691 66.8567C123.506 66.5328 123.201 66.2961 122.843 66.1987C122.484 66.1013 122.103 66.1512 121.781 66.3373C121.459 66.5235 121.224 66.8306 121.128 67.1913C121.031 67.552 121.08 67.9365 121.265 68.2604C122.61 70.5471 124.468 72.4847 126.69 73.9181C128.912 75.3514 131.436 76.2407 134.061 76.5145C134.431 76.5145 134.785 76.3665 135.047 76.1033C135.308 75.84 135.455 75.483 135.455 75.1107C135.448 74.7407 135.299 74.3878 135.039 74.1261C134.779 73.8643 134.429 73.7141 134.061 73.707Z" fill="#351D47"/>
<path d="M101.416 69.1589C101.098 68.9748 100.72 68.9245 100.365 69.0191C100.01 69.1137 99.7064 69.3456 99.5203 69.6643C97.9012 71.7277 95.8182 73.374 93.4431 74.4674C91.068 75.5609 88.4688 76.0701 85.8599 75.9531C84.0757 75.9531 84.0757 78.7605 85.8599 78.7605C88.9502 78.8509 92.0176 78.2006 94.8094 76.8632C97.6012 75.5258 100.038 73.5395 101.918 71.068C102.012 70.9102 102.074 70.735 102.1 70.5526C102.126 70.3703 102.115 70.1846 102.068 70.0066C102.021 69.8285 101.939 69.6617 101.827 69.5161C101.715 69.3705 101.575 69.2491 101.416 69.1589Z" fill="#351D47"/>
<path d="M129.75 88.6977C128.458 88.0144 127.032 87.6288 125.573 87.5688C124.115 87.5089 122.662 87.7761 121.319 88.3512C121.96 86.4374 122.995 84.6808 124.355 83.1957C125.263 82.1982 123.792 80.7072 122.874 81.7047C120.688 84.0694 119.237 87.0258 118.7 90.2097C118.629 90.4351 118.635 90.6781 118.718 90.8993C118.802 91.1206 118.957 91.3071 119.158 91.4286C119.36 91.5501 119.596 91.5995 119.83 91.5689C120.063 91.5382 120.279 91.4293 120.442 91.2597C121.606 90.3587 123.002 89.8117 124.464 89.6833C125.927 89.555 127.395 89.8505 128.696 90.5352C129.875 91.1442 130.94 89.3382 129.75 88.6977Z" fill="#351D47"/>
<path d="M99.4789 90.7975C98.066 87.9248 95.6181 85.702 92.6337 84.5815C92.3667 84.5077 92.0814 84.5437 91.8407 84.6815C91.6 84.8194 91.4236 85.0478 91.3502 85.3165C91.2769 85.5852 91.3127 85.8723 91.4497 86.1145C91.5866 86.3567 91.8136 86.5342 92.0807 86.608C93.6073 87.203 94.9678 88.1613 96.0459 89.401C92.6024 88.351 88.9816 87.9205 85.6737 89.737C84.4946 90.3775 85.5485 92.194 86.7172 91.543C90.3798 89.5375 94.6581 91.06 98.2894 92.341C99.2285 92.6665 99.8442 91.5535 99.4789 90.7975Z" fill="#351D47"/>
</g>
<defs>
<clipPath id="clip0_1_281">
<rect width="216" height="168" fill="white"/>
</clipPath>
</defs>
</svg>
