<svg width="216" height="167" viewBox="0 0 216 167" fill="none" xmlns="http://www.w3.org/2000/svg">
<g clip-path="url(#clip0_1_142)">
<path d="M174.563 96.4223C173.284 60.1315 137.045 38.4365 103.858 37.7143C76.8956 37.0924 54.6052 57.3791 47.6429 78.2173C33.0655 121.999 86.717 176.564 138.482 155.134C162.513 145.043 175.423 120.235 174.563 96.4223Z" fill="#CCAEF8"/>
<path d="M165.819 76.4136C153.441 45.1849 115.081 37.5102 85.8927 47.1663C62.1684 54.9805 49.0099 79.5672 49.4002 99.8841C50.2644 142.555 114.022 173.477 152.549 138.76C170.391 122.517 173.96 96.8979 165.819 76.4136Z" fill="#E1CDFF" fill-opacity="0.5"/>
<path d="M113.186 98.3437C111.959 99.6833 110.398 101.414 108.558 101.414C106.718 101.414 106.411 100.018 106.718 98.6228C107.371 96.8458 108.192 95.1356 109.171 93.5157C109.726 92.5526 110.019 91.4602 110.019 90.3481C110.019 89.2361 109.726 88.1437 109.171 87.1806C108.167 85.7015 105.742 87.1806 106.773 88.6039C107.805 90.0272 106.355 92.7901 105.407 94.4087C104.1 96.2543 103.551 98.5323 103.874 100.772C104.159 101.884 104.848 102.85 105.808 103.48C106.767 104.11 107.927 104.358 109.06 104.176C111.504 103.72 113.685 102.354 115.165 100.353C116.364 99.0135 114.384 97.0321 113.186 98.3437Z" fill="#351D47"/>
<path d="M133.425 70.6588C131.289 70.4021 129.241 69.6537 127.441 68.4723C125.642 67.2909 124.141 65.7086 123.054 63.8493C122.87 63.5274 122.565 63.2921 122.206 63.1953C121.848 63.0985 121.466 63.148 121.145 63.333C120.823 63.5181 120.588 63.8234 120.491 64.182C120.395 64.5405 120.444 64.9228 120.629 65.2447C121.974 67.5178 123.831 69.4439 126.054 70.8687C128.276 72.2935 130.8 73.1774 133.425 73.4496C133.795 73.4496 134.149 73.3026 134.411 73.0409C134.672 72.7792 134.819 72.4243 134.819 72.0542C134.812 71.6864 134.663 71.3356 134.403 71.0754C134.143 70.8153 133.793 70.666 133.425 70.6588Z" fill="#351D47"/>
<path d="M100.78 66.1379C100.461 65.9548 100.084 65.9049 99.7288 65.9989C99.3738 66.093 99.0703 66.3234 98.8841 66.6402C97.265 68.6914 95.1821 70.3279 92.807 71.4148C90.4319 72.5017 87.8327 73.0079 85.2238 72.8916C83.4396 72.8916 83.4396 75.6824 85.2238 75.6824C88.3141 75.7722 91.3815 75.1258 94.1733 73.7963C96.9651 72.4669 99.4015 70.4924 101.282 68.0356C101.376 67.8788 101.438 67.7045 101.464 67.5233C101.489 67.342 101.479 67.1575 101.432 66.9805C101.385 66.8035 101.303 66.6377 101.191 66.493C101.079 66.3482 100.939 66.2275 100.78 66.1379Z" fill="#351D47"/>
<path d="M96.0045 84.9127C95.94 84.1349 95.6971 83.3821 95.2944 82.7121C94.8917 82.042 94.3399 81.4724 93.6813 81.047C92.9726 80.6236 92.1653 80.3904 91.3386 80.3702C90.5118 80.35 89.694 80.5434 88.9652 80.9316C88.2527 81.3107 87.659 81.8773 87.2492 82.5694C86.8394 83.2614 86.6293 84.0522 86.6419 84.855C86.5438 85.6369 86.6642 86.4307 86.9899 87.1492C87.3157 87.8677 87.8343 88.4832 88.4889 88.9284C88.8363 89.186 89.2308 89.3741 89.6505 89.4822L90.0803 89.6438C90.7951 89.8277 91.5432 89.8431 92.265 89.6888C92.9868 89.5346 93.6624 89.215 94.2379 88.7554C94.8133 88.2959 95.2727 87.7091 95.5794 87.0419C95.8861 86.3748 96.0317 85.6456 96.0045 84.9127Z" fill="#351D47"/>
<path d="M131.829 84.9127C131.765 84.1349 131.522 83.3821 131.119 82.7121C130.717 82.042 130.165 81.4724 129.506 81.047C128.798 80.6236 127.99 80.3904 127.164 80.3702C126.337 80.35 125.519 80.5434 124.79 80.9316C124.078 81.3107 123.484 81.8773 123.074 82.5694C122.664 83.2614 122.454 84.0522 122.467 84.855C122.369 85.6369 122.489 86.4307 122.815 87.1492C123.141 87.8677 123.659 88.4832 124.314 88.9284C124.661 89.186 125.056 89.3741 125.475 89.4822L125.905 89.6438C126.62 89.8277 127.368 89.8431 128.09 89.6888C128.812 89.5346 129.487 89.215 130.063 88.7554C130.638 88.2959 131.098 87.7091 131.404 87.0419C131.711 86.3748 131.857 85.6456 131.829 84.9127Z" fill="#351D47"/>
<g clip-path="url(#clip1_1_142)">
<path d="M127.228 128.868C124.843 121.948 120.935 115.038 114.11 112.037C111.066 110.525 107.602 110.179 104.334 111.06C101.066 111.941 98.2066 113.992 96.2634 116.848C94.06 119.957 92.2654 123.355 90.9264 126.952C90.7721 127.256 90.7334 127.609 90.8179 127.941C90.9024 128.272 91.1041 128.56 91.3831 128.745C91.6697 128.907 92.0054 128.948 92.3204 128.86C92.6354 128.772 92.9056 128.562 93.0747 128.273C95.2315 123.024 97.7943 116.901 103.064 114.277C108.942 111.355 115.691 114.793 119.548 119.525C121.838 122.514 123.596 125.9 124.742 129.524C125.325 131.151 127.778 130.469 127.228 128.868Z" fill="#351D47"/>
</g>
</g>
<defs>
<clipPath id="clip0_1_142">
<rect width="216" height="167" fill="white"/>
</clipPath>
<clipPath id="clip1_1_142">
<rect width="36.5217" height="19.8312" fill="white" transform="translate(90.7826 110.638)"/>
</clipPath>
</defs>
</svg>
