<svg width="216" height="167" viewBox="0 0 216 167" fill="none" xmlns="http://www.w3.org/2000/svg">
<g clip-path="url(#clip0_1_95)">
<path d="M174.563 96.4223C173.284 60.1315 137.045 38.4365 103.858 37.7143C76.8956 37.0924 54.6052 57.3791 47.6429 78.2173C33.0655 121.999 86.717 176.564 138.482 155.134C162.513 145.043 175.423 120.235 174.563 96.4223Z" fill="#5F5EAA"/>
<path d="M165.819 76.4136C153.441 45.1849 115.081 37.5102 85.8927 47.1663C62.1684 54.9805 49.0099 79.5672 49.4002 99.8841C50.2644 142.555 114.022 173.477 152.549 138.76C170.391 122.517 173.96 96.8979 165.819 76.4136Z" fill="#7777BD"/>
<path d="M108.39 114.257C103.588 114.16 98.9119 115.8 95.2199 118.875C91.5278 121.951 89.0674 126.256 88.2902 131.001C88.2189 131.388 88.2988 131.788 88.5133 132.118C88.535 132.513 88.7107 132.883 89.0028 133.149C89.2948 133.416 89.6798 133.556 90.0745 133.541C101.672 133.541 113.278 133.839 124.894 134.434C124.894 134.434 125.034 134.434 125.117 134.434C125.335 134.469 125.558 134.453 125.769 134.389C125.98 134.325 126.174 134.213 126.335 134.062C126.497 133.911 126.621 133.726 126.7 133.519C126.779 133.313 126.81 133.091 126.79 132.871C126.452 128.079 124.411 123.566 121.035 120.151C117.66 116.736 113.174 114.645 108.39 114.257ZM107.889 117.55C111.555 117.79 115.041 119.232 117.807 121.653C120.574 124.074 122.467 127.34 123.194 130.946C112.767 130.359 102.313 130.108 91.8586 130.136C92.7522 126.543 94.8101 123.348 97.7105 121.051C100.611 118.753 104.19 117.483 107.889 117.438V117.55Z" fill="#351D47"/>
<path d="M98.6885 91.1764C95.3605 88.2829 91.2345 86.4674 86.8548 85.9692C82.4751 85.4709 78.0474 86.3134 74.1557 88.3856C72.5945 89.2507 73.9884 91.6508 75.5774 90.8136C78.9273 89.0338 82.735 88.3055 86.5043 88.7236C90.2737 89.1418 93.8298 90.687 96.7091 93.1579C98.1588 94.33 100.027 92.3206 98.6885 91.1764Z" fill="#351D47"/>
<path d="M148.34 90.2835C144.58 86.9097 139.726 85.0139 134.678 84.9472C129.629 84.8805 124.727 86.6474 120.88 89.9207C119.514 91.0928 121.493 93.0743 122.831 91.9022C126.152 89.1311 130.355 87.6438 134.677 87.7103C138.999 87.7769 143.155 89.3929 146.388 92.2649C147.726 93.4929 149.678 91.5114 148.34 90.2835Z" fill="#351D47"/>
<path d="M113.186 101.475C111.959 102.815 110.398 104.545 108.558 104.545C106.718 104.545 106.411 103.15 106.718 101.754C107.371 99.9772 108.192 98.267 109.171 96.647C109.726 95.684 110.019 94.5915 110.019 93.4795C110.019 92.3674 109.726 91.275 109.171 90.312C108.167 88.8328 105.742 90.3119 106.773 91.7352C107.805 93.1585 106.355 95.9214 105.407 97.5401C104.1 99.3856 103.551 101.664 103.874 103.903C104.159 105.016 104.848 105.982 105.808 106.612C106.767 107.242 107.927 107.49 109.06 107.308C111.504 106.851 113.685 105.485 115.165 103.484C116.364 102.145 114.384 100.163 113.186 101.475Z" fill="#351D47"/>
<path d="M133.425 73.7901C131.289 73.5334 129.241 72.785 127.441 71.6036C125.642 70.4222 124.141 68.8399 123.054 66.9806C122.87 66.6587 122.565 66.4234 122.206 66.3266C121.848 66.2298 121.466 66.2793 121.145 66.4643C120.823 66.6494 120.588 66.9547 120.491 67.3132C120.395 67.6718 120.444 68.054 120.629 68.376C121.974 70.649 123.831 72.5752 126.054 74C128.276 75.4248 130.8 76.3087 133.425 76.5809C133.795 76.5809 134.149 76.4339 134.411 76.1722C134.672 75.9105 134.819 75.5556 134.819 75.1855C134.812 74.8177 134.663 74.4669 134.403 74.2067C134.143 73.9466 133.793 73.7973 133.425 73.7901Z" fill="#351D47"/>
<path d="M100.78 69.2692C100.461 69.0861 100.084 69.0361 99.7288 69.1302C99.3738 69.2243 99.0703 69.4547 98.8841 69.7715C97.265 71.8227 95.1821 73.4592 92.807 74.5461C90.4319 75.633 87.8327 76.1392 85.2238 76.0229C83.4396 76.0229 83.4396 78.8136 85.2238 78.8136C88.3141 78.9035 91.3815 78.2571 94.1733 76.9276C96.9651 75.5981 99.4015 73.6237 101.282 71.1669C101.376 71.01 101.438 70.8358 101.464 70.6546C101.489 70.4733 101.479 70.2887 101.432 70.1118C101.385 69.9348 101.303 69.769 101.191 69.6243C101.079 69.4795 100.939 69.3588 100.78 69.2692Z" fill="#351D47"/>
<path d="M194.554 54.2919L199.655 62.6222L185.124 66.0953L191.476 72.2517L171.064 76.6759L180.34 69.8486L176.73 64.6857L194.554 54.2919Z" fill="#351D47"/>
<path d="M183.323 19.0857L189.967 26.2696L176.396 32.477L183.846 37.2918L164.685 45.5797L172.444 37.088L167.883 32.7233L183.323 19.0857Z" fill="#351D47"/>
<path d="M25.3884 45.3286L20.2874 53.6589L34.8189 57.1319L28.4661 63.2884L48.8788 67.7125L39.6027 60.8853L43.212 55.7223L25.3884 45.3286Z" fill="#351D47"/>
<path d="M65.1193 13.1214L58.4751 20.3053L72.0464 26.5127L64.6049 31.3275L83.7574 39.6154L75.9986 31.1237L80.5596 26.759L65.1193 13.1214Z" fill="#351D47"/>
</g>
<defs>
<clipPath id="clip0_1_95">
<rect width="216" height="167" fill="white"/>
</clipPath>
</defs>
</svg>
