<svg width="216" height="167" viewBox="0 0 216 167" fill="none" xmlns="http://www.w3.org/2000/svg">
<g clip-path="url(#clip0_1_124)">
<path d="M174.563 96.4223C173.284 60.1315 137.045 38.4365 103.858 37.7143C76.8956 37.0924 54.6052 57.3791 47.6429 78.2173C33.0655 121.999 86.717 176.564 138.482 155.134C162.513 145.043 175.423 120.235 174.563 96.4223Z" fill="#5F5EAA"/>
<path d="M165.819 76.4136C153.441 45.1849 115.081 37.5102 85.8927 47.1663C62.1684 54.9805 49.0099 79.5672 49.4002 99.8841C50.2644 142.555 114.022 173.477 152.549 138.76C170.391 122.517 173.96 96.8979 165.819 76.4136Z" fill="#908FD0" fill-opacity="0.5"/>
<path d="M113.185 101.475C111.959 102.815 110.398 104.545 108.558 104.545C106.718 104.545 106.411 103.15 106.718 101.754C107.37 99.9772 108.192 98.267 109.171 96.647C109.726 95.684 110.019 94.5915 110.019 93.4795C110.019 92.3674 109.726 91.275 109.171 90.312C108.167 88.8328 105.742 90.3119 106.773 91.7352C107.805 93.1585 106.355 95.9214 105.407 97.5401C104.1 99.3856 103.551 101.664 103.874 103.903C104.159 105.016 104.848 105.982 105.807 106.612C106.767 107.242 107.927 107.49 109.059 107.308C111.504 106.851 113.685 105.485 115.165 103.484C116.364 102.145 114.384 100.163 113.185 101.475Z" fill="#351D47"/>
<path d="M133.425 73.7901C131.289 73.5334 129.241 72.785 127.441 71.6036C125.642 70.4222 124.141 68.8399 123.054 66.9806C122.87 66.6587 122.565 66.4234 122.206 66.3266C121.848 66.2298 121.466 66.2793 121.145 66.4643C120.823 66.6494 120.588 66.9547 120.491 67.3132C120.395 67.6718 120.444 68.054 120.629 68.376C121.974 70.649 123.831 72.5752 126.054 74C128.276 75.4248 130.8 76.3087 133.425 76.5809C133.795 76.5809 134.149 76.4339 134.411 76.1722C134.672 75.9105 134.819 75.5556 134.819 75.1855C134.812 74.8177 134.663 74.4669 134.403 74.2067C134.143 73.9466 133.793 73.7973 133.425 73.7901Z" fill="#351D47"/>
<path d="M100.78 69.2692C100.461 69.0861 100.084 69.0361 99.7288 69.1302C99.3738 69.2243 99.0703 69.4547 98.8841 69.7715C97.265 71.8227 95.1821 73.4592 92.807 74.5461C90.4319 75.633 87.8327 76.1392 85.2238 76.0229C83.4396 76.0229 83.4396 78.8136 85.2238 78.8136C88.3141 78.9035 91.3815 78.2571 94.1733 76.9276C96.9651 75.5981 99.4015 73.6237 101.282 71.1669C101.376 71.01 101.438 70.8358 101.464 70.6546C101.489 70.4733 101.479 70.2887 101.432 70.1118C101.385 69.9348 101.303 69.769 101.191 69.6243C101.079 69.4795 100.939 69.3588 100.78 69.2692Z" fill="#351D47"/>
<g clip-path="url(#clip1_1_124)">
<path d="M169.002 34.2872C168.373 33.2367 167.519 32.3389 166.501 31.6584C165.483 30.978 164.327 30.5319 163.117 30.3522C161.898 30.1677 160.655 30.2494 159.471 30.5917C158.288 30.9341 157.192 31.5289 156.261 32.3354C152.776 35.4666 153.256 41.99 157.513 44.2341C159.757 45.4135 163.357 45.2048 164.463 42.5537C165.339 40.4662 164.139 37.5854 161.718 37.4497C161.04 37.4497 161.05 38.4935 161.718 38.4935C163.492 38.5979 164.17 41.0507 163.388 42.4075C162.271 44.328 159.391 44.1715 157.732 43.159C154.257 41.0715 154.101 35.5188 157.127 32.9512C157.944 32.2938 158.89 31.8148 159.904 31.5452C160.917 31.2755 161.976 31.2212 163.012 31.3855C164.061 31.5484 165.061 31.9405 165.941 32.534C166.822 33.1276 167.56 33.9079 168.104 34.8195C169.233 36.7171 169.604 38.9708 169.143 41.1302C168.683 43.2895 167.425 45.1957 165.621 46.4677C161.071 49.7973 154.883 48.5552 151.117 44.6516C150.647 44.1715 149.917 44.9125 150.376 45.3927C154.289 49.4633 160.706 50.8828 165.61 47.7411C167.834 46.3643 169.455 44.1984 170.15 41.6769C170.453 40.4302 170.508 39.1357 170.311 37.8677C170.114 36.5997 169.669 35.3829 169.002 34.2872Z" fill="#351D47"/>
</g>
<g clip-path="url(#clip2_1_124)">
<path d="M46.9356 68.3761C46.0069 62.3014 38.9843 58.9197 33.506 61.3099C32.8904 61.5813 33.4226 62.4789 34.0278 62.2075C35.5079 61.552 37.1429 61.3278 38.7448 61.5605C40.3467 61.7933 41.8503 62.4736 43.0828 63.5233C44.3152 64.5729 45.2265 65.9492 45.7116 67.4939C46.1968 69.0385 46.2362 70.6888 45.8253 72.2549C45.4144 73.821 44.5699 75.2392 43.389 76.3465C42.208 77.4538 40.7385 78.2051 39.1496 78.5141C37.5607 78.8231 35.9168 78.6772 34.4071 78.0931C32.8974 77.5091 31.5832 76.5106 30.6156 75.2126C29.1443 73.2608 28.5287 70.1922 30.3234 68.2299C31.1197 67.4569 32.1196 66.9265 33.2062 66.701C34.2928 66.4755 35.4211 66.5642 36.4591 66.9566C38.8278 67.802 40.7895 70.5784 38.9113 72.8746C38.6027 73.3173 38.1348 73.6233 37.6057 73.7284C37.0765 73.8335 36.5272 73.7295 36.073 73.4383C35.2695 72.8642 34.6434 71.5804 35.3426 70.6932C35.76 70.1818 35.0295 69.4303 34.6017 69.9626C33.1095 71.8309 34.7582 74.7534 37.0643 74.8473C39.6208 74.9413 41.1652 71.9039 40.56 69.6286C39.8087 66.9044 36.7513 65.3909 34.0904 65.4536C32.7414 65.4388 31.4281 65.8864 30.3688 66.7219C29.3094 67.5574 28.568 68.7305 28.2678 70.0461C28.0921 71.4493 28.2956 72.8739 28.8572 74.1717C29.4188 75.4695 30.3178 76.5931 31.4608 77.4254C33.5469 79.0103 36.1611 79.735 38.7652 79.4503C44.2017 78.9284 47.7391 73.6366 46.9356 68.3761Z" fill="#351D47"/>
</g>
<path d="M71.821 42.1102C67.647 37.1837 63.4731 32.2502 59.2992 27.3098C58.8714 26.7984 58.1305 27.5394 58.5688 28.0509L71.0905 42.8513C71.5079 43.3627 72.2488 42.653 71.821 42.1102Z" fill="#351D47"/>
<path d="M80.2 36.2337L74.6696 27.8837C74.2939 27.3305 73.3965 27.8837 73.7722 28.4056C75.6087 31.1889 77.4522 33.9722 79.3026 36.7556C79.6783 37.3192 80.5757 36.7973 80.2 36.2337Z" fill="#351D47"/>
<g clip-path="url(#clip3_1_124)">
<path d="M202.258 78.3332L178.706 88.6246C178.091 88.896 178.623 89.7936 179.238 89.5222L202.779 79.2309C203.395 78.9699 202.863 78.0723 202.258 78.3332Z" fill="#351D47"/>
<path d="M189.84 94.3446L179.656 97.0896C179.517 97.127 179.399 97.2178 179.328 97.3421C179.257 97.4664 179.237 97.614 179.275 97.7524C179.312 97.8908 179.403 98.0087 179.527 98.0802C179.652 98.1516 179.799 98.1707 179.937 98.1334L190.122 95.3883C190.26 95.3509 190.378 95.2601 190.449 95.1358C190.521 95.0115 190.54 94.8639 190.503 94.7255C190.465 94.5871 190.374 94.4692 190.25 94.3978C190.126 94.3263 189.978 94.3072 189.84 94.3446Z" fill="#351D47"/>
</g>
<path d="M129.114 88.6916C127.822 88.0123 126.396 87.629 124.937 87.5694C123.479 87.5099 122.026 87.7755 120.683 88.3471C121.324 86.4447 122.359 84.6986 123.719 83.2223C124.627 82.2308 123.156 80.7486 122.238 81.7402C120.052 84.0909 118.601 87.0296 118.064 90.1946C117.993 90.4186 117.999 90.6602 118.082 90.8801C118.165 91.1 118.32 91.2854 118.522 91.4062C118.724 91.527 118.96 91.5761 119.193 91.5457C119.427 91.5152 119.642 91.4069 119.806 91.2383C120.97 90.3427 122.365 89.799 123.828 89.6714C125.291 89.5437 126.759 89.8376 128.06 90.5181C129.239 91.1235 130.304 89.3282 129.114 88.6916Z" fill="#351D47"/>
<path d="M98.8428 90.7789C97.4299 87.9233 94.982 85.7137 91.9976 84.5999C91.7306 84.5266 91.4453 84.5623 91.2046 84.6993C90.9639 84.8364 90.7875 85.0634 90.7141 85.3305C90.6408 85.5977 90.6766 85.883 90.8135 86.1238C90.9505 86.3645 91.1775 86.541 91.4446 86.6143C92.9711 87.2058 94.3317 88.1584 95.4098 89.3907C91.9663 88.347 88.3455 87.919 85.0376 89.7247C83.8585 90.3614 84.9124 92.1671 86.0811 91.52C89.7437 89.5264 94.022 91.0398 97.6533 92.3132C98.5924 92.6368 99.2081 91.5304 98.8428 90.7789Z" fill="#351D47"/>
<path d="M108.821 111.685C104.019 111.588 99.3429 113.228 95.6508 116.304C91.9587 119.38 89.4984 123.685 88.7211 128.43C88.6498 128.817 88.7297 129.217 88.9442 129.546C88.9659 129.941 89.1416 130.312 89.4337 130.578C89.7257 130.844 90.1107 130.985 90.5054 130.97C102.103 130.97 113.709 131.267 125.325 131.863C125.325 131.863 125.465 131.863 125.548 131.863C125.766 131.898 125.989 131.882 126.2 131.818C126.411 131.753 126.605 131.641 126.766 131.491C126.928 131.34 127.052 131.154 127.131 130.948C127.21 130.742 127.241 130.52 127.221 130.3C126.883 125.508 124.842 120.995 121.466 117.58C118.091 114.165 113.605 112.074 108.821 111.685Z" fill="#351D47"/>
</g>
<defs>
<clipPath id="clip0_1_124">
<rect width="216" height="167" fill="white"/>
</clipPath>
<clipPath id="clip1_1_124">
<rect width="20.2017" height="19.1841" fill="white" transform="translate(150.261 30.2687)"/>
</clipPath>
<clipPath id="clip2_1_124">
<rect width="18.8765" height="19.0798" fill="white" transform="translate(28.1739 60.5375)"/>
</clipPath>
<clipPath id="clip3_1_124">
<rect width="24.6156" height="19.8312" fill="white" transform="translate(178.435 78.2812)"/>
</clipPath>
</defs>
</svg>
