<svg width="33" height="33" viewBox="0 0 33 33" fill="none" xmlns="http://www.w3.org/2000/svg">
<g clip-path="url(#clip0_960_957)">
<path d="M16.4978 32.994C13.2353 32.9928 10.0463 32.0242 7.3342 30.2108C4.62208 28.3974 2.50857 25.8205 1.26088 22.8059C0.0131854 19.7914 -0.31266 16.4746 0.324562 13.2749C0.961784 10.0752 2.53345 7.13627 4.84083 4.82973C7.14822 2.52319 10.0877 0.952598 13.2876 0.316548C16.4876 -0.319501 19.8043 0.00755376 22.8183 1.25635C25.8324 2.50514 28.4085 4.6196 30.221 7.33239C32.0334 10.0452 33.0008 13.2345 33.0008 16.497C32.996 20.8718 31.2556 25.066 28.1615 28.1589C25.0675 31.2519 20.8726 32.9908 16.4978 32.994Z" fill="#5F5EAA"/>
<path fill-rule="evenodd" clip-rule="evenodd" d="M14.5428 16.5619V23.8121C14.5439 23.8616 14.5642 23.9087 14.5994 23.9437C14.6345 23.9787 14.6819 23.9988 14.7316 24H17.4394C17.4895 24 17.5376 23.9802 17.573 23.945C17.6084 23.9097 17.6283 23.8619 17.6283 23.8121V16.4427H19.5901C19.6379 16.4428 19.6839 16.4249 19.719 16.3926C19.754 16.3603 19.7754 16.316 19.7789 16.2686L19.9678 14.0504C19.9696 14.0244 19.9662 13.9983 19.9576 13.9736C19.949 13.9489 19.9355 13.9263 19.9178 13.907C19.9002 13.8877 19.8787 13.8722 19.8548 13.8614C19.831 13.8506 19.8051 13.8447 19.7789 13.8442H17.6283V12.2676C17.6283 12.0902 17.6991 11.92 17.8252 11.7945C17.9513 11.669 18.1223 11.5985 18.3007 11.5985H19.8112C19.8612 11.5985 19.9093 11.5787 19.9447 11.5435C19.9801 11.5083 20 11.4605 20 11.4106V9.1879C20 9.13807 19.9801 9.09027 19.9447 9.05504C19.9093 9.0198 19.8612 9 19.8112 9H17.2599C16.54 9 15.8496 9.28425 15.3402 9.79034C14.8308 10.2964 14.544 10.983 14.5428 11.6994V13.8396H13.1934C13.1421 13.8396 13.0929 13.8599 13.0566 13.896C13.0204 13.9321 13 13.981 13 14.0321V16.2502C13 16.2753 13.005 16.3001 13.0148 16.3232C13.0246 16.3463 13.0389 16.3672 13.0569 16.3847C13.0749 16.4023 13.0963 16.416 13.1197 16.4252C13.1432 16.4343 13.1682 16.4387 13.1934 16.4381H14.5428V16.5619Z" fill="white"/>
</g>
<defs>
<clipPath id="clip0_960_957">
<rect width="33" height="33" fill="white"/>
</clipPath>
</defs>
</svg>
