<svg width="357" height="223" viewBox="0 0 357 223" fill="none" xmlns="http://www.w3.org/2000/svg">
<g clip-path="url(#clip0_1176_887)">
<path d="M260.558 128.756C258.848 80.2954 210.361 51.3253 165.958 50.361C129.884 49.5306 100.06 76.62 90.7446 104.446C71.2405 162.909 143.024 235.771 212.283 207.155C244.437 193.68 261.709 160.553 260.558 128.756Z" fill="#CCAEF8"/>
<path d="M248.86 102.037C232.299 60.3366 180.974 50.0885 141.921 62.9825C110.179 73.417 92.5733 106.248 93.0955 133.378C94.2518 190.358 179.557 231.649 231.105 185.29C254.977 163.601 259.752 129.391 248.86 102.037Z" fill="#E1CDFF" fill-opacity="0.5"/>
<path d="M178.438 135.503C176.797 137.291 174.708 139.602 172.246 139.602C169.784 139.602 169.374 137.739 169.784 135.875C170.658 133.502 171.757 131.219 173.067 129.056C173.81 127.77 174.201 126.311 174.201 124.826C174.201 123.341 173.81 121.882 173.067 120.596C171.724 118.621 168.479 120.596 169.859 122.497C171.239 124.397 169.299 128.087 168.031 130.248C166.282 132.713 165.547 135.755 165.98 138.745C166.36 140.231 167.283 141.521 168.566 142.362C169.85 143.203 171.402 143.534 172.917 143.291C176.188 142.682 179.107 140.858 181.086 138.186C182.69 136.397 180.042 133.751 178.438 135.503Z" fill="#351D47"/>
<path d="M171.693 181.674C178.118 181.804 184.375 179.614 189.315 175.507C194.255 171.4 197.547 165.651 198.587 159.314C198.682 158.798 198.575 158.264 198.288 157.824C198.259 157.297 198.024 156.802 197.633 156.446C197.242 156.091 196.727 155.903 196.199 155.923C180.683 155.923 165.153 155.526 149.612 154.731C149.612 154.731 149.425 154.731 149.313 154.731C149.022 154.684 148.723 154.705 148.441 154.791C148.159 154.877 147.9 155.026 147.684 155.228C147.468 155.429 147.301 155.677 147.195 155.952C147.09 156.228 147.049 156.524 147.075 156.818C147.527 163.217 150.259 169.243 154.775 173.803C159.291 178.363 165.293 181.155 171.693 181.674Z" fill="#351D47"/>
<path d="M157.07 116.872C152.617 113.009 147.097 110.584 141.237 109.919C135.377 109.254 129.453 110.379 124.246 113.146C122.157 114.301 124.022 117.506 126.148 116.388C130.63 114.011 135.725 113.039 140.768 113.597C145.811 114.156 150.569 116.219 154.422 119.518C156.361 121.083 158.86 118.4 157.07 116.872Z" fill="#351D47"/>
<path d="M223.501 115.68C218.471 111.175 211.977 108.643 205.222 108.554C198.467 108.465 191.909 110.825 186.761 115.196C184.933 116.761 187.582 119.407 189.372 117.841C193.815 114.141 199.438 112.155 205.221 112.244C211.004 112.333 216.564 114.491 220.89 118.326C222.681 119.966 225.292 117.32 223.501 115.68Z" fill="#351D47"/>
<path d="M203.546 93.656C200.688 93.3131 197.948 92.3138 195.541 90.7363C193.133 89.1587 191.124 87.0458 189.671 84.563C189.423 84.1331 189.015 83.819 188.536 83.6897C188.057 83.5604 187.546 83.6265 187.116 83.8736C186.685 84.1207 186.371 84.5285 186.241 85.0072C186.112 85.4859 186.178 85.9964 186.426 86.4264C188.225 89.4616 190.71 92.0336 193.683 93.9362C196.657 95.8388 200.034 97.0192 203.546 97.3826C204.041 97.3826 204.515 97.1863 204.865 96.8368C205.215 96.4874 205.411 96.0135 205.411 95.5193C205.402 95.0281 205.202 94.5597 204.855 94.2123C204.507 93.8649 204.038 93.6655 203.546 93.656V93.656Z" fill="#351D47"/>
<path d="M159.868 87.619C159.442 87.3746 158.937 87.3078 158.462 87.4334C157.987 87.559 157.581 87.8668 157.332 88.2898C155.166 91.0288 152.379 93.2141 149.201 94.6655C146.023 96.1168 142.545 96.7927 139.055 96.6374C136.668 96.6374 136.668 100.364 139.055 100.364C143.189 100.484 147.294 99.6208 151.029 97.8455C154.764 96.0703 158.024 93.4337 160.54 90.1531C160.666 89.9436 160.749 89.711 160.783 89.469C160.818 89.227 160.803 88.9805 160.741 88.7441C160.678 88.5078 160.568 88.2864 160.419 88.0932C160.269 87.8999 160.082 87.7387 159.868 87.619V87.619Z" fill="#351D47"/>
</g>
<path d="M13.4995 49.7038L74.6127 80.5693C76.2098 81.3824 74.6506 83.6851 73.0534 82.872L11.9681 52.0081C10.3693 51.2227 11.9285 48.92 13.4995 49.7038Z" fill="#351D47"/>
<path d="M44.0519 94.0758L70.7481 102.896C71.1108 103.016 71.4104 103.275 71.5811 103.616C71.7518 103.957 71.7796 104.351 71.6582 104.713C71.5368 105.075 71.2763 105.374 70.934 105.545C70.5917 105.716 70.1957 105.745 69.833 105.625L43.1366 96.8041C42.7739 96.684 42.4742 96.4252 42.3036 96.0845C42.1329 95.7438 42.1053 95.3491 42.2266 94.9873C42.348 94.6255 42.6084 94.3262 42.9507 94.1553C43.293 93.9844 43.6891 93.9558 44.0519 94.0758Z" fill="#351D47"/>
<path d="M64.633 42.7201L85.0792 62.0189C85.357 62.2813 85.5188 62.6427 85.529 63.0236C85.5393 63.4046 85.3973 63.7738 85.1341 64.0502C84.8709 64.3265 84.5081 64.4872 84.1256 64.497C83.7432 64.5069 83.3723 64.365 83.0946 64.1027L62.6483 44.8038C62.3706 44.5414 62.2088 44.18 62.1985 43.7991C62.1882 43.4182 62.3304 43.049 62.5936 42.7727C62.8567 42.4964 63.2194 42.3355 63.6019 42.3257C63.9844 42.3158 64.3553 42.4578 64.633 42.7201Z" fill="#351D47"/>
<path d="M84.1447 24.1973L100.345 47.1764C100.565 47.4888 100.652 47.8752 100.586 48.2505C100.52 48.6259 100.308 48.9595 99.9948 49.178C99.6819 49.3965 99.2944 49.4818 98.9176 49.4154C98.5408 49.349 98.2056 49.1363 97.9856 48.8239L81.7853 25.8446C81.5653 25.5323 81.4786 25.1459 81.5442 24.7705C81.6099 24.3952 81.8226 24.0616 82.1355 23.8432C82.4484 23.6247 82.8358 23.5392 83.2126 23.6056C83.5894 23.672 83.9247 23.8849 84.1447 24.1973Z" fill="#351D47"/>
<path d="M354.095 105.418L287.548 121.507C285.807 121.934 286.799 124.531 288.54 124.105L355.06 108.011C356.796 107.611 355.804 105.013 354.095 105.418Z" fill="#351D47"/>
<path d="M314.215 141.637L286.21 144.126C285.829 144.16 285.478 144.344 285.234 144.637C284.99 144.929 284.873 145.307 284.909 145.687C284.944 146.067 285.13 146.418 285.424 146.663C285.718 146.907 286.097 147.025 286.477 146.991L314.483 144.502C314.863 144.468 315.214 144.285 315.458 143.992C315.702 143.699 315.819 143.322 315.784 142.942C315.748 142.562 315.563 142.211 315.269 141.966C314.975 141.722 314.596 141.603 314.215 141.637Z" fill="#351D47"/>
<path d="M307.858 178.237L283.771 163.735C283.444 163.538 283.052 163.479 282.683 163.572C282.313 163.665 281.996 163.901 281.8 164.228C281.605 164.556 281.548 164.949 281.641 165.32C281.734 165.691 281.971 166.01 282.298 166.207L306.385 180.709C306.712 180.906 307.104 180.965 307.474 180.872C307.843 180.78 308.161 180.544 308.356 180.216C308.551 179.888 308.609 179.495 308.515 179.124C308.422 178.753 308.186 178.434 307.858 178.237Z" fill="#351D47"/>
<path d="M307.04 88.7751L280.86 99.0262C280.504 99.1657 280.219 99.4404 280.067 99.7898C279.915 100.139 279.908 100.535 280.049 100.89C280.19 101.244 280.466 101.529 280.817 101.681C281.168 101.833 281.565 101.84 281.921 101.701L308.101 91.4499C308.457 91.3104 308.742 91.0357 308.894 90.6863C309.046 90.3369 309.053 89.9413 308.912 89.5866C308.771 89.2319 308.495 88.9471 308.144 88.7949C307.793 88.6428 307.396 88.6356 307.04 88.7751Z" fill="#351D47"/>
<path d="M294.105 58.742L271.819 75.8826C271.516 76.1156 271.319 76.4589 271.27 76.8369C271.222 77.2148 271.326 77.5965 271.56 77.898C271.794 78.1994 272.138 78.3958 272.518 78.4442C272.898 78.4925 273.281 78.3887 273.583 78.1557L295.87 61.015C296.173 60.7819 296.37 60.4387 296.419 60.0607C296.467 59.6828 296.363 59.3011 296.129 58.9997C295.895 58.6983 295.551 58.5018 295.171 58.4534C294.792 58.4051 294.408 58.5089 294.105 58.742Z" fill="#351D47"/>
<defs>
<clipPath id="clip0_1176_887">
<rect width="289" height="223" fill="white" transform="translate(27)"/>
</clipPath>
</defs>
</svg>
