<svg width="158" height="125" viewBox="0 0 158 125" fill="none" xmlns="http://www.w3.org/2000/svg">
<g clip-path="url(#clip0_10_20)">
<path d="M126.408 70.1503C124.693 44.4745 98.4138 29.9158 74.7719 30.144C55.5639 30.3044 40.1454 45.1699 35.651 60.0845C26.2442 91.4196 65.6482 128.871 102.024 112.539C118.908 104.856 127.548 86.9971 126.408 70.1503Z" fill="#CCAEF8"/>
<path d="M119.74 56.1734C110.236 34.3303 82.7573 29.7494 62.1923 37.2391C45.4764 43.3025 36.6541 61.0103 37.3824 75.3917C38.9438 105.596 85.0179 126.076 111.676 100.628C124.017 88.7261 125.989 70.5007 119.74 56.1734Z" fill="#D7BDFC"/>
<path d="M79.0067 100.14C85.1374 100.261 91.1072 98.2234 95.8206 94.402C100.534 90.5806 103.675 85.2314 104.667 79.336C104.758 78.8553 104.656 78.3588 104.382 77.9491C104.355 77.4585 104.13 76.9982 103.758 76.6674C103.385 76.3366 102.893 76.1618 102.389 76.1807C87.5839 76.1807 72.7666 75.8109 57.9375 75.0712C57.9375 75.0712 57.7594 75.0712 57.6527 75.0712C57.3745 75.0278 57.0898 75.047 56.8204 75.1271C56.5509 75.2072 56.3037 75.3462 56.0978 75.5335C55.8918 75.7208 55.7325 75.9514 55.6319 76.2077C55.5313 76.4641 55.4921 76.7395 55.5174 77.0129C55.9483 82.967 58.5546 88.5737 62.8639 92.8166C67.1732 97.0595 72.9001 99.6577 79.0067 100.14Z" fill="#351D47"/>
<path d="M75.8494 59.3432C72.5024 56.434 68.3529 54.6086 63.9482 54.1076C59.5435 53.6067 55.0905 54.4538 51.1767 56.5372C49.6066 57.4071 51.0084 59.8202 52.6065 58.9784C55.9755 57.1889 59.8049 56.4566 63.5958 56.8771C67.3866 57.2975 70.963 58.8511 73.8587 61.3354C75.3167 62.5139 77.1952 60.4936 75.8494 59.3432Z" fill="#351D47"/>
<path d="M111.698 59.3345C107.917 55.9423 103.036 54.0362 97.9583 53.9691C92.8807 53.9021 87.9509 55.6785 84.0816 58.9697C82.7078 60.1482 84.6985 62.1404 86.0443 60.9619C89.3836 58.1758 93.6105 56.6804 97.9576 56.7473C102.305 56.8142 106.484 58.439 109.736 61.3267C111.081 62.5613 113.044 60.5691 111.698 59.3345Z" fill="#351D47"/>
</g>
<defs>
<clipPath id="clip0_10_20">
<rect width="153.844" height="118.342" fill="white" transform="translate(0 5.74609) rotate(-1.79308)"/>
</clipPath>
</defs>
</svg>
