<svg width="163" height="163" viewBox="0 0 163 163" fill="none" xmlns="http://www.w3.org/2000/svg">
<g filter="url(#filter0_d_7_3)">
<circle cx="81.5" cy="77.5" r="77.5" fill="white"/>
</g>
<path d="M100.258 43.3107C98.6645 42.8353 97.017 42.5474 95.3516 42.4532C88.6938 40.1207 80.6849 40.9782 74.0805 42.3674C65.2894 44.2626 57.7783 49.5537 51.9827 56.0368C49.6458 58.0967 47.5259 60.3746 45.6538 62.8372C34.2938 77.8015 40.7116 103.142 59.0494 110.114C76.3027 116.649 100.089 111.983 111.112 97.0192C111.552 96.422 111.962 95.8037 112.338 95.1669C113.568 93.6731 114.668 92.0841 115.627 90.416C124.729 74.5256 119.618 49.3393 100.258 43.3107ZM74.5783 44.76C76.2275 44.333 77.9015 44.0008 79.5916 43.7652C77.9027 44.0511 76.2316 44.3827 74.5783 44.76ZM111.218 53.6785C110.247 52.6745 109.198 51.7429 108.08 50.8915C108.072 50.6555 108.002 50.4253 107.876 50.2226C109.114 51.2575 110.234 52.4159 111.218 53.6785ZM58.9694 107.318C54.6177 105.388 50.9223 102.308 48.3116 98.4341C51.7971 102.621 56.2842 105.928 61.3871 108.073C62.5501 108.532 63.7369 108.933 64.9427 109.274C62.8956 108.793 60.8967 108.139 58.9694 107.318ZM64.6316 78.6076C63.3783 79.3107 61.7071 78.6076 61.2094 76.8924C61.2094 76.8067 61.2094 76.7124 61.156 76.6352C60.9146 76.2054 60.7238 75.751 60.5871 75.2803C60.036 73.3079 60.1249 70.0235 61.9649 68.6514C62.1703 68.4628 62.4178 68.3223 62.6884 68.2407C62.959 68.1591 63.2454 68.1387 63.5256 68.181C63.8057 68.2232 64.0719 68.3271 64.3038 68.4845C64.5357 68.6419 64.7269 68.8486 64.8627 69.0887L64.916 69.1316C66.036 69.7662 66.5338 71.387 66.8005 72.5618C67.2805 74.5256 67.556 78.2817 64.6316 78.6076ZM98.1605 75.7262C97.6588 76.1614 97.0446 76.4577 96.3827 76.5837C96.041 76.718 95.6685 76.7625 95.3031 76.7128C94.9378 76.6631 94.5926 76.5209 94.3027 76.3007L94.1605 76.2236L94.0894 76.1378L93.956 76.0521C93.8807 76.0031 93.8094 75.9486 93.7427 75.8891L93.5827 75.7433C93.2158 75.3728 92.9528 74.9184 92.8183 74.4227C92.6046 73.6046 92.5563 72.7544 92.676 71.9187C92.76 70.5616 93.1257 69.2348 93.7516 68.0168C93.9067 67.7491 94.1657 67.5517 94.4716 67.468L94.5694 67.3651C96.4627 65.7529 99.0138 66.9706 99.6538 69.1488C100.294 71.3269 99.9383 74.2512 98.1605 75.7262ZM92.2227 82.7324C90.2494 87.569 83.6005 92.1654 78.0716 91.5994C74.0716 91.1964 69.1827 89.5842 69.1827 85.022C69.1827 84.6809 69.3232 84.3537 69.5732 84.1125C69.8233 83.8712 70.1624 83.7357 70.516 83.7357C70.8697 83.7357 71.2088 83.8712 71.4588 84.1125C71.7089 84.3537 71.8494 84.6809 71.8494 85.022C71.8494 88.2636 76.9071 89.3612 79.5916 89.0697C83.3071 88.6752 88.3116 85.5794 89.7516 82.0549C90.3027 80.5456 92.8449 81.2059 92.2227 82.7324Z" fill="#5F5EAA"/>
<defs>
<filter id="filter0_d_7_3" x="0" y="0" width="163" height="163" filterUnits="userSpaceOnUse" color-interpolation-filters="sRGB">
<feFlood flood-opacity="0" result="BackgroundImageFix"/>
<feColorMatrix in="SourceAlpha" type="matrix" values="0 0 0 0 0 0 0 0 0 0 0 0 0 0 0 0 0 0 127 0" result="hardAlpha"/>
<feOffset dy="4"/>
<feGaussianBlur stdDeviation="2"/>
<feComposite in2="hardAlpha" operator="out"/>
<feColorMatrix type="matrix" values="0 0 0 0 0 0 0 0 0 0 0 0 0 0 0 0 0 0 0.25 0"/>
<feBlend mode="normal" in2="BackgroundImageFix" result="effect1_dropShadow_7_3"/>
<feBlend mode="normal" in="SourceGraphic" in2="effect1_dropShadow_7_3" result="shape"/>
</filter>
</defs>
</svg>
