<svg width="20" height="21" viewBox="0 0 20 21" fill="none" xmlns="http://www.w3.org/2000/svg">
<path d="M19.7948 17.6464C18.6619 20.4989 16.0057 20.9988 15.1377 20.9988C14.8828 20.9988 10.9133 21.2199 5.20707 15.5351C0.614853 10.9601 0.0537435 6.04046 0.00485471 5.10572C-0.0427008 4.19525 0.205521 1.91127 3.19707 0.214266C3.56774 0.00397924 4.30262 -0.0891446 4.4924 0.110173C4.57662 0.198629 7.08751 4.53811 7.15351 4.68188C7.21951 4.82541 7.25262 4.96685 7.25262 5.10548C7.25262 5.30363 7.11818 5.5515 6.84906 5.84884C6.58018 6.14618 6.28773 6.41879 5.97151 6.66642C5.65529 6.91428 5.36284 7.17685 5.09373 7.45435C4.82485 7.73162 4.6904 7.95988 4.6904 8.13819C4.70862 8.60101 5.06973 10.2588 7.82062 12.7974C10.5719 15.3367 11.8973 16.0521 12.0246 16.1016C12.1522 16.151 12.2582 16.1756 12.3431 16.1756C12.5131 16.1756 12.7302 16.0346 12.9944 15.7522C13.2584 15.4695 14.1466 14.191 14.4297 13.9084C14.7128 13.6262 14.9488 13.485 15.1377 13.485C15.2697 13.485 15.4042 13.5195 15.5408 13.5889C15.6777 13.6582 19.8148 16.2008 19.8939 16.2857C20.1086 16.5168 19.957 17.238 19.7948 17.6464Z" fill="#5F5EAA"/>
</svg>
