<svg width="70" height="88" viewBox="0 0 70 88" fill="none" xmlns="http://www.w3.org/2000/svg">
<g clip-path="url(#clip0_11_85)">
<path d="M20.2099 79.7633C24.7587 77.4929 26.1312 75.1345 25.4889 70.5585C26.729 70.7763 28.0035 70.6872 29.2013 70.2991C30.399 69.9111 31.4836 69.2357 32.3605 68.3321C33.236 67.4484 33.871 66.3555 34.2051 65.1572C34.5393 63.9589 34.5616 62.695 34.2697 61.4857C35.5583 61.4042 36.8383 61.2188 38.097 60.9313C39.3041 60.5546 40.393 59.8716 41.2577 58.9488C42.1224 58.026 42.7334 56.895 43.0311 55.6658C43.3288 54.4367 43.3031 53.1514 42.9565 51.9351C42.6099 50.7189 41.9542 49.6131 41.0533 48.7257C38.581 46.2529 36.003 43.8769 33.4691 41.4569L13.312 22.2641C12.4321 21.3841 11.5523 20.6097 10.6725 19.7385C9.70026 18.7681 9.14449 17.4569 9.12314 16.0833C9.10178 14.7097 9.61652 13.3819 10.5581 12.3817C11.5059 11.383 12.81 10.7994 14.1861 10.7582C15.5622 10.717 16.8989 11.2215 17.9047 12.1617C21.1161 15.1185 24.266 18.1457 27.4334 21.1553C32.0555 25.5377 36.6834 29.926 41.3173 34.3201C42.5609 35.5311 44.0162 36.5034 45.6109 37.1889C46.5929 37.6706 47.7002 37.8353 48.7798 37.6603C49.8595 37.4854 50.8581 36.9793 51.6378 36.2121C52.5299 35.3912 53.3134 34.4597 53.9693 33.4401C55.4915 31.0641 56.8464 28.5649 58.3685 26.1977C59.292 24.812 60.7237 23.8457 62.3541 23.5078C63.9844 23.1698 65.6822 23.4874 67.0802 24.3918C68.4782 25.2962 69.464 26.7148 69.8244 28.3406C70.1847 29.9664 69.8907 31.6687 69.0058 33.0793C66.5862 37.1361 64.1403 41.1665 61.7031 45.2145C60.4977 47.2033 59.31 49.1921 58.087 51.1633C57.9285 51.3817 57.8389 51.6424 57.8295 51.912C57.8201 52.1817 57.8913 52.448 58.0342 52.6769C59.1692 54.9649 60.2426 57.2881 61.36 59.5849C65.0377 67.1705 62.2398 75.5921 54.6996 79.3145C49.5848 81.8313 44.4436 84.2924 39.276 86.6977C36.0415 88.2101 32.3608 88.4678 28.9472 87.4207C25.5336 86.3737 22.6301 84.0965 20.7994 81.0305C20.6322 80.5905 20.4299 80.1769 20.2099 79.7633Z" fill="#5F5EAA"/>
<path d="M12.2385 43.4895C13.3732 43.5872 14.4378 44.0791 15.2476 44.8799C20.4035 49.7287 25.5769 54.5599 30.7064 59.4527C31.5593 60.4453 32.0132 61.7193 31.9801 63.0277C31.947 64.336 31.4293 65.5855 30.5273 66.5337C29.6253 67.4819 28.4034 68.0612 27.0985 68.1593C25.7937 68.2574 24.4989 67.8673 23.4653 67.0647C18.9517 62.8495 14.4733 58.5991 9.98616 54.3575C9.35267 53.7591 8.70159 53.1871 8.0857 52.5975C7.3041 51.8537 6.76694 50.8899 6.54539 49.8338C6.32384 48.7777 6.42837 47.6792 6.84513 46.6839C7.66338 44.7567 9.58143 43.4895 12.2385 43.4895Z" fill="#5F5EAA"/>
<path d="M41.0621 54.6127C40.9836 55.5043 40.6591 56.3566 40.1247 57.0744C39.5903 57.7923 38.867 58.3476 38.0354 58.6783C37.1491 59.1355 36.1445 59.3114 35.1556 59.1824C34.1668 59.0535 33.2408 58.6259 32.5013 57.9567C30.0905 55.8183 27.7941 53.5567 25.4625 51.3303C22.6647 48.6786 19.8668 46.0386 17.0689 43.4103C16.3628 42.7995 15.8395 42.0051 15.5568 41.1151C15.2742 40.2252 15.2433 39.2744 15.4676 38.3679C15.6751 37.4572 16.1204 36.6179 16.7582 35.9356C17.3959 35.2532 18.2032 34.7523 19.0977 34.4839C19.9922 34.2155 20.9419 34.1892 21.8498 34.4078C22.7578 34.6263 23.5915 35.0819 24.266 35.7279C26.2016 37.4879 28.0933 39.3535 30.0113 41.1663C32.9236 43.9207 35.8183 46.6927 38.7569 49.4295C39.5212 50.0517 40.1281 50.8452 40.5286 51.7457C40.9291 52.6462 41.1119 53.6284 41.0621 54.6127Z" fill="#5F5EAA"/>
<path d="M5.44618 54.912C6.15263 54.9352 6.84751 55.098 7.49078 55.391C8.13405 55.684 8.713 56.1014 9.19429 56.6192L19.6292 66.5192C20.3419 67.1968 21.0721 67.8568 21.776 68.5432C22.3427 69.0025 22.808 69.5743 23.1427 70.2224C23.4774 70.8706 23.6742 71.5811 23.7207 72.3092C23.7671 73.0372 23.6622 73.767 23.4126 74.4524C23.1629 75.1379 22.774 75.7642 22.2703 76.2918C21.7665 76.8194 21.159 77.2369 20.4859 77.5179C19.8128 77.7989 19.0887 77.9374 18.3595 77.9245C17.6302 77.9117 16.9115 77.7478 16.2487 77.4433C15.5859 77.1388 14.9934 76.7002 14.5085 76.1552C10.4173 72.292 6.35241 68.4112 2.25236 64.5656C0.659852 63.0784 -0.343165 61.4152 0.105553 59.1536C0.331976 57.92 0.997951 56.8103 1.98 56.0303C2.96205 55.2504 4.19355 54.853 5.44618 54.912Z" fill="#5F5EAA"/>
<path d="M53.371 18.4095C52.9389 18.4235 52.5118 18.3142 52.1395 18.0945C51.7671 17.8748 51.465 17.5537 51.2682 17.1687C51.0782 16.7965 51.0092 16.3743 51.0707 15.9609C51.1322 15.5476 51.3212 15.1638 51.6114 14.8631C51.8565 14.6093 52.1279 14.3822 52.4208 14.1855C54.2861 12.8127 56.1161 11.4399 58.0342 10.0847C58.2553 9.88803 58.5149 9.73944 58.7965 9.64831C59.078 9.55718 59.3754 9.52551 59.6698 9.55528C59.9643 9.58506 60.2493 9.67565 60.5069 9.82131C60.7645 9.96697 60.9891 10.1645 61.1664 10.4015C61.3453 10.6379 61.4721 10.9094 61.5387 11.1982C61.6053 11.487 61.6101 11.7867 61.5528 12.0775C61.4954 12.3684 61.3773 12.6438 61.2061 12.8857C61.0349 13.1277 60.8145 13.3307 60.5593 13.4815C58.6061 14.9423 56.6382 16.3796 54.6556 17.7935C54.2507 18.0443 53.8201 18.2508 53.371 18.4095Z" fill="#5F5EAA"/>
<path d="M35.8271 11.8975C35.8588 12.3485 35.753 12.7986 35.5236 13.1882C35.2943 13.5779 34.9522 13.8888 34.5425 14.0799C34.1418 14.2514 33.6975 14.2936 33.2717 14.2005C32.8458 14.1074 32.4596 13.8838 32.1669 13.5607C30.5128 11.3607 28.8763 9.16071 27.319 6.89031C27.1739 6.66395 27.0753 6.41094 27.029 6.14605C26.9828 5.88117 26.9897 5.60971 27.0495 5.34754C27.1093 5.08538 27.2207 4.83776 27.3773 4.61915C27.5338 4.40054 27.7324 4.21532 27.9613 4.07431C28.4055 3.77108 28.9492 3.65037 29.4799 3.7372C30.0106 3.82402 30.4876 4.11173 30.812 4.54071C32.3605 6.64391 33.9002 8.79991 35.4311 10.9207C35.6091 11.2257 35.7424 11.5547 35.8271 11.8975Z" fill="#5F5EAA"/>
<path d="M47.7577 13.4728C47.4007 13.4798 47.048 13.3947 46.7336 13.2257C46.4191 13.0566 46.1535 12.8093 45.9625 12.5077C45.7715 12.2061 45.6614 11.8602 45.643 11.5036C45.6245 11.147 45.6983 10.7917 45.8572 10.472C46.1916 9.59197 46.6139 8.71197 46.9922 7.83197C47.6433 6.36237 48.268 4.88398 48.9455 3.43198C49.1356 2.92145 49.5195 2.5066 50.0138 2.27756C50.508 2.04853 51.0726 2.02381 51.585 2.20878C51.8655 2.28847 52.1254 2.42813 52.3467 2.61809C52.568 2.80805 52.7454 3.04379 52.8667 3.30903C52.988 3.57427 53.0503 3.86269 53.0493 4.15436C53.0482 4.44602 52.9839 4.73399 52.8608 4.99838C51.8313 7.49757 50.7051 9.96157 49.5878 12.4256C49.4249 12.7652 49.1626 13.0472 48.8358 13.2342C48.5089 13.4213 48.1329 13.5045 47.7577 13.4728Z" fill="#5F5EAA"/>
<path d="M42.7162 9.43353C42.7162 10.9559 42.0299 11.8711 40.8334 11.9855C40.5482 12.0095 40.2612 11.976 39.9893 11.887C39.7174 11.798 39.4661 11.6553 39.2503 11.4674C39.0345 11.2795 38.8586 11.0501 38.7331 10.793C38.6075 10.5358 38.5349 10.2561 38.5194 9.97033C38.2378 7.51513 37.9739 5.05113 37.7627 2.58713C37.71 2.04707 37.8042 1.5028 38.0355 1.01193C38.2212 0.631333 38.5297 0.324442 38.9112 0.14082C39.2928 -0.0428025 39.7251 -0.092437 40.1383 -6.82361e-05C40.5844 0.0476306 40.9999 0.249539 41.3131 0.570835C41.6263 0.892131 41.8176 1.31267 41.854 1.75993C42.0915 3.51993 42.2763 5.35033 42.4787 7.14553C42.5666 7.91993 42.6458 8.79993 42.7162 9.43353Z" fill="#5F5EAA"/>
</g>
<defs>
<clipPath id="clip0_11_85">
<rect width="70" height="88" fill="white"/>
</clipPath>
</defs>
</svg>
