<svg width="80" height="82" viewBox="0 0 80 82" fill="none" xmlns="http://www.w3.org/2000/svg">
<path d="M49.5099 71.6453V74.0668C49.5127 74.9809 49.1789 75.8651 48.57 76.5559C47.9612 77.2467 47.1185 77.6973 46.1979 77.8245L45.6034 79.9955C45.4401 80.5624 45.0964 81.0629 44.6226 81.4236C44.1488 81.7843 43.5699 81.9862 42.9708 81.9996H37.0262C36.4209 82.0103 35.83 81.8175 35.3513 81.453C34.8726 81.0886 34.5347 80.5744 34.3936 79.9955L33.7992 77.8245C32.8786 77.6973 32.0359 77.2467 31.427 76.5559C30.8182 75.8651 30.4843 74.9809 30.4872 74.0668V71.6453C30.4872 71.0252 30.7377 70.4305 31.1837 69.992C31.6296 69.5535 32.2344 69.3072 32.865 69.3072H47.2169C47.8299 69.3369 48.4084 69.5953 48.8344 70.0297C49.2604 70.4641 49.502 71.0418 49.5099 71.6453ZM60.5498 39.3297C60.5563 44.5669 58.4845 49.5999 54.7751 53.3582C52.0464 56.1211 50.2648 59.6539 49.6797 63.462C49.5438 64.2526 49.1286 64.9708 48.5073 65.4901C47.886 66.0094 47.0983 66.2966 46.2828 66.3011H33.5444C32.7252 66.3102 31.9302 66.0279 31.306 65.5062C30.6818 64.9844 30.2703 64.2585 30.1475 63.462C29.544 59.6596 27.7651 56.132 25.0522 53.3582C21.4298 49.6455 19.3672 44.7244 19.2774 39.5802C19.2607 36.9156 19.7779 34.2738 20.7995 31.8056C21.8211 29.3375 23.3271 27.0914 25.2315 25.1956C29.0777 21.3667 34.3132 19.1971 39.7862 19.1639C45.2593 19.1306 50.5216 21.2366 54.4155 25.0184C58.3094 28.8003 60.516 33.9482 60.5498 39.3297ZM42.2914 27.1384C42.2926 26.842 42.234 26.5483 42.1192 26.2743C42.0044 26.0002 41.8355 25.7512 41.6224 25.5417C41.4092 25.3321 41.156 25.1661 40.8773 25.0532C40.5986 24.9402 40.3 24.8827 39.9985 24.8838C36.0584 24.8882 32.2809 26.4292 29.4949 29.1687C26.7088 31.9082 25.1416 35.6225 25.1371 39.4967C25.1371 40.0947 25.3787 40.6682 25.8087 41.091C26.2387 41.5138 26.8219 41.7513 27.43 41.7513C28.0381 41.7513 28.6213 41.5138 29.0513 41.091C29.4813 40.6682 29.7229 40.0947 29.7229 39.4967C29.7229 36.8392 30.7966 34.2905 32.7077 32.4113C34.6188 30.5321 37.2109 29.4764 39.9136 29.4764C40.5402 29.4636 41.1374 29.2132 41.5806 28.7775C42.0237 28.3417 42.2784 27.7544 42.2914 27.1384ZM39.9985 12.5254C40.3 12.5265 40.5986 12.4689 40.8773 12.356C41.156 12.2431 41.4092 12.0771 41.6224 11.8675C41.8355 11.6579 42.0044 11.409 42.1192 11.1349C42.234 10.8609 42.2926 10.5672 42.2914 10.2708V2.25457C42.2914 1.65662 42.0499 1.08316 41.6199 0.660349C41.1899 0.237534 40.6066 0 39.9985 0C39.3904 0 38.8072 0.237534 38.3772 0.660349C37.9472 1.08316 37.7056 1.65662 37.7056 2.25457V10.2708C37.7045 10.5672 37.763 10.8609 37.8779 11.1349C37.9927 11.409 38.1616 11.6579 38.3747 11.8675C38.5878 12.0771 38.841 12.2431 39.1197 12.356C39.3984 12.4689 39.6971 12.5265 39.9985 12.5254ZM12.7384 39.3297C12.7395 39.0334 12.681 38.7397 12.5661 38.4656C12.4513 38.1916 12.2825 37.9426 12.0693 37.7331C11.8562 37.5235 11.603 37.3575 11.3243 37.2445C11.0456 37.1316 10.7469 37.0741 10.4455 37.0752H2.29291C1.68479 37.0752 1.10158 37.3127 0.671577 37.7355C0.241574 38.1583 0 38.7318 0 39.3297C0 39.9277 0.241574 40.5011 0.671577 40.924C1.10158 41.3468 1.68479 41.5843 2.29291 41.5843H10.4455C11.0502 41.5736 11.6271 41.3326 12.0547 40.9121C12.4824 40.4916 12.7275 39.9243 12.7384 39.3297ZM77.7041 37.0752H69.5516C68.9435 37.0752 68.3602 37.3127 67.9302 37.7355C67.5002 38.1583 67.2587 38.7318 67.2587 39.3297C67.2587 39.9277 67.5002 40.5011 67.9302 40.924C68.3602 41.3468 68.9435 41.5843 69.5516 41.5843H77.7041C78.0056 41.5854 78.3042 41.5278 78.5829 41.4149C78.8616 41.302 79.1148 41.136 79.328 40.9264C79.5411 40.7168 79.71 40.4679 79.8248 40.1938C79.9396 39.9198 79.9982 39.6261 79.9971 39.3297C80.0129 39.0295 79.9645 38.7294 79.8549 38.4488C79.7453 38.1682 79.5769 37.9134 79.3608 37.7008C79.1446 37.4883 78.8854 37.3227 78.6 37.215C78.3147 37.1072 78.0094 37.0596 77.7041 37.0752ZM17.4091 58.2848L11.6344 63.963C11.4169 64.1714 11.2433 64.4198 11.1235 64.6941C11.0037 64.9684 10.94 65.2633 10.936 65.5618C10.9321 65.8603 10.988 66.1567 11.1005 66.434C11.2131 66.7113 11.38 66.964 11.5919 67.1779C11.8038 67.3917 12.0565 67.5624 12.3355 67.6802C12.6144 67.798 12.9143 67.8607 13.2179 67.8646C13.831 67.8724 14.4223 67.6404 14.8614 67.2196L20.6362 61.5414C20.8575 61.3298 21.0335 61.0766 21.1536 60.7969C21.2738 60.5173 21.3357 60.2167 21.3357 59.9131C21.3357 59.6095 21.2738 59.309 21.1536 59.0293C21.0335 58.7497 20.8575 58.4965 20.6362 58.2848C20.1987 57.8821 19.6219 57.6581 19.0227 57.6581C18.4234 57.6581 17.8466 57.8821 17.4091 58.2848ZM60.9744 21.0427C61.5804 21.0359 62.1595 20.7961 62.5879 20.3746L68.3627 14.6965C68.7728 14.259 68.995 13.6825 68.9826 13.0876C68.9703 12.4927 68.7245 11.9255 68.2966 11.5048C67.8687 11.0841 67.2919 10.8423 66.6869 10.8302C66.0819 10.8181 65.4956 11.0366 65.0507 11.4399L59.2759 17.118C59.0546 17.3297 58.8786 17.5829 58.7585 17.8625C58.6383 18.1422 58.5764 18.4427 58.5764 18.7463C58.5764 19.0499 58.6383 19.3505 58.7585 19.6301C58.8786 19.9098 59.0546 20.163 59.2759 20.3746C59.7458 20.7848 60.3465 21.0211 60.9744 21.0427ZM17.4091 20.3746C17.8483 20.7954 18.4395 21.0274 19.0527 21.0196C19.6658 21.0118 20.2507 20.7647 20.6786 20.3329C21.1066 19.901 21.3425 19.3197 21.3346 18.7168C21.3266 18.1139 21.0754 17.5388 20.6362 17.118L14.8614 11.4399C14.4165 11.0366 13.8302 10.8181 13.2252 10.8302C12.6202 10.8423 12.0434 11.0841 11.6155 11.5048C11.1876 11.9255 10.9418 12.4927 10.9295 13.0876C10.9172 13.6825 11.1393 14.259 11.5495 14.6965L17.4091 20.3746ZM62.5879 58.2848C62.143 57.8816 61.5567 57.6631 60.9517 57.6752C60.3467 57.6873 59.7699 57.929 59.342 58.3498C58.9141 58.7705 58.6683 59.3377 58.656 59.9325C58.6437 60.5274 58.8658 61.1039 59.2759 61.5414L65.0507 67.2196C65.2682 67.428 65.5252 67.5922 65.8072 67.7028C66.0892 67.8135 66.3906 67.8684 66.6942 67.8646C66.9978 67.8607 67.2977 67.798 67.5767 67.6802C67.8557 67.5624 68.1083 67.3917 68.3202 67.1779C68.5321 66.964 68.6991 66.7113 68.8116 66.434C68.9242 66.1567 68.9801 65.8603 68.9761 65.5618C68.9722 65.2633 68.9085 64.9684 68.7886 64.6941C68.6688 64.4198 68.4952 64.1714 68.2777 63.963L62.5879 58.2848Z" fill="#5F5EAA"/>
</svg>
