<svg width="53" height="92" viewBox="0 0 53 92" fill="none" xmlns="http://www.w3.org/2000/svg">
<path fill-rule="evenodd" clip-rule="evenodd" d="M6.58385 0H46.7453C50.3665 0 53 2.66667 53 6.33333V85.3333C53 89 50.3665 92 46.7453 92H6.58385C4.83931 91.9947 3.16771 91.2907 1.93412 90.0416C0.700538 88.7925 0.00521022 87.0998 0 85.3333V6.33333C0 2.66667 2.96273 0 6.58385 0ZM26.6646 36.6667C28.3106 32.6667 30.2857 31 33.9068 31C35.8223 31.0174 37.6544 31.7956 39.0089 33.1671C40.3633 34.5386 41.1319 36.3938 41.1491 38.3333C41.1491 46 33.9068 53.3333 26.6646 60.6667C19.0932 53.3333 11.8509 46 11.8509 38.3333C11.8681 36.3938 12.6366 34.5386 13.9911 33.1671C15.3456 31.7956 17.1777 31.0174 19.0932 31C22.7143 31 24.6894 32.6667 26.6646 36.6667ZM21.7267 1.66667H31.2733C31.4479 1.66667 31.6154 1.7369 31.7388 1.86193C31.8623 1.98695 31.9317 2.15652 31.9317 2.33333C31.9317 2.51014 31.8623 2.67971 31.7388 2.80474C31.6154 2.92976 31.4479 3 31.2733 3H21.7267C21.0683 3 21.0683 1.66667 21.7267 1.66667ZM26.6646 84.3333C27.2506 84.3333 27.8234 84.5093 28.3106 84.8389C28.7978 85.1686 29.1776 85.6371 29.4018 86.1853C29.626 86.7335 29.6847 87.3367 29.5704 87.9186C29.4561 88.5005 29.1739 89.0351 28.7596 89.4547C28.3452 89.8742 27.8173 90.1599 27.2426 90.2757C26.6679 90.3914 26.0722 90.332 25.5308 90.105C24.9894 89.8779 24.5267 89.4934 24.2012 89C23.8756 88.5067 23.7019 87.9267 23.7019 87.3333C23.7019 86.5377 24.014 85.7746 24.5696 85.212C25.1252 84.6494 25.8788 84.3333 26.6646 84.3333ZM9.54658 5.33333H43.4534C46.7453 5.33333 49.0497 7.66667 49.0497 10.6667V77.6667C49.0497 81 46.7453 83.3333 43.4534 83.3333H9.54658C8.80984 83.34 8.07916 83.198 7.39721 82.9156C6.71527 82.6332 6.09572 82.216 5.57474 81.6885C5.05376 81.1609 4.64179 80.5336 4.36288 79.8431C4.08398 79.1526 3.94372 78.4127 3.95031 77.6667V10.6667C3.95031 7.66667 6.58385 5.33333 9.54658 5.33333Z" fill="#5F5EAA"/>
</svg>
