<svg width="104" height="35" viewBox="0 0 104 35" fill="none" xmlns="http://www.w3.org/2000/svg">
<path fill-rule="evenodd" clip-rule="evenodd" d="M0 3.18182C0 0 3.25 0 22.75 0H35.75C48.75 0 45.5 3.18182 52 3.18182C58.5 3.18182 55.25 0 68.25 0H81.25C100.75 0 104 0 104 3.18182V6.36364C104 9.54545 101.682 7.28636 100.75 12.7273C97.5 31.8182 94.25 35 78 35H74.75C74.75 35 61.75 35 58.5 25.4545C54.2642 13.003 56.6475 12.7273 52 12.7273C47.3525 12.7273 49.7358 13.003 45.5 25.4545C42.25 35 29.25 35 29.25 35H26C9.75 35 6.5 31.8182 3.25 12.7273C2.31833 7.28636 0 9.54545 0 6.36364V3.18182ZM99.125 3.18182C98.8036 3.18182 98.4894 3.27512 98.2222 3.44994C97.955 3.62475 97.7467 3.87321 97.6237 4.16391C97.5007 4.45461 97.4685 4.77449 97.5312 5.0831C97.5939 5.39171 97.7487 5.67518 97.976 5.89767C98.2032 6.12016 98.4928 6.27168 98.808 6.33307C99.1232 6.39445 99.4499 6.36295 99.7469 6.24253C100.044 6.12212 100.298 5.91821 100.476 5.65659C100.655 5.39496 100.75 5.08738 100.75 4.77273C100.75 4.35079 100.579 3.94614 100.274 3.64778C99.9693 3.34943 99.556 3.18182 99.125 3.18182ZM4.875 3.18182C4.55361 3.18182 4.23943 3.27512 3.9722 3.44994C3.70497 3.62475 3.49669 3.87321 3.3737 4.16391C3.2507 4.45461 3.21852 4.77449 3.28122 5.0831C3.34392 5.39171 3.49869 5.67518 3.72595 5.89767C3.95321 6.12016 4.24276 6.27168 4.55798 6.33307C4.8732 6.39445 5.19993 6.36295 5.49686 6.24253C5.79379 6.12212 6.04758 5.91821 6.22614 5.65659C6.4047 5.39496 6.5 5.08738 6.5 4.77273C6.5 4.35079 6.3288 3.94614 6.02405 3.64778C5.7193 3.34943 5.30598 3.18182 4.875 3.18182Z" fill="#5F5EAA"/>
</svg>
