<svg width="33" height="33" viewBox="0 0 33 33" fill="none" xmlns="http://www.w3.org/2000/svg">
<circle cx="16.5" cy="16.5" r="16.5" fill="#5F5EAA"/>
<g clip-path="url(#clip0_960_1069)">
<path d="M16.4875 28.2077C23.018 28.2077 28.3121 22.9137 28.3121 16.3831C28.3121 9.85254 23.018 4.55847 16.4875 4.55847C9.95691 4.55847 4.66284 9.85254 4.66284 16.3831C4.66284 22.9137 9.95691 28.2077 16.4875 28.2077Z" fill="white"/>
<path d="M16.5021 29.9996C13.8311 30.0006 11.2199 29.2094 8.99866 27.7261C6.77742 26.2428 5.04598 24.1341 4.02339 21.6666C3.0008 19.1991 2.733 16.4838 3.25384 13.8641C3.77468 11.2444 5.06078 8.83807 6.94944 6.94942C8.83809 5.06076 11.2444 3.77468 13.8641 3.25384C16.4838 2.733 19.1991 3.00081 21.6666 4.0234C24.1341 5.04599 26.2428 6.77741 27.7261 8.99864C29.2094 11.2199 30.0006 13.8311 29.9996 16.5021C29.9943 20.0802 28.5706 23.5103 26.0405 26.0405C23.5103 28.5706 20.0802 29.9943 16.5021 29.9996ZM21.0527 11.0204C20.8558 11.0204 20.6633 11.0788 20.4995 11.1883C20.3358 11.2977 20.2081 11.4532 20.1328 11.6351C20.0574 11.8171 20.0377 12.0173 20.0761 12.2105C20.1145 12.4036 20.2093 12.5811 20.3486 12.7203C20.4879 12.8596 20.6653 12.9544 20.8585 12.9928C21.0516 13.0313 21.2518 13.0115 21.4338 12.9362C21.6157 12.8608 21.7712 12.7332 21.8807 12.5694C21.9901 12.4057 22.0485 12.2132 22.0485 12.0162C22.0485 11.7521 21.9436 11.4988 21.7568 11.3121C21.5701 11.1254 21.3168 11.0204 21.0527 11.0204ZM16.6117 12.305C15.7815 12.305 14.9701 12.5511 14.2798 13.0123C13.5896 13.4735 13.0517 14.129 12.734 14.8959C12.4163 15.6629 12.3332 16.5068 12.4952 17.3209C12.6571 18.1351 13.0568 18.8829 13.6438 19.4699C14.2308 20.0569 14.9786 20.4566 15.7928 20.6186C16.607 20.7805 17.4509 20.6974 18.2178 20.3797C18.9847 20.0621 19.6402 19.5241 20.1014 18.8339C20.5626 18.1437 20.8088 17.3322 20.8088 16.5021C20.8075 15.3894 20.3648 14.3226 19.578 13.5357C18.7912 12.7489 17.7244 12.3063 16.6117 12.305ZM16.6117 19.1857C16.0797 19.1857 15.5597 19.0279 15.1174 18.7322C14.6752 18.4366 14.3306 18.0164 14.1273 17.5248C13.9239 17.0333 13.871 16.4924 13.9751 15.9708C14.0793 15.4491 14.3358 14.9701 14.7123 14.5943C15.0888 14.2185 15.5683 13.9628 16.0902 13.8596C16.612 13.7565 17.1528 13.8104 17.644 14.0147C18.1351 14.2189 18.5547 14.5643 18.8495 15.0071C19.1443 15.4499 19.3012 15.9701 19.3002 16.5021C19.2989 17.2143 19.015 17.8969 18.511 18.4C18.0069 18.9031 17.3238 19.1857 16.6117 19.1857ZM25.0756 13.012C25.0756 11.6545 24.5363 10.3527 23.5765 9.39285C22.6166 8.433 21.3148 7.89377 19.9574 7.89377H13.2061C11.8487 7.89377 10.5469 8.433 9.58704 9.39285C8.62719 10.3527 8.08793 11.6545 8.08793 13.012V19.7682C8.08793 21.1256 8.62719 22.4275 9.58704 23.3873C10.5469 24.3471 11.8487 24.8864 13.2061 24.8864H19.9624C21.3198 24.8864 22.6216 24.3471 23.5815 23.3873C24.5413 22.4275 25.0806 21.1256 25.0806 19.7682L25.0756 13.012ZM23.4724 19.7682C23.4724 20.7004 23.1021 21.5945 22.4429 22.2537C21.7837 22.9129 20.8896 23.2832 19.9574 23.2832H13.2061C12.2739 23.2832 11.3798 22.9129 10.7206 22.2537C10.0614 21.5945 9.69111 20.7004 9.69111 19.7682V13.012C9.69111 12.0797 10.0614 11.1857 10.7206 10.5265C11.3798 9.86727 12.2739 9.49693 13.2061 9.49693H19.9624C20.8946 9.49693 21.7887 9.86727 22.4479 10.5265C23.1071 11.1857 23.4774 12.0797 23.4774 13.012L23.4724 19.7682Z" fill="#5F5EAA"/>
</g>
<defs>
<clipPath id="clip0_960_1069">
<rect width="27" height="27" fill="white" transform="translate(3 3)"/>
</clipPath>
</defs>
</svg>
