<svg width="33" height="33" viewBox="0 0 33 33" fill="none" xmlns="http://www.w3.org/2000/svg">
<g clip-path="url(#clip0_960_960)">
<path d="M16.4962 33.0061C13.2322 33.0061 10.0415 32.0382 7.32763 30.2248C4.61372 28.4114 2.49848 25.834 1.24941 22.8185C0.000331872 19.8029 -0.326506 16.4847 0.310266 13.2835C0.947039 10.0822 2.51882 7.14164 4.8268 4.83365C7.13479 2.52566 10.0754 0.95388 13.2766 0.317107C16.4779 -0.319666 19.7961 0.00715409 22.8116 1.25623C25.8272 2.5053 28.4046 4.62054 30.218 7.33445C32.0313 10.0484 32.9992 13.239 32.9992 16.503C32.9944 20.8784 31.2542 25.0733 28.1603 28.1671C25.0664 31.261 20.8716 33.0013 16.4962 33.0061V33.0061Z" fill="#5F5EAA"/>
<path d="M24.6001 17.5531V22.7175C24.5988 22.7785 24.5736 22.8365 24.53 22.8792C24.4864 22.9219 24.4278 22.9458 24.3667 22.9458H21.7034C21.6424 22.9458 21.5838 22.9219 21.5402 22.8792C21.4965 22.8365 21.4714 22.7785 21.4701 22.7175V17.9184C21.4701 16.6552 21.0186 15.7928 19.8873 15.7928C19.535 15.7947 19.192 15.9054 18.905 16.1097C18.6181 16.314 18.4013 16.602 18.2842 16.9342C18.2056 17.1799 18.1712 17.4375 18.1827 17.6952V22.7175C18.1814 22.7785 18.1562 22.8365 18.1126 22.8792C18.069 22.9219 18.0104 22.9458 17.9494 22.9458H15.2861C15.2255 22.9458 15.1674 22.9217 15.1246 22.8789C15.0818 22.8361 15.0578 22.778 15.0578 22.7175C15.0578 21.4391 15.0882 15.2348 15.0578 13.7788C15.0571 13.7484 15.0625 13.7182 15.0737 13.6899C15.0848 13.6616 15.1016 13.6358 15.1228 13.6141C15.1441 13.5924 15.1695 13.5751 15.1975 13.5633C15.2255 13.5515 15.2556 13.5454 15.2861 13.5455H17.9443C17.9747 13.5448 18.005 13.5502 18.0332 13.5614C18.0615 13.5725 18.0873 13.5892 18.109 13.6105C18.1308 13.6318 18.148 13.6572 18.1598 13.6852C18.1716 13.7132 18.1777 13.7433 18.1777 13.7737V14.8797V14.9101V14.8797C18.4599 14.3876 18.8716 13.9823 19.3679 13.7078C19.8643 13.4332 20.4264 13.2999 20.9932 13.3222C23.0528 13.3222 24.595 14.6666 24.595 17.5531H24.6001ZM10.4312 22.9255H13.0945C13.1555 22.9255 13.2141 22.9016 13.2577 22.8589C13.3014 22.8162 13.3266 22.7582 13.3279 22.6972V13.794C13.3266 13.733 13.3014 13.675 13.2577 13.6323C13.2141 13.5896 13.1555 13.5657 13.0945 13.5657H10.4312C10.3706 13.5657 10.3126 13.5898 10.2698 13.6326C10.2269 13.6754 10.2029 13.7335 10.2029 13.794V22.7378C10.2125 22.791 10.2407 22.8391 10.2825 22.8735C10.3244 22.9079 10.377 22.9263 10.4312 22.9255V22.9255Z" fill="white"/>
<path d="M11.6741 12.3482C12.5987 12.3482 13.3482 11.5987 13.3482 10.6741C13.3482 9.74952 12.5987 9 11.6741 9C10.7495 9 10 9.74952 10 10.6741C10 11.5987 10.7495 12.3482 11.6741 12.3482Z" fill="white"/>
</g>
<defs>
<clipPath id="clip0_960_960">
<rect width="33" height="33" fill="white"/>
</clipPath>
</defs>
</svg>
