<svg width="289" height="322" viewBox="0 0 289 322" fill="none" xmlns="http://www.w3.org/2000/svg">
<g clip-path="url(#clip0_960_988)">
<path d="M115.1 299.316C115.257 301.537 124.407 322.052 124.407 322.052L173.848 320.898L179.674 293.265L115.1 299.316Z" fill="#467390"/>
<path d="M103.728 299.036C132.639 306.513 163.214 304.188 190.661 292.425C189.856 261.311 189.768 211.029 189.768 211.029L101.786 217.045L103.728 299.036Z" fill="#70A6C9"/>
<path d="M101.786 216.958C101.915 217.404 102.109 217.828 102.363 218.217C103.605 220.211 106.16 220.875 108.486 221.313C134.915 226.316 162.184 224.51 187.721 216.066C188.296 215.957 188.841 215.727 189.32 215.393C189.799 215.058 190.203 214.626 190.503 214.125C190.643 213.579 190.649 213.009 190.521 212.46C190.393 211.912 190.135 211.403 189.768 210.976C187.371 207.688 183.033 206.586 179.026 205.939C164.336 203.709 149.391 203.745 134.711 206.044C127.329 207.111 120.016 208.598 112.773 210.347C110.201 210.941 100.369 212.166 101.786 216.958Z" fill="#467390"/>
<path d="M147.465 217.308C145.261 219.529 143.109 221.802 140.992 224.094H143.407C144.019 223.411 144.631 222.729 145.261 222.065C153.079 213.911 161.356 206.209 170.051 198.996C170.384 198.734 170.716 198.471 171.031 198.192C171.164 198.277 171.319 198.323 171.477 198.323C171.636 198.323 171.79 198.277 171.923 198.192C183.404 192.263 195.78 188.257 208.558 186.334C211.85 191.976 216.965 196.331 223.061 198.681C234.975 203.386 248.254 200.832 260.343 198.209C267.703 196.342 275.215 195.13 282.789 194.589C283.402 194.589 283.979 193.837 283.559 193.277C271.907 177.536 257.596 163.37 240.416 153.768C231.872 148.898 222.606 145.42 212.967 143.467C207.718 142.452 202.05 142.033 196.976 144.061C194.918 144.807 193.043 145.984 191.477 147.514C189.911 149.043 188.69 150.889 187.896 152.929C186.147 158.053 188.176 163.632 191.553 167.602C193.771 170.091 196.42 172.158 199.373 173.706C199.293 173.731 199.216 173.766 199.146 173.811C181.213 187.488 163.211 201.252 147.465 217.308ZM199.95 175.42C200.113 175.294 200.231 175.118 200.284 174.919C200.338 174.72 200.325 174.509 200.248 174.318C201.997 175.298 203.939 176.067 205.776 176.994C205.889 179.693 206.531 182.343 207.666 184.795C196.522 186.537 185.679 189.84 175.457 194.606C183.453 188.048 191.71 181.716 199.95 175.42Z" fill="#8FC0E0"/>
<path d="M280.672 124.193C276.92 117.325 272.041 111.136 266.239 105.882C263.397 103.282 260.33 100.941 257.072 98.8859C253.975 96.9796 250.214 95.388 246.575 95.9652C244.722 96.3483 243.049 97.333 241.815 98.766C240.581 100.199 239.855 102 239.752 103.888C239.227 108.558 241.676 112.825 243.985 116.69C242.618 117.586 241.585 118.908 241.046 120.451C240.275 122.975 240.507 125.7 241.693 128.058C242.26 129.331 242.933 130.554 243.705 131.714L228.817 146.79C228.03 147.594 229.272 148.836 230.059 148.032L244.738 133.148C246.794 135.74 249.142 138.088 251.736 140.144C259.871 146.825 269.668 151.32 277.121 158.875C281.346 162.873 284.22 168.087 285.344 173.794C285.483 174.668 286.831 174.598 287.093 173.794C291.16 157.035 288.872 139.365 280.672 124.193V124.193Z" fill="#6C9EBF"/>
<path d="M158.347 78.1258C157.508 73.3162 153.939 69.9407 150.247 67.1074C145.518 63.6085 141.008 59.8237 136.741 55.7742C132.355 51.4596 128.346 46.7787 124.757 41.7825C124.638 41.6059 124.457 41.4808 124.25 41.4327C129.498 34.0346 131.143 23.8208 126.279 15.8105C121.993 8.81473 113.508 4.7222 105.512 7.74789C102.256 8.95004 99.4883 11.1943 97.6397 14.1316C96.8118 10.4973 94.8942 7.20216 92.1432 4.68637C89.3921 2.17058 85.9386 0.553922 82.2441 0.0524524C77.8956 -0.40998 73.5243 0.689124 69.912 3.15315C66.2998 5.61718 63.6821 9.28543 62.5272 13.5019C61.3674 18.3035 60.7454 23.2191 60.6727 28.1582C60.2923 33.8729 59.4439 39.5469 58.136 45.123C57.4886 47.9738 56.7014 50.7722 55.8091 53.553C55.0918 55.8266 54.2346 58.0653 53.5698 60.3739C52.4676 64.2741 51.6803 68.9613 54.0071 72.6166C56.7189 76.8491 62.0199 77.3738 66.5511 76.3943C72.1145 75.1701 76.9606 71.4448 82.7864 71.3398C79.7578 73.995 77.4168 77.3433 75.9634 81.099C74.5158 85.7734 73.8479 90.6541 73.9864 95.5454C73.9652 100.741 73.4141 105.922 72.3419 111.006C70.8687 116.005 69.7808 121.109 69.0878 126.275C68.4755 134.302 72.132 144.691 81.0894 146.265C81.1877 146.283 81.2885 146.283 81.3868 146.265C81.5166 146.332 81.6616 146.364 81.8076 146.358C81.9535 146.352 82.0953 146.308 82.2189 146.23C82.3426 146.152 82.4439 146.044 82.5127 145.915C82.5815 145.786 82.6156 145.641 82.6115 145.495C82.6115 140.546 87.0552 137.066 91.359 135.736C93.0762 135.23 94.8314 134.861 96.6075 134.635C95.5291 147.217 97.2128 159.883 101.541 171.747C105.886 183.719 112.78 194.603 121.748 203.648C126.419 208.388 132.402 213.862 131.93 221.138C131.93 222.275 133.679 222.257 133.679 221.138C134.082 215.016 130.18 209.944 126.192 205.729C123.987 203.386 121.678 201.182 119.543 198.734C117.384 196.311 115.374 193.758 113.525 191.091C106.297 180.659 101.437 168.775 99.2842 156.269H99.3892C106.999 149.3 112.492 140.33 115.24 130.385C122.21 127.237 128.594 122.925 134.117 117.635C138.101 113.859 141.802 109.797 145.191 105.479C148.643 101.347 151.805 96.9821 154.656 92.4148C157.175 88.1298 159.222 83.1628 158.347 78.1258ZM98.9693 154.258C98.0195 147.714 97.8375 141.081 98.427 134.495C101.48 134.207 104.512 133.734 107.507 133.078C109.419 132.611 111.3 132.027 113.14 131.329C110.467 140.063 105.586 147.96 98.9693 154.258Z" fill="#6396B7"/>
<path d="M112.213 217.867C102.789 206.561 90.3263 198.187 76.2957 193.732C72.3015 192.453 68.204 191.523 64.0492 190.951C64.041 188.568 63.5339 186.214 62.5607 184.039C61.5875 181.864 60.1696 179.917 58.3983 178.323C58.493 178.249 58.5756 178.161 58.6433 178.061C61.25 173.566 63.8918 168.652 64.1017 163.335C64.1656 161.077 63.6627 158.84 62.6389 156.826C61.6151 154.813 60.1031 153.088 58.2409 151.809C49.6858 145.88 38.1041 149.815 30.5988 155.587C22.5161 161.813 17.3726 170.838 13.6811 180.177C9.61358 190.883 6.33901 201.872 3.88391 213.058C2.36973 219.108 1.2015 225.239 0.384905 231.422C-0.227421 236.826 0.0175086 242.51 2.97416 247.25C3.05162 247.38 3.1617 247.488 3.2936 247.563C3.4255 247.638 3.57467 247.678 3.72645 247.678C3.87823 247.678 4.0274 247.638 4.1593 247.563C4.2912 247.488 4.40128 247.38 4.47874 247.25C11.4767 234.78 24.9654 228.553 37.0194 222.117C43.4196 218.941 49.3775 214.943 54.7419 210.224C59.2906 205.957 63.1045 200.465 63.9443 194.151C63.9443 193.662 63.9443 193.172 64.0492 192.682C78.3084 194.78 91.6664 200.923 102.538 210.382C105.597 213.058 108.43 215.983 111.006 219.127C111.688 219.984 112.913 218.724 112.213 217.867Z" fill="#96D0F6"/>
<path d="M110.988 47.3093C106.543 38.3641 98.9847 31.3489 89.7318 27.5811C92.2744 24.293 94.8812 21.0574 97.5521 17.8743C98.2694 17.0173 97.0447 15.7756 96.3099 16.6326C94.0356 19.3376 91.8079 22.0893 89.6268 24.8876C88.4404 19.6364 86.1897 14.684 83.0137 10.3363C82.3664 9.42688 80.8444 10.3363 81.5092 11.2108C84.7904 15.7025 87.0585 20.8519 88.1573 26.3043C83.6208 21.0066 77.6195 17.1672 70.9072 15.2684C70.6752 15.2081 70.4287 15.2424 70.222 15.3638C70.0153 15.4851 69.8653 15.6836 69.805 15.9155C69.7447 16.1474 69.779 16.3938 69.9004 16.6004C70.0218 16.8071 70.2203 16.9571 70.4523 17.0174C77.0552 18.8893 82.9316 22.7264 87.3 28.0183C80.8251 36.5142 74.8493 45.3788 69.4026 54.5674C67.1633 58.3451 65.0289 62.1754 62.9645 66.0405C62.4396 67.0374 63.9442 67.9294 64.469 66.9325C65.8686 64.3091 67.3032 61.7148 68.7728 59.1497C69.5177 62.5007 69.7068 65.9512 69.3326 69.3635C69.3326 69.5955 69.4248 69.8179 69.5888 69.9819C69.7529 70.1459 69.9754 70.238 70.2074 70.238C70.438 70.2335 70.6579 70.14 70.821 69.977C70.9841 69.8139 71.0777 69.5941 71.0821 69.3635C71.48 65.6487 71.2434 61.8932 70.3823 58.2577C70.3499 58.0863 70.2588 57.9315 70.1248 57.8198C69.9907 57.7082 69.822 57.6466 69.6476 57.6456C71.4845 54.445 73.4265 51.2969 75.4034 48.1837C76.3833 53.7082 76.3833 59.3618 75.4034 64.8862C75.1935 65.9881 76.8905 66.4603 77.1529 65.3585C78.3078 59.1705 78.2721 52.8192 77.0479 46.6446C77.0197 46.4837 76.9399 46.3364 76.8205 46.2249C77.4678 45.2105 78.1676 44.2311 78.8324 43.2342C80.3885 49.8063 80.9779 56.5701 80.5819 63.3122C80.5819 64.4315 82.3314 64.4315 82.3314 63.3122C82.3314 62.9624 82.3314 62.6126 82.3314 62.2628C82.5962 55.2561 81.8239 48.2488 80.0396 41.4678C80.0056 41.3773 79.9647 41.2895 79.9171 41.2054C81.1068 39.4564 82.3139 37.7075 83.5386 35.9585C85.942 39.1274 87.6852 42.746 88.6648 46.6003C89.6445 50.4546 89.8407 54.4662 89.242 58.3976C89.0692 58.4429 88.9188 58.5496 88.819 58.6976C88.7192 58.8457 88.6768 59.025 88.6996 59.2021C88.6996 59.7793 88.6996 60.3739 88.7871 60.9511C88.7722 61.0659 88.78 61.1826 88.8102 61.2944C88.8403 61.4062 88.8922 61.511 88.9629 61.6027C89.1056 61.788 89.3161 61.9091 89.5481 61.9392C89.7801 61.9694 90.0146 61.9062 90.2 61.7635C90.3853 61.6208 90.5064 61.4104 90.5366 61.1785C91.3536 57.7439 91.5843 54.1961 91.2189 50.6847C92.5361 50.532 93.8686 50.7851 95.0379 51.4102C96.2073 52.0353 97.1577 53.0026 97.762 54.1826C97.878 54.3844 98.0695 54.5319 98.2942 54.5925C98.5189 54.6532 98.7586 54.6221 98.9604 54.5062C99.1623 54.3902 99.3098 54.1989 99.3705 53.9742C99.4312 53.7495 99.4001 53.5099 99.2841 53.3082C98.5192 51.8612 97.3397 50.6755 95.8966 49.9027C94.4536 49.13 92.8126 48.8055 91.1839 48.9707C91.1084 48.9608 91.032 48.9608 90.9565 48.9707C90.1813 43.8905 88.1553 39.0825 85.0607 34.9791C84.9125 34.793 84.7005 34.6684 84.4658 34.6293C85.8479 32.6705 87.265 30.7466 88.7171 28.8228C88.807 28.9674 88.9424 29.0781 89.102 29.1376C97.9839 32.7658 105.233 39.5147 109.484 48.1138C109.974 49.1981 111.478 48.3062 110.988 47.3093Z" fill="#467391"/>
<path d="M118.091 39.5265L117.531 38.2323C117.491 38.1141 117.42 38.0093 117.324 37.9291C117.228 37.8489 117.112 37.7965 116.989 37.7775C114.186 33.7999 110.419 30.5994 106.04 28.4763C101.66 26.3532 96.8136 25.3772 91.9538 25.6398C90.8341 25.6398 90.8166 27.3887 91.9538 27.3887C96.8574 27.098 101.747 28.1574 106.09 30.4517C110.433 32.746 114.064 36.1872 116.587 40.4009C117.164 41.3978 118.529 40.5758 118.091 39.5265Z" fill="#467391"/>
<path d="M123.865 29.6272C119.542 24.7262 114.037 21.0115 107.874 18.8362C110.67 16.535 113.859 14.7575 117.287 13.5893C118.336 13.2221 117.881 11.5431 116.814 11.8404C110.117 14.1279 104.353 18.5445 100.404 24.4154C99.774 25.3598 101.296 26.1643 101.926 25.3073C103.307 23.2462 104.941 21.3661 106.79 19.7107C106.795 19.8826 106.854 20.0487 106.957 20.1863C107.06 20.3239 107.203 20.4266 107.367 20.4802C113.254 22.5713 118.511 26.1289 122.64 30.8166C123.375 31.7085 124.617 30.4667 123.865 29.6272Z" fill="#467391"/>
<path d="M81.8942 33.7199C79.9478 32.8398 77.8426 32.3648 75.7067 32.3239C73.5708 32.283 71.449 32.6771 69.4703 33.482C67.4916 34.287 65.6974 35.4861 64.197 37.0063C62.6966 38.5265 61.5214 40.336 60.7428 42.3248V42.3248C60.7062 42.3914 60.6769 42.4617 60.6553 42.5346C60.2704 43.4791 61.74 44.0212 62.2473 43.1992L62.8597 42.2023C62.9217 42.1179 62.9634 42.0204 62.9816 41.9172C62.9998 41.8141 62.994 41.7082 62.9646 41.6077C64.6322 38.49 67.4042 36.1072 70.7376 34.9263C74.071 33.7455 77.7253 33.8516 80.9845 35.224C82.0342 35.6612 82.9264 34.1571 81.8942 33.7199Z" fill="#467391"/>
<path d="M83.6612 29.9071C79.385 25.7852 73.8311 23.2435 67.9157 22.7014C66.796 22.579 66.796 24.3454 67.9157 24.4503C73.3653 24.9791 78.4763 27.3335 82.419 31.1314C83.2238 31.9184 84.4835 30.6766 83.6612 29.9071Z" fill="#467391"/>
<path d="M77.048 38.8268C68.7061 42.7827 62.138 49.7041 58.6258 58.2402C58.1884 59.2896 59.8854 59.7443 60.3753 58.7124C63.7638 50.6111 70.0514 44.0635 78.0102 40.3484C78.955 39.8587 78.0627 38.3546 77.048 38.8268Z" fill="#467391"/>
<path d="M64.0141 59.5694C63.8972 59.3709 63.7068 59.2265 63.484 59.1675C63.2613 59.1086 63.0242 59.1399 62.8244 59.2546C60.5694 60.6679 58.7095 62.6295 57.4185 64.9563C57.3599 65.0562 57.3216 65.1666 57.3057 65.2814C57.2898 65.3961 57.2967 65.5128 57.3259 65.6248C57.3552 65.7369 57.4062 65.8421 57.4761 65.9344C57.546 66.0268 57.6335 66.1045 57.7334 66.163C57.8333 66.2216 57.9438 66.2599 58.0586 66.2758C58.1733 66.2916 58.2901 66.2848 58.4022 66.2555C58.6286 66.1965 58.8222 66.05 58.9405 65.8482C60.0627 63.771 61.7016 62.018 63.6992 60.7588C63.8978 60.642 64.0423 60.4515 64.1012 60.2288C64.1602 60.0061 64.1289 59.7692 64.0141 59.5694V59.5694Z" fill="#467390"/>
<path d="M148.218 85.8736C148.125 85.8556 148.03 85.8556 147.938 85.8736C144.196 83.4111 141.465 79.6871 140.24 75.3798C142.63 74.6671 144.751 73.2536 146.328 71.3222C147.045 70.4653 145.803 69.206 145.103 70.098C143.971 71.5564 142.477 72.6947 140.771 73.4009C139.064 74.1071 137.203 74.357 135.37 74.1258C133.538 73.8946 131.797 73.1903 130.32 72.0823C128.842 70.9744 127.679 69.5009 126.944 67.8069V67.8069C128.028 67.2647 129.113 66.705 130.233 66.2153C131.352 65.7256 130.373 64.239 129.34 64.6937C128.308 65.1485 127.066 65.7781 125.946 66.3552C124.874 64.8451 124.226 63.0754 124.069 61.23C123.912 59.3846 124.252 57.5309 125.054 55.8615C125.562 54.8646 124.057 53.9726 123.55 54.987C122.594 56.9213 122.171 59.0752 122.325 61.2271C122.479 63.3789 123.203 65.4509 124.424 67.2297C122.173 68.454 119.986 69.7774 117.864 71.1999C117.891 71.0022 117.841 70.8015 117.724 70.6402C116.237 68.5041 115.376 65.9961 115.237 63.3978C115.098 60.7995 115.687 58.2139 116.937 55.9315C116.994 55.8316 117.031 55.7213 117.046 55.6071C117.061 55.4928 117.053 55.3767 117.023 55.2655C116.993 55.1542 116.941 55.05 116.871 54.9587C116.8 54.8674 116.713 54.7909 116.613 54.7334C116.513 54.676 116.403 54.6388 116.288 54.624C116.174 54.6092 116.058 54.617 115.947 54.6471C115.835 54.6771 115.731 54.7288 115.64 54.7991C115.548 54.8695 115.472 54.9571 115.414 55.057C114.014 57.6067 113.349 60.4944 113.491 63.3995C113.633 66.3046 114.577 69.1136 116.219 71.5147C116.288 71.6211 116.381 71.7099 116.49 71.7737C116.6 71.8375 116.723 71.8746 116.849 71.8819C114.18 73.744 111.616 75.7525 109.169 77.8983C109.115 77.689 108.983 77.5078 108.801 77.3911C102.401 73.3319 94.8559 71.4599 87.3 72.0568C86.1978 72.1443 86.1803 73.8932 87.3 73.8058C94.5369 73.2229 101.766 75.0159 107.892 78.9128V78.9128C106.842 79.8922 105.81 80.8716 104.795 81.8859C104.658 81.7523 104.478 81.6717 104.288 81.6586C99.403 81.2465 94.5113 82.3652 90.2916 84.8592C90.0898 84.9775 89.9432 85.171 89.8842 85.3974C89.8251 85.6237 89.8584 85.8642 89.9767 86.066C90.095 86.2677 90.2887 86.4142 90.5151 86.4733C90.7415 86.5323 90.982 86.4991 91.1839 86.3808C94.8825 84.1973 99.1401 83.1454 103.43 83.3551C102.783 84.0372 102.136 84.7193 101.523 85.4189C99.3707 87.8415 97.3611 90.3876 95.5051 93.0443C95.5034 92.8101 95.4177 92.5842 95.2636 92.4077C95.1095 92.2313 94.8973 92.1158 94.6654 92.0824C88.2264 91.4064 81.7195 91.8262 75.4209 93.3241C74.3362 93.5865 74.7911 95.2655 75.8932 95.0731C82.0576 93.627 88.4217 93.2308 94.7179 93.9013C94.8271 93.9279 94.9411 93.9279 95.0503 93.9013C93.4932 96.1924 92.0236 98.536 90.6765 100.897C86.5867 101.41 82.7053 102.995 79.4267 105.493C76.1481 107.99 73.589 111.31 72.0094 115.116C71.5895 116.148 73.269 116.603 73.7589 115.571C75.1537 112.292 77.3394 109.41 80.1206 107.182C82.9018 104.954 86.1919 103.45 89.6968 102.803C87.619 106.808 85.864 110.972 84.4483 115.256L84.2384 116.008C84.0699 115.851 83.8479 115.763 83.6173 115.763C83.3867 115.763 83.1647 115.851 82.9962 116.008C78.148 120.191 74.5616 125.642 72.6392 131.749C72.5986 131.95 72.6288 132.159 72.7247 132.341C72.8206 132.523 72.9763 132.666 73.1656 132.746C73.3548 132.826 73.566 132.839 73.7633 132.781C73.9607 132.724 74.1321 132.6 74.2487 132.431L74.9485 131.294C75.0343 131.171 75.0803 131.024 75.0803 130.874C75.0803 130.724 75.0343 130.578 74.9485 130.454C76.8006 125.55 79.8 121.161 83.696 117.652C82.0427 123.108 80.9753 128.725 80.5119 134.407C80.4245 135.526 82.174 135.509 82.2614 134.407C83.2267 123.011 86.5955 111.948 92.1461 101.946C94.3323 97.9731 96.8364 94.1829 99.634 90.6132C102.061 96.4266 102.42 102.897 100.649 108.942C98.8992 114.854 94.7529 119.838 93.6507 126.012C93.4582 127.114 95.1552 127.586 95.4002 126.484C96.3165 122.581 97.802 118.833 99.8089 115.361C99.7919 115.448 99.7919 115.537 99.8089 115.623C101.308 119.237 103.388 122.581 105.967 125.522C106.719 126.362 107.944 125.12 107.209 124.281C104.816 121.571 102.883 118.487 101.488 115.151C101.423 114.932 101.276 114.746 101.077 114.632C100.879 114.518 100.644 114.485 100.421 114.539C100.292 114.585 100.173 114.656 100.071 114.749C101.136 112.698 101.98 110.541 102.591 108.313C104.158 101.936 103.542 95.2175 100.841 89.2316L100.736 89.0916C104.605 84.3227 108.988 79.9942 113.805 76.1843C117.441 73.3092 121.323 70.7577 125.404 68.5589C125.404 68.5589 125.404 68.5589 125.404 68.6639C126.283 70.5613 127.622 72.2094 129.299 73.4585C130.976 74.7077 132.939 75.5184 135.009 75.8171C136.169 75.9845 137.348 75.9845 138.508 75.8171C139.969 80.9944 143.405 85.391 148.078 88.0598C148.267 88.1598 148.486 88.1884 148.695 88.1402C148.904 88.0921 149.088 87.9704 149.215 87.7974C149.331 87.6119 149.396 87.3995 149.405 87.181C149.414 86.9625 149.365 86.7456 149.265 86.5515C149.164 86.3573 149.014 86.1927 148.831 86.0739C148.647 85.955 148.436 85.886 148.218 85.8736V85.8736Z" fill="#467391"/>
<path d="M112.475 73.1764C110.781 70.6145 108.419 68.5635 105.644 67.2444C102.869 65.9253 99.7874 65.3881 96.7299 65.6908C95.6278 65.8132 95.6103 67.5622 96.7299 67.4397C99.4893 67.1232 102.283 67.5747 104.802 68.7444C107.321 69.914 109.468 71.7563 111.006 74.0683C111.496 74.9952 113.018 74.1208 112.475 73.1764Z" fill="#467390"/>
<path d="M106.825 57.2783C106.72 60.4964 106.632 63.7319 106.527 66.9675C106.527 68.0868 108.277 68.0868 108.277 66.9675C108.382 63.7319 108.469 60.4964 108.574 57.2783C108.574 57.0464 108.482 56.8239 108.318 56.6599C108.154 56.496 107.931 56.4038 107.699 56.4038C107.467 56.4038 107.245 56.496 107.081 56.6599C106.917 56.8239 106.825 57.0464 106.825 57.2783Z" fill="#467390"/>
<path d="M137.406 85.0517C133.377 79.3933 127.268 75.5629 120.418 74.4006C119.316 74.2257 118.844 75.9047 119.963 76.1495C125.791 77.1017 131.078 80.1265 134.852 84.6669C134.747 84.6751 134.645 84.7041 134.552 84.7522C134.459 84.8002 134.376 84.8664 134.309 84.9468C131.279 88.5198 129.145 92.7634 128.083 97.3258C127.021 101.888 127.062 106.638 128.203 111.181C128.266 111.413 128.418 111.611 128.627 111.73C128.835 111.85 129.082 111.882 129.314 111.819C129.546 111.757 129.744 111.605 129.864 111.396C129.983 111.188 130.016 110.941 129.953 110.709C128.885 106.472 128.84 102.042 129.823 97.7845C130.805 93.527 132.787 89.5643 135.604 86.2235C135.699 86.1067 135.765 85.9688 135.796 85.8212C135.849 85.8811 135.895 85.9455 135.936 86.0136C137.905 88.8308 139.255 92.0327 139.897 95.4089C140.54 98.785 140.46 102.259 139.663 105.602C139.4 106.704 141.097 107.159 141.412 106.074C142.26 102.485 142.341 98.7583 141.651 95.136C140.96 91.5137 139.514 88.0775 137.406 85.0517V85.0517Z" fill="#467391"/>
<path d="M120.138 84.9992C118.738 82.1278 117.018 79.4232 115.012 76.9366C114.295 76.0621 113.07 77.3038 113.77 78.1783C118.086 83.6359 120.95 90.0972 122.094 96.9598C123.238 103.822 122.626 110.863 120.313 117.425C119.928 118.492 121.625 118.946 122.063 117.897C125.802 107.109 125.11 95.2782 120.138 84.9992V84.9992Z" fill="#467391"/>
<path d="M106.09 84.9992C105.425 84.1072 103.903 84.9992 104.585 85.8737C108.341 90.9037 110.787 96.7883 111.703 102.998C112.619 109.208 111.977 115.548 109.834 121.447C109.449 122.514 111.146 122.969 111.583 121.92C113.784 115.79 114.434 109.211 113.475 102.77C112.517 96.328 109.98 90.2233 106.09 84.9992V84.9992Z" fill="#467391"/>
<path d="M44.5248 180.877C41.7385 177.4 39.895 173.265 39.1718 168.869C38.4486 164.473 38.8702 159.965 40.396 155.779C40.7809 154.73 39.1013 154.275 38.6465 155.325C36.9966 159.863 36.5918 164.761 37.4743 169.509C35.8242 168.74 34.3966 167.565 33.3256 166.093C32.2545 164.622 31.575 162.902 31.3511 161.096C31.3466 160.866 31.253 160.646 31.0899 160.483C30.9268 160.32 30.7069 160.226 30.4763 160.222C30.2457 160.226 30.0258 160.32 29.8627 160.483C29.6996 160.646 29.606 160.866 29.6016 161.096C29.8495 163.384 30.7214 165.559 32.1222 167.385C33.5229 169.211 35.3985 170.617 37.5443 171.45C37.6643 171.485 37.7917 171.485 37.9117 171.45C38.8693 175.333 40.6602 178.961 43.1602 182.084C44 182.993 45.2246 181.734 44.5248 180.877Z" fill="#467391"/>
<path d="M37.5967 185.896C35.2757 184.661 33.2807 182.893 31.7754 180.737C30.27 178.582 29.2972 176.1 28.9367 173.496C28.9241 173.268 28.8279 173.053 28.6665 172.892C28.5051 172.731 28.2898 172.634 28.0619 172.622C27.6246 172.622 27.1172 173.042 27.1872 173.496C27.5412 176.421 28.5919 179.218 30.251 181.652C31.9101 184.087 34.1291 186.088 36.722 187.488C37.7017 187.925 38.5939 186.421 37.5967 185.896Z" fill="#467391"/>
<path d="M29.4965 192.822C27.9839 191.688 26.7326 190.242 25.8271 188.583C24.9216 186.923 24.3831 185.089 24.248 183.203C24.248 182.084 22.4985 182.066 22.4985 183.203C22.6368 185.386 23.2501 187.512 24.2956 189.433C25.3411 191.355 26.7937 193.025 28.5518 194.326C28.7516 194.441 28.9886 194.472 29.2114 194.413C29.4341 194.355 29.6246 194.21 29.7415 194.012C29.8626 193.82 29.9048 193.589 29.8591 193.368C29.8135 193.146 29.6835 192.95 29.4965 192.822V192.822Z" fill="#467391"/>
<path d="M28.8144 200.045C28.0796 199.188 26.855 200.43 27.5723 201.287C29.7153 203.878 31.1457 206.983 31.7225 210.296C32.2992 213.608 32.0024 217.013 30.8613 220.176C30.4764 221.243 32.1735 221.697 32.6108 220.648C33.8228 217.18 34.11 213.456 33.4443 209.844C32.7786 206.231 31.1829 202.854 28.8144 200.045V200.045Z" fill="#467391"/>
<path d="M56.5965 190.986C55.7198 187.217 53.5152 183.889 50.3858 181.611C52.1353 180.597 54.0772 179.635 55.9842 178.743C56.9989 178.271 56.1066 176.767 55.0919 177.239C53.4649 177.991 51.8728 178.831 50.2983 179.67C50.3857 179.534 50.4322 179.377 50.4322 179.215C50.4322 179.054 50.3857 178.896 50.2983 178.761C48.5432 175.082 47.6047 171.067 47.5474 166.991C47.49 162.916 48.315 158.876 49.9659 155.15C50.4208 154.135 48.9162 153.243 48.4613 154.258C46.6633 158.259 45.7615 162.605 45.8189 166.992C45.8763 171.378 46.8916 175.699 48.7937 179.653C48.8508 179.784 48.9468 179.895 49.0688 179.97C49.1909 180.045 49.333 180.081 49.476 180.072L48.4438 180.632C48.2766 180.627 48.1113 180.669 47.9663 180.753C47.8212 180.836 47.7019 180.958 47.6216 181.104C40.0687 185.518 33.1726 190.97 27.1349 197.299L26.5401 196.338C26.6244 196.217 26.6696 196.074 26.6696 195.927C26.6696 195.78 26.6244 195.636 26.5401 195.516C25.9389 194.671 25.2783 193.87 24.5631 193.12L24.3182 192.735C24.2077 192.562 24.0409 192.432 23.8458 192.367C22.8184 191.356 21.6798 190.464 20.4518 189.709C20.0337 186.093 18.6161 182.665 16.358 179.81C16.2767 179.728 16.1799 179.663 16.0733 179.619C15.9667 179.574 15.8524 179.551 15.7369 179.551C15.6214 179.551 15.5071 179.574 15.4005 179.619C15.2939 179.663 15.1971 179.728 15.1158 179.81C14.9556 179.973 14.8658 180.193 14.8658 180.422C14.8658 180.651 14.9556 180.871 15.1158 181.034C16.8436 183.26 18.008 185.87 18.5099 188.642C17.7054 188.239 16.8756 187.888 16.0256 187.593C14.9584 187.243 14.486 188.922 15.5532 189.342C16.7086 189.731 17.8222 190.235 18.8773 190.846C18.9519 191.012 19.0758 191.152 19.2322 191.245C19.3886 191.339 19.57 191.383 19.752 191.371C20.9822 192.162 22.1103 193.102 23.111 194.169L25.9277 198.681C25.3854 199.258 24.8431 199.835 24.3182 200.43C23.3194 199.081 22.0311 197.972 20.5477 197.185C19.0643 196.398 17.4235 195.953 15.7456 195.883C14.626 195.883 14.626 197.632 15.7456 197.632C17.2381 197.677 18.6981 198.078 20.0037 198.802C21.3094 199.526 22.4228 200.552 23.251 201.794C22.2013 203.036 21.1691 204.313 20.1719 205.625C20.2202 205.465 20.2262 205.296 20.1894 205.133C20.1526 204.971 20.0742 204.821 19.9619 204.698C18.9054 203.423 17.562 202.416 16.0417 201.759C14.5214 201.103 12.8672 200.815 11.2144 200.92C10.9838 200.924 10.7639 201.018 10.6009 201.181C10.4378 201.344 10.3442 201.564 10.3397 201.794C10.3442 202.025 10.4378 202.245 10.6009 202.408C10.7639 202.571 10.9838 202.664 11.2144 202.669C12.638 202.563 14.0659 202.804 15.3761 203.37C16.6862 203.937 17.8395 204.812 18.7373 205.922C18.8933 206.069 19.0999 206.152 19.3146 206.152C19.5294 206.152 19.736 206.069 19.892 205.922C18.6848 207.513 17.5651 209.14 16.393 210.801C15.6664 210.15 14.8117 209.659 13.8837 209.357C12.9557 209.056 11.975 208.952 11.0045 209.052V209.052L10.4971 209.14C9.7642 209.239 9.0539 209.463 8.39775 209.805C8.19915 209.921 8.05468 210.112 7.99572 210.334C7.93675 210.557 7.96806 210.794 8.08284 210.994H8.17031C8.21912 211.099 8.28993 211.192 8.37794 211.267C8.46594 211.342 8.56907 211.397 8.6803 211.428C8.79153 211.46 8.90826 211.467 9.02252 211.449C9.13679 211.432 9.24592 211.39 9.34248 211.326C9.93706 210.979 10.5994 210.765 11.2844 210.696H11.7218H12.0367H12.1767C12.5543 210.77 12.9235 210.881 13.2789 211.029C13.3659 211.072 13.4617 211.094 13.5588 211.094C13.6559 211.094 13.7517 211.072 13.8387 211.029C14.4674 211.277 15.0346 211.659 15.5007 212.148C13.8212 214.783 12.27 217.494 10.847 220.281C9.9738 219.872 9.01193 219.688 8.04927 219.746C7.08662 219.804 6.15384 220.102 5.33612 220.613C5.13968 220.736 4.99768 220.93 4.93916 221.154C4.88063 221.378 4.90998 221.616 5.02121 221.82C5.13806 222.018 5.32855 222.163 5.5513 222.222C5.77405 222.281 6.01107 222.249 6.21087 222.135C6.37979 222.025 6.55504 221.926 6.73572 221.837H6.85818L7.13811 221.732L7.62797 221.592H7.8554H9.01007L9.58741 221.732L9.86733 221.82H9.9548L9.79735 222.135C7.16437 227.63 5.07826 233.371 3.56912 239.274C3.5088 239.506 3.54312 239.753 3.66451 239.959C3.78591 240.166 3.98444 240.316 4.21644 240.376C4.44844 240.437 4.6949 240.402 4.90159 240.281C5.10829 240.16 5.25831 239.961 5.31863 239.729C6.80247 233.904 8.87157 228.243 11.4944 222.834C13.0484 226.143 13.654 229.818 13.2439 233.45C13.2439 233.905 13.6812 234.325 14.1186 234.325C14.3465 234.312 14.5618 234.216 14.7232 234.055C14.8846 233.893 14.9808 233.678 14.9934 233.45C15.418 229.336 14.6401 225.187 12.754 221.505C12.6826 221.367 12.5734 221.251 12.4391 221.173C13.8674 218.355 15.4382 215.611 17.1453 212.953C17.2847 212.839 17.3881 212.687 17.4427 212.515C18.9472 210.207 20.5218 207.951 22.2188 205.799C23.5369 208.303 24.3737 211.032 24.6856 213.845C24.6106 213.829 24.5332 213.829 24.4582 213.845C21.7528 214.817 19.5032 216.755 18.1431 219.287C16.7831 221.819 16.4089 224.765 17.0928 227.556C17.1554 227.788 17.3076 227.986 17.516 228.106C17.7243 228.225 17.9717 228.257 18.2037 228.195C18.4357 228.132 18.6333 227.98 18.7531 227.772C18.8728 227.563 18.9049 227.316 18.8423 227.084C18.2843 224.754 18.5923 222.3 19.7091 220.18C20.8259 218.06 22.6753 216.417 24.913 215.559C24.9888 217.617 24.7828 219.677 24.3007 221.68C24.0558 222.764 25.7353 223.236 26.0502 222.135C27.4471 216.264 26.6442 210.086 23.7934 204.768C23.7107 204.609 23.5743 204.485 23.4085 204.418C26.802 200.213 30.5478 196.304 34.6053 192.735C36.8174 195.527 38.3628 198.787 39.1238 202.266C39.8848 205.745 39.8412 209.353 38.9965 212.813C38.7341 213.897 40.4136 214.369 40.746 213.285C41.6635 209.541 41.7117 205.637 40.8869 201.872C40.0621 198.107 38.3861 194.581 35.9874 191.563C37.4744 190.339 38.979 189.132 40.5186 188.065C43.144 186.15 45.8651 184.37 48.6713 182.731C50.4443 183.788 51.9483 185.241 53.0654 186.977C54.1824 188.713 54.882 190.683 55.1094 192.735C54.9717 192.693 54.8249 192.69 54.6857 192.727C54.5466 192.764 54.4206 192.839 54.3221 192.945C52.0286 195.19 50.2941 197.942 49.258 200.98C48.2219 204.017 47.913 207.256 48.3563 210.434C48.5138 211.553 50.2108 211.081 50.1058 209.979C49.728 207.148 50.0046 204.268 50.9145 201.561C51.8244 198.853 53.3432 196.39 55.3543 194.361C55.5946 198.686 55.283 203.023 54.4271 207.269C54.2347 208.37 55.9142 208.843 56.1766 207.723C57.0339 202.337 58.0311 196.565 56.5965 190.986Z" fill="#467391"/>
<path d="M280.305 190.181C274.009 185.093 267.111 180.799 259.766 177.396C261.96 177.338 264.095 178.106 265.749 179.548C265.916 179.709 266.138 179.799 266.37 179.799C266.602 179.799 266.825 179.709 266.991 179.548C267.152 179.384 267.241 179.164 267.241 178.936C267.241 178.707 267.152 178.487 266.991 178.323C265.833 177.291 264.461 176.528 262.972 176.09C261.484 175.651 259.917 175.548 258.384 175.787C258.222 175.826 258.076 175.915 257.966 176.04C257.857 176.165 257.789 176.321 257.771 176.487C253.504 174.607 249.115 173.017 244.633 171.73C244.887 171.75 245.139 171.668 245.332 171.502C246.52 170.617 247.962 170.138 249.444 170.138C250.925 170.138 252.368 170.617 253.555 171.502C253.653 171.562 253.763 171.6 253.876 171.617C253.99 171.633 254.106 171.626 254.217 171.597C254.328 171.567 254.431 171.516 254.522 171.446C254.613 171.375 254.689 171.288 254.745 171.188C254.86 170.988 254.891 170.751 254.832 170.528C254.773 170.306 254.628 170.115 254.43 169.998C252.916 168.912 251.088 168.35 249.225 168.397C247.362 168.445 245.565 169.099 244.108 170.261C244.026 170.342 243.961 170.439 243.916 170.545C243.872 170.652 243.849 170.766 243.849 170.882C243.849 170.997 243.872 171.111 243.916 171.218C243.961 171.324 244.026 171.421 244.108 171.502C244.172 171.57 244.249 171.624 244.335 171.66C236.802 169.531 229.046 168.293 221.224 167.97C215.201 167.733 209.17 168.049 203.204 168.914C202.102 169.089 202.575 170.768 203.677 170.663C208.728 169.938 213.83 169.622 218.932 169.719C216.528 171.674 214.853 174.383 214.18 177.408C213.507 180.433 213.875 183.596 215.224 186.386C215.731 187.4 217.253 186.508 216.746 185.512C215.466 182.842 215.241 179.788 216.116 176.959C219.03 180.742 220.433 185.474 220.052 190.234C220.052 191.353 221.802 191.353 221.802 190.234C222.202 184.728 220.417 179.287 216.833 175.088C217.581 173.477 218.703 172.068 220.105 170.978C220.285 170.836 220.407 170.634 220.449 170.408C220.491 170.183 220.449 169.95 220.332 169.753C226.396 169.96 232.427 170.721 238.352 172.027L238.177 172.115C236.477 173.608 235.106 175.438 234.15 177.489C233.194 179.54 232.674 181.767 232.623 184.028C232.572 186.29 232.991 188.538 233.854 190.63C234.716 192.722 236.004 194.611 237.635 196.18C238.299 196.827 239.682 198.244 240.486 196.932C240.595 196.753 240.648 196.545 240.64 196.335C240.631 196.126 240.56 195.923 240.437 195.754C240.314 195.584 240.143 195.454 239.947 195.38C239.75 195.307 239.536 195.293 239.332 195.341C237.756 193.975 236.493 192.286 235.627 190.39C234.762 188.493 234.314 186.433 234.314 184.349C234.314 182.264 234.762 180.204 235.627 178.307C236.493 176.411 237.756 174.722 239.332 173.356C239.402 173.288 239.457 173.206 239.495 173.116C239.533 173.026 239.552 172.929 239.552 172.832C239.552 172.734 239.533 172.637 239.495 172.547C239.457 172.457 239.402 172.375 239.332 172.307C241.589 172.832 243.828 173.426 246.032 174.056C243.608 177.2 242.5 181.164 242.944 185.109C243.388 189.055 245.349 192.673 248.412 195.201C249.286 195.9 250.528 194.676 249.654 193.959C246.859 191.723 245.063 188.471 244.66 184.915C244.257 181.359 245.278 177.788 247.502 174.983C247.596 174.874 247.656 174.74 247.677 174.598C249.269 175.105 250.843 175.665 252.4 176.242C251.513 179.614 251.534 183.16 252.462 186.521C253.39 189.882 255.192 192.937 257.684 195.376C258.489 196.163 259.713 194.938 258.909 194.151C256.69 191.932 255.09 189.172 254.267 186.144C253.445 183.116 253.428 179.926 254.22 176.889C257.072 178.026 259.853 179.32 262.583 180.719C261.762 183.603 261.783 186.66 262.641 189.532C263.499 192.404 265.161 194.972 267.429 196.932C268.286 197.649 269.546 196.408 268.671 195.691C266.669 193.988 265.187 191.756 264.395 189.251C263.603 186.745 263.533 184.067 264.192 181.524L264.437 181.646C269.604 184.447 274.5 187.72 279.063 191.423C279.92 192.123 281.18 190.986 280.305 190.181Z" fill="#467391"/>
<path d="M212.669 166.291C210.322 164.714 208.544 162.424 207.599 159.76C206.653 157.095 206.591 154.197 207.421 151.494C207.771 150.41 206.074 149.955 205.671 151.022C204.977 153.366 204.871 155.845 205.362 158.239C205.853 160.634 206.927 162.87 208.488 164.752C206.09 163.25 204.123 161.152 202.78 158.663C201.437 156.173 200.763 153.378 200.825 150.55C200.825 149.413 199.076 149.413 199.076 150.55C199 154.136 200 157.663 201.945 160.677C203.89 163.69 206.693 166.054 209.993 167.462C210.076 167.506 210.167 167.531 210.26 167.536C210.353 167.542 210.447 167.528 210.534 167.495C210.622 167.462 210.702 167.411 210.768 167.345C210.834 167.279 210.886 167.2 210.92 167.113L211.795 167.725C212.739 168.407 213.614 166.903 212.669 166.291Z" fill="#467391"/>
<path d="M230.479 171.607C228.371 175.291 227.21 179.441 227.1 183.683C226.99 187.926 227.935 192.13 229.849 195.918C230.357 196.915 231.861 196.023 231.354 195.026C229.594 191.51 228.73 187.614 228.84 183.684C228.95 179.753 230.03 175.911 231.984 172.499C232.097 172.3 232.128 172.064 232.069 171.843C232.011 171.621 231.867 171.431 231.67 171.314C231.473 171.197 231.237 171.162 231.015 171.217C230.792 171.272 230.6 171.412 230.479 171.607Z" fill="#467391"/>
<path d="M229.849 160.152C227.978 159.329 225.905 159.08 223.892 159.438C221.88 159.797 220.019 160.745 218.548 162.163C218.067 160.576 217.93 158.905 218.148 157.261C218.365 155.617 218.931 154.039 219.807 152.631C220.42 151.687 218.915 150.795 218.303 151.739C216.835 154.083 216.137 156.826 216.306 159.586C216.476 162.346 217.504 164.983 219.247 167.13C219.947 167.987 221.189 166.745 220.472 165.888C219.995 165.291 219.589 164.639 219.265 163.947C220.435 162.596 222.002 161.648 223.742 161.24C225.483 160.831 227.308 160.983 228.957 161.673C229.161 161.784 229.399 161.814 229.623 161.755C229.847 161.697 230.041 161.555 230.164 161.358C230.28 161.156 230.312 160.916 230.253 160.691C230.194 160.465 230.049 160.272 229.849 160.152Z" fill="#467391"/>
<path d="M240.504 164.542C239.571 163.911 238.517 163.48 237.41 163.276C236.302 163.073 235.164 163.101 234.068 163.359C232.971 163.617 231.94 164.099 231.039 164.775C230.139 165.451 229.388 166.307 228.835 167.287C228.327 168.284 229.832 169.176 230.339 168.162C230.776 167.379 231.373 166.697 232.091 166.16C232.808 165.623 233.631 165.242 234.505 165.042C235.379 164.843 236.285 164.829 237.165 165.002C238.045 165.175 238.878 165.53 239.612 166.046C239.711 166.107 239.821 166.147 239.935 166.165C240.05 166.183 240.167 166.178 240.28 166.151C240.393 166.123 240.499 166.073 240.592 166.004C240.685 165.934 240.764 165.847 240.823 165.747C240.882 165.648 240.921 165.537 240.937 165.422C240.953 165.307 240.946 165.19 240.916 165.078C240.887 164.965 240.835 164.86 240.764 164.768C240.693 164.676 240.605 164.599 240.504 164.542V164.542Z" fill="#467391"/>
<path d="M285.991 155.849C286.131 152.357 285.525 148.876 284.213 145.637C282.901 142.397 280.912 139.475 278.381 137.066C278.246 136.942 278.077 136.864 277.896 136.84C277.715 136.816 277.531 136.848 277.369 136.932C277.207 137.016 277.074 137.147 276.989 137.309C276.904 137.47 276.871 137.654 276.893 137.835C276.544 136.926 276.194 136.086 275.809 135.177C274.687 132.654 273.303 130.257 271.68 128.023C273.471 128.551 275.118 129.48 276.495 130.741C277.871 132.002 278.941 133.561 279.623 135.299C279.682 135.504 279.812 135.681 279.991 135.798C280.169 135.915 280.384 135.964 280.595 135.937C280.807 135.909 281.002 135.807 281.144 135.648C281.287 135.49 281.368 135.285 281.372 135.072C281.372 134.687 281.372 134.302 281.372 133.917C281.383 133.797 281.366 133.676 281.321 133.564C281.277 133.452 281.207 133.352 281.116 133.272C281.026 133.192 280.918 133.135 280.802 133.104C280.685 133.073 280.563 133.07 280.445 133.095C279.376 131.162 277.87 129.503 276.048 128.253C274.226 127.002 272.137 126.193 269.948 125.89C267.601 123.137 264.832 120.776 261.743 118.894C264.49 120.12 267.566 120.403 270.49 119.698C270.722 119.638 270.921 119.488 271.042 119.281C271.164 119.075 271.198 118.828 271.138 118.597C271.077 118.365 270.927 118.166 270.721 118.045C270.514 117.923 270.267 117.889 270.035 117.949C267.956 118.429 265.786 118.345 263.75 117.705C261.714 117.066 259.885 115.894 258.454 114.312C258.346 114.171 258.191 114.074 258.017 114.039C257.844 114.004 257.663 114.032 257.509 114.119C256.939 113.505 256.524 112.763 256.3 111.956C256.076 111.148 256.048 110.299 256.219 109.479C256.39 108.658 256.756 107.891 257.285 107.241C257.813 106.591 258.49 106.077 259.259 105.742C260.273 105.252 259.381 103.748 258.366 104.238C257.315 104.745 256.407 105.507 255.726 106.454C255.045 107.402 254.611 108.505 254.465 109.662C254.319 110.82 254.465 111.996 254.89 113.083C255.315 114.17 256.004 115.133 256.897 115.886C257.021 115.989 257.172 116.057 257.332 116.082C257.492 116.107 257.656 116.087 257.806 116.026C258.428 116.676 259.114 117.262 259.853 117.775C259.398 117.547 258.944 117.285 258.489 117.075C256.912 116.346 255.272 115.76 253.59 115.326C253.684 115.169 253.721 114.984 253.695 114.803C253.67 114.622 253.583 114.455 253.45 114.329C252.007 112.838 251.174 110.862 251.112 108.788C251.051 106.714 251.766 104.692 253.118 103.118C253.888 102.296 252.645 101.055 251.893 101.894C250.319 103.692 249.433 105.99 249.395 108.379C249.356 110.768 250.167 113.094 251.683 114.941C250.122 114.693 248.54 114.594 246.96 114.644C246.931 114.54 246.89 114.44 246.837 114.347C244.755 110.971 242.323 107.071 243.198 102.926C243.335 102.064 243.664 101.244 244.161 100.527C244.657 99.8096 245.309 99.2128 246.067 98.7809C246.764 98.3851 247.555 98.1858 248.356 98.2043C249.157 98.2228 249.938 98.4583 250.616 98.8858C251.543 99.5154 252.365 97.9939 251.491 97.3817C250.65 96.8485 249.69 96.5339 248.697 96.4667C247.704 96.3995 246.709 96.5818 245.805 96.997C244.848 97.4081 243.992 98.021 243.294 98.7938C242.597 99.5666 242.075 100.481 241.763 101.474C240.171 106.196 242.638 110.831 245.053 114.784C243.95 114.924 243.933 116.673 245.053 116.533C247.696 116.232 250.372 116.391 252.96 117.005C251.392 118.604 250.423 120.694 250.216 122.924C250.008 125.154 250.576 127.387 251.823 129.248C251.941 129.449 252.135 129.596 252.361 129.655C252.588 129.714 252.828 129.681 253.03 129.562C253.232 129.444 253.379 129.251 253.438 129.024C253.497 128.798 253.464 128.557 253.345 128.356C252.238 126.752 251.759 124.797 251.997 122.863C252.236 120.929 253.176 119.149 254.64 117.862C254.73 117.786 254.802 117.69 254.85 117.582C256.368 118.034 257.843 118.619 259.259 119.331C259.144 119.425 259.054 119.545 258.996 119.681C258.038 122.092 257.584 124.673 257.662 127.266C257.741 129.859 258.349 132.408 259.451 134.757C259.923 135.771 261.428 134.879 260.956 133.865C259.98 131.718 259.452 129.395 259.404 127.038C259.356 124.68 259.789 122.338 260.676 120.153V120.153C262.782 121.405 264.737 122.896 266.501 124.595C266.956 125.05 267.394 125.505 267.831 125.977C267.734 126.07 267.659 126.183 267.611 126.308C267.563 126.433 267.544 126.568 267.554 126.701C267.564 126.835 267.603 126.965 267.669 127.082C267.735 127.198 267.826 127.299 267.936 127.376C267.876 127.406 267.822 127.448 267.779 127.499C265.637 130.263 264.453 133.648 264.406 137.144C264.359 140.64 265.45 144.056 267.516 146.877C268.181 147.752 269.703 146.877 269.021 145.985C267.155 143.497 266.147 140.472 266.147 137.363C266.147 134.254 267.155 131.228 269.021 128.74C269.157 128.572 269.232 128.362 269.232 128.146C269.232 127.929 269.157 127.719 269.021 127.551H269.248C271.727 130.683 273.726 134.167 275.179 137.888C275.097 137.937 275.025 138.002 274.969 138.08C273.394 140.461 272.554 143.253 272.554 146.108C272.554 148.962 273.394 151.754 274.969 154.135C275.599 155.062 277.121 154.135 276.474 153.261C275.169 151.307 274.425 149.034 274.323 146.687C274.221 144.34 274.765 142.01 275.896 139.951C276.713 142.31 277.385 144.716 277.908 147.157C278.875 152.142 279.46 157.194 279.658 162.268C279.658 163.387 281.407 163.405 281.407 162.268C281.21 154.035 279.74 145.882 277.051 138.097L277.173 138.255C279.733 140.68 281.696 143.665 282.91 146.975C284.124 150.285 284.556 153.831 284.171 157.336C284.066 158.368 285.589 158.438 285.921 157.563L286.253 156.636C286.297 156.494 286.295 156.342 286.248 156.201C286.201 156.06 286.111 155.937 285.991 155.849V155.849Z" fill="#467391"/>
</g>
<defs>
<clipPath id="clip0_960_988">
<rect width="289" height="322" fill="white"/>
</clipPath>
</defs>
</svg>
