<svg width="286" height="272" viewBox="0 0 286 272" fill="none" xmlns="http://www.w3.org/2000/svg">
<path d="M97.7999 272L81.5933 218.306C81.5933 218.306 136.466 217.16 142.824 218.306C149.182 219.451 207.833 221.43 207.833 221.43L191.535 270.216L97.7999 272Z" fill="#70A6C9"/>
<path d="M81.5933 218.306C81.5933 218.306 95.7936 197.226 98.9203 191.276C117.407 191.172 191.509 191.914 191.509 191.914C191.509 191.914 196.837 214.556 207.807 221.483C202.635 223.214 115.987 229.854 81.5933 218.306Z" fill="#467390"/>
<path d="M190.571 187.995C189.825 186.511 188.757 185.213 187.444 184.193C184.607 182.158 181.23 181.008 177.739 180.886C179.956 177.595 182.583 174.598 185.555 171.968C186.181 171.408 185.256 170.496 184.631 171.043C181.432 173.906 178.628 177.181 176.293 180.782C173.687 180.652 171.147 180.782 168.737 180.782C153.885 180.782 138.864 180.079 124.038 181.29C121.901 181.472 119.413 181.641 116.821 181.915C116.619 179.358 116.058 176.842 115.153 174.441C114.866 173.66 113.603 173.999 113.85 174.793C114.73 177.126 115.274 179.572 115.466 182.058C109.238 182.787 102.568 184.167 98.5295 187.592C97.4977 188.386 96.7782 189.518 96.4972 190.789C96.2161 192.06 96.3914 193.389 96.9923 194.544C100.106 200.455 110.698 199.648 116.234 200.143C135.308 202.006 154.493 202.472 173.635 201.536C179.875 201.184 191.6 200.716 191.509 191.953C191.499 190.58 191.178 189.227 190.571 187.995V187.995Z" fill="#2C6284"/>
<path d="M262.576 134.014C261.964 125.382 259.97 116.945 254.837 110.175C250.603 104.589 243.243 100.306 236.038 101.647C229.068 102.949 225.212 109.823 223.401 116.073C223.307 116.552 223.09 116.999 222.773 117.371C222.456 117.742 222.049 118.026 221.59 118.195C220.98 118.302 220.351 118.216 219.793 117.948C217.187 116.893 215.663 114.602 213.578 112.909C211.042 111.015 207.964 109.983 204.798 109.967C202.593 109.779 200.374 109.906 198.205 110.344C192.395 111.646 187.223 115.891 183.745 120.565C177.309 129.262 175.472 140.733 177.231 151.24C179.009 161.716 184.572 171.176 192.864 177.827C197.476 181.459 202.817 184.48 205.983 189.545C209.149 194.609 210.517 200.612 213.943 205.572C217.669 210.989 222.737 215.246 226.971 220.207C231.205 225.167 235.009 231.925 233.355 238.63C232.912 240.401 235.296 242.106 236.611 240.531C245.731 229.75 251.32 216.574 254.759 202.981C258.857 186.931 261.396 170.524 262.341 153.987C262.831 147.341 262.909 140.67 262.576 134.014V134.014Z" fill="#6396B7"/>
<path d="M282.014 21.3397C279.082 15.5979 273.897 10.4681 267.396 9.16606C260.479 7.77293 252.792 10.3899 249.535 16.978C247.724 20.6367 247.32 24.6598 246.461 28.5919C245.77 31.7036 244.689 35.0107 242.188 37.0678C241.814 30.2627 241.432 23.4533 241.041 16.6395C240.741 11.4315 240.103 5.26009 235.53 1.90094C230.606 -1.73163 224.014 0.40362 219.675 3.90599C214.829 7.81198 211.754 13.6189 209.826 19.4518C207.625 26.079 206.96 33.0707 205.918 39.9452C204.672 47.1771 203.032 54.3356 201.006 61.3891C199.182 68.1868 198.207 75.1839 198.101 82.221C198.151 89.0286 198.678 95.8243 199.678 102.558C201.71 117.844 204.889 133.52 201.762 148.896C201.462 150.407 203.065 152.164 204.628 151.11C218.959 141.071 233.29 131.137 247.542 120.994C253.968 116.617 259.961 111.639 265.442 106.126C270.561 100.756 274.708 94.5405 277.701 87.7545C283.707 74.1747 285.609 59.1106 285.922 44.4111C286.13 36.5471 285.635 28.4486 282.014 21.3397Z" fill="#96D0F6"/>
<path d="M100.601 90.9054C99.7932 87.5332 98.8682 84.1871 97.852 80.867C97.6045 80.0728 96.3408 80.4113 96.5492 81.2055C100.119 92.7504 102.374 104.661 103.272 116.711C103.532 120.122 103.68 123.538 103.715 126.958C103.715 127.13 103.783 127.296 103.905 127.418C104.028 127.54 104.193 127.609 104.366 127.609C104.539 127.609 104.704 127.54 104.827 127.418C104.949 127.296 105.017 127.13 105.017 126.958C104.891 114.813 103.41 102.721 100.601 90.9054V90.9054Z" fill="#2C6184"/>
<path d="M124.038 145.355C123.128 144.619 122.065 144.095 120.927 143.82C119.79 143.546 118.605 143.527 117.459 143.766C115.518 144.079 112.248 145.771 110.359 144.326C110.248 144.15 110.195 143.944 110.207 143.736C110.218 143.529 110.294 143.33 110.424 143.167C110.971 142.282 112.456 142.061 113.381 141.957C116.156 141.644 118.97 141.957 121.276 140.043C122.232 139.331 122.915 138.314 123.212 137.16C123.508 136.006 123.4 134.786 122.905 133.702C121.823 131.476 119.4 130.226 117.211 129.275C106.49 124.601 94.5561 127.452 84.6419 132.712C76.241 137.207 68.6606 143.088 62.221 150.107C63.107 143.748 64.8603 137.541 67.4321 131.658C70.7151 124.093 75.6266 117.193 77.7762 109.146C79.6783 102.05 79.2613 94.2645 74.3368 88.4706C72.2704 85.9376 69.3992 84.187 66.2 83.5097C63.0008 82.8323 59.666 83.2689 56.7493 84.7469C49.6621 88.2883 46.6136 95.8138 44.8288 103.118C44.6704 103.121 44.5129 103.142 44.3598 103.183C41.9105 101.881 43.9429 97.8059 44.9981 96.2826C47.1951 93.4049 49.1598 90.3573 50.8737 87.1686C53.5965 81.557 56.3584 73.8622 53.831 67.6387C51.2255 61.2589 43.9038 60.7771 38.1976 62.8473C32.3634 65.0669 27.0949 68.5533 22.7727 73.055C13.7834 82.1689 8.44204 94.5118 6.16216 106.998C3.20485 123.403 4.85938 140.082 5.75831 156.591C6.74842 173.751 6.90482 191.471 0.286679 207.655C-0.547102 209.686 2.24085 210.611 3.54364 209.556C16.1633 199.418 29.2214 189.87 42.7183 180.912C37.7917 193.133 34.7817 206.04 33.7942 219.178C33.6509 220.988 35.9699 221.574 37.1293 220.558C44.199 214.112 51.5909 208.028 59.2767 202.33C67.2706 196.777 75.851 192.118 84.8633 188.438C93.2793 184.857 101.799 181.446 109.512 176.355C116.404 171.785 123.465 165.523 126.539 157.633C127.985 153.505 127.686 148.388 124.038 145.355Z" fill="#8FC0E0"/>
<path d="M130.513 45.3485C129.106 42.7445 125.979 42.4581 123.308 42.9658C120.935 43.5103 118.641 44.3547 116.482 45.4787C115.757 45.9856 114.984 46.4217 114.176 46.7807C113.225 47.015 111.974 46.8458 113.199 45.7C114.86 44.1602 116.814 42.9693 118.944 42.1977C120.833 41.5076 122.931 41.3904 124.624 40.1796C126.878 38.5651 128.194 35.5966 126.696 33.0186C124.533 29.2558 119.426 29.3339 115.648 29.5423C111.696 29.7834 107.798 30.5767 104.066 31.8989C96.5276 34.6043 89.8024 39.1837 84.5245 45.2053C78.9355 51.585 75.5613 59.371 72.7994 67.3392C69.5815 76.7396 67.0671 86.5046 61.7909 95.0327C61.4652 95.5535 62.1426 96.3347 62.6768 95.918C75.444 86.2963 91.7028 83.7965 106.046 77.4167C112.86 74.383 119.413 70.3989 124.364 64.7482C126.924 61.9044 128.91 58.5931 130.213 54.9963C131.32 51.9757 132.076 48.265 130.513 45.3485Z" fill="#96D0F6"/>
<path d="M126.461 55.6864C123.338 56.1515 120.148 55.8361 117.177 54.7682C114.206 53.7004 111.545 51.9134 109.434 49.567L111.101 48.7337C111.857 48.3691 111.193 47.2364 110.437 47.601L108.222 48.7207L108.04 48.8118C108.086 48.6948 108.086 48.5644 108.04 48.4473C107.041 45.6282 106.879 42.5811 107.571 39.6718C107.664 39.6417 107.752 39.5978 107.831 39.5416C109.323 38.3952 111.065 37.6173 112.914 37.2711C114.764 36.925 116.669 37.0203 118.475 37.5495C118.648 37.5962 118.832 37.5723 118.987 37.4832C119.142 37.3941 119.256 37.247 119.302 37.0743C119.349 36.9017 119.325 36.7176 119.236 36.5625C119.147 36.4075 119 36.2942 118.827 36.2475C117.04 35.7311 115.165 35.5952 113.323 35.8487C111.48 36.1021 109.712 36.7392 108.131 37.7188C108.817 35.7868 109.89 34.0148 111.284 32.5108C111.857 31.8989 110.945 30.9745 110.372 31.5864C108.276 33.8412 106.835 36.6244 106.204 39.6365C105.572 42.6487 105.775 45.7759 106.789 48.6816C106.825 48.7938 106.891 48.8936 106.981 48.9696C107.071 49.0456 107.181 49.0947 107.297 49.1113C104.809 50.4133 102.412 51.8846 100.054 53.4079C99.9842 53.3339 99.8929 53.2838 99.7932 53.2646C99.6195 47.9265 99.4545 42.5926 99.2982 37.2631C99.2982 36.4298 97.9954 36.4298 97.9954 37.2631C98.1604 42.6013 98.3254 47.9438 98.4904 53.2907C98.4913 53.4342 98.5428 53.5728 98.6357 53.6823C98.7285 53.7918 98.857 53.8652 98.9985 53.8896C98.9921 53.9546 98.9921 54.02 98.9985 54.0849C97.8781 54.827 96.7707 55.5952 95.6764 56.3764C96.0672 52.7569 96.3278 48.5644 93.592 45.7782C91.4815 43.5778 87.6643 43.2523 85.7753 45.8433C85.2672 46.5203 86.4006 47.1453 86.8957 46.5073C87.2691 46.062 87.7493 45.7186 88.2915 45.5091C88.8338 45.2997 89.4203 45.231 89.9963 45.3095C90.6245 45.3867 91.2297 45.5946 91.7727 45.9198C92.3157 46.2449 92.7845 46.6801 93.149 47.1973C95.1292 49.8013 94.7514 53.3167 94.4518 56.3764C94.443 56.4481 94.4488 56.5209 94.469 56.5902C94.4891 56.6596 94.5232 56.7242 94.5691 56.7801C94.4613 56.8576 94.3823 56.9687 94.3446 57.096C94.3069 57.2232 94.3125 57.3594 94.3606 57.4831C92.9015 58.5898 91.4684 59.7226 90.0614 60.8944C86.5392 60.0375 83.2736 58.3499 80.5381 55.9728C79.9127 55.426 78.9877 56.3374 79.6261 56.8842C82.2895 59.2255 85.4399 60.9464 88.8498 61.9229C86.5309 63.915 84.3291 66.0372 82.2056 68.2376C82.1182 68.2742 82.0386 68.3273 81.9711 68.3938C80.7632 69.6369 79.2105 70.4898 77.5131 70.8425C75.8156 71.1953 74.0513 71.0317 72.4477 70.3729C72.2819 70.329 72.1055 70.3522 71.9567 70.4375C71.808 70.5228 71.6988 70.6633 71.6531 70.8286C71.6087 70.996 71.6316 71.1741 71.7168 71.3249C71.8019 71.4757 71.9427 71.5873 72.109 71.6358C74.2917 72.5067 76.7154 72.5622 78.9357 71.7921C77.0727 73.9013 75.2748 76.0756 73.6072 78.302C71.3728 81.3379 69.3195 84.503 67.4581 87.7806C67.3418 87.7966 67.2318 87.8438 67.1401 87.9171C67.0483 87.9905 66.9782 88.0873 66.937 88.1972L66.2335 89.9939C65.9599 90.684 67.0803 91.1397 67.419 90.5017C71.7578 82.4815 77.1902 75.1025 83.5605 68.5761C81.4124 73.593 80.4537 79.0382 80.7595 84.4865C80.7595 85.3198 82.0623 85.3198 82.0623 84.4865C81.6834 78.5221 82.869 72.5621 85.5017 67.196C85.5565 67.101 85.5855 66.9932 85.5855 66.8835C85.5855 66.7738 85.5565 66.6661 85.5017 66.571C86.8044 65.2691 88.2506 63.9671 89.6706 62.7822C90.9737 68.4898 90.699 74.4441 88.8759 80.0077C88.6154 80.8149 89.8791 81.1534 90.1787 80.3592C92.102 74.4216 92.3454 68.0682 90.8822 62.001C90.8587 61.9477 90.8327 61.8955 90.804 61.8448C92.224 60.66 93.6701 59.5012 95.1553 58.3945C96.0486 59.5163 96.7111 60.8036 97.1046 62.1823C97.4981 63.561 97.6149 65.0039 97.4482 66.4278C97.2267 70.425 95.7806 74.2398 95.6243 78.276C95.6243 79.1093 96.9271 79.1093 96.9271 78.276C97.0965 74.0185 98.7119 69.9693 98.777 65.7117C98.9554 62.7959 98.0508 59.9169 96.2366 57.6263C97.3049 56.8451 98.3731 56.0509 99.4805 55.3218L99.6108 55.2307C101.424 57.5962 103.755 59.5157 106.424 60.8423C108.018 61.7033 109.566 62.6463 111.062 63.6676C112.365 64.6441 114.528 66.2716 114.215 68.1465C114.085 68.9667 115.348 69.3183 115.518 68.498C115.585 67.6389 115.439 66.7765 115.091 65.988C114.743 65.1995 114.205 64.5096 113.525 63.9801C112.061 62.6893 110.457 61.5668 108.743 60.6339C105.838 58.9674 102.672 57.3399 100.757 54.5276C103.207 52.9391 105.721 51.4679 108.3 50.1138C110.561 52.7294 113.449 54.7286 116.694 55.9242C119.938 57.1197 123.434 57.4725 126.852 56.9493C127.634 56.8191 127.282 55.5562 126.461 55.6864Z" fill="#467390"/>
<path d="M127.516 46.4031C125.403 46.815 123.424 47.7441 121.758 49.1074C120.091 50.4707 118.789 52.2256 117.967 54.2151C117.923 54.3808 117.946 54.5572 118.032 54.7059C118.117 54.8546 118.258 54.9636 118.423 55.0093C118.59 55.0503 118.767 55.0259 118.917 54.9413C119.067 54.8566 119.179 54.718 119.231 54.5536C119.985 52.7764 121.167 51.213 122.672 50.0023C124.176 48.7916 125.957 47.9712 127.855 47.614C128.676 47.5098 128.337 46.2599 127.516 46.4031Z" fill="#467390"/>
<path d="M71.5228 100.084C69.3768 100.995 67.0639 101.447 64.7328 101.411C62.4017 101.375 60.1038 100.852 57.9869 99.8762C58.1596 98.1445 58.1596 96.3999 57.9869 94.6682C57.9217 93.8349 56.6189 93.8349 56.6841 94.6682C56.9837 98.1576 57.3355 102.897 53.9352 105.084C52.9051 105.738 51.6818 106.018 50.4698 105.878C49.0249 105.306 47.5507 104.81 46.0533 104.394C45.1805 103.938 44.3597 103.431 43.6302 102.975C42.9006 102.519 42.3274 103.457 42.8355 103.964C42.7199 104.079 42.6503 104.232 42.64 104.394C42.5466 104.227 42.3929 104.101 42.2102 104.043C42.3451 103.995 42.4619 103.907 42.5445 103.79C42.6272 103.674 42.6716 103.534 42.6716 103.392C42.6716 103.249 42.6272 103.109 42.5445 102.993C42.4619 102.876 42.3451 102.788 42.2102 102.741C38.38 101.165 36.517 96.8425 36.3216 92.9496C36.074 87.8197 37.9891 82.9502 38.9271 77.9636C38.9727 78.0454 39.0371 78.1152 39.1152 78.167C39.1932 78.2188 39.2825 78.2512 39.3757 78.2614C39.4688 78.2716 39.5631 78.2593 39.6505 78.2256C39.7379 78.1919 39.816 78.1378 39.8781 78.0678L47.4603 70.0344C48.0336 69.4225 47.1086 68.4981 46.5354 69.11L39.0704 77.0262C39.5268 74.412 39.487 71.7355 38.9532 69.1361C38.7578 68.3158 37.5071 68.6673 37.6504 69.4876C39.9433 79.4218 31.4622 89.7987 36.8036 99.3684L20.1801 82.4425C19.5938 81.8435 18.6689 82.7679 19.2551 83.3669L40.3211 104.746C40.9074 105.345 41.8324 104.42 41.2461 103.821L40.8162 103.392C41.1583 103.592 41.5106 103.774 41.8714 103.938C41.7971 103.966 41.729 104.007 41.6708 104.061C41.6127 104.114 41.5657 104.179 41.5327 104.251C40.0084 107.61 38.6926 111.034 37.5071 114.498C30.1178 123.167 20.8025 129.988 10.305 134.418C9.53639 134.744 9.87504 136.007 10.6437 135.72C19.12 132.17 26.867 127.085 33.4946 120.721C34.5107 119.745 35.5008 118.729 36.4649 117.688C35.0448 122.127 33.8593 126.645 32.7389 131.189C25.9371 138.982 17.9539 145.66 9.08041 150.98C8.94999 151.074 8.85937 151.214 8.82612 151.372C8.79287 151.53 8.81933 151.694 8.90038 151.833C8.98144 151.973 9.1113 152.077 9.26488 152.126C9.41846 152.175 9.58485 152.166 9.7318 152.099C18.0283 147.133 25.5625 140.993 32.1006 133.871C31.0453 138.324 30.0682 142.79 29.0781 147.256C28.9087 147.998 28.7263 148.753 28.557 149.508C28.4678 149.549 28.3895 149.61 28.3278 149.687C28.2661 149.763 28.2229 149.853 28.2014 149.948C28.18 150.044 28.181 150.143 28.2042 150.239C28.2275 150.334 28.2724 150.423 28.3355 150.498C28.3355 150.745 28.2182 151.006 28.1531 151.253C28.134 151.182 28.0992 151.116 28.0512 151.06C28.0033 151.004 27.9434 150.959 27.876 150.929C27.8085 150.899 27.7353 150.884 27.6615 150.886C27.5878 150.888 27.5153 150.907 27.4496 150.94C22.8524 152.801 18.8312 155.846 15.7964 159.767C12.7615 163.687 10.8217 168.342 10.1747 173.257C10.0705 174.09 11.3733 174.077 11.4775 173.257C12.0975 168.619 13.9275 164.227 16.7836 160.52C19.6398 156.813 23.4216 153.922 27.7492 152.138C27.8098 152.105 27.8666 152.066 27.9186 152.021C26.7461 157.086 25.4694 162.138 24.0103 167.111C23.8893 167.158 23.785 167.239 23.7106 167.346C20.0952 172.443 15.2149 176.513 9.54939 179.155C8.79378 179.506 9.45821 180.639 10.2138 180.287C15.1321 177.963 19.4811 174.59 22.955 170.405C21.3861 175.302 19.4885 180.086 17.2749 184.727C17.1665 184.74 17.0632 184.78 16.9753 184.844L7.45193 191.771C6.77448 192.253 7.45193 193.386 8.10332 192.891L16.1415 187.058C12.8212 193.61 8.49574 199.602 3.32205 204.817C2.72277 205.403 3.64777 206.327 4.24705 205.728C9.61518 200.321 14.0798 194.088 17.4703 187.266V197.018C17.4703 197.191 17.5389 197.356 17.6611 197.478C17.7833 197.601 17.949 197.669 18.1217 197.669C18.2945 197.669 18.4601 197.601 18.5823 197.478C18.7044 197.356 18.7731 197.191 18.7731 197.018V187.058C18.7705 186.952 18.7422 186.849 18.6907 186.757C18.6393 186.665 18.5662 186.586 18.4777 186.529C18.3893 186.471 18.2881 186.436 18.183 186.426C18.0778 186.416 17.9719 186.432 17.8742 186.472C20.1939 181.775 22.1875 176.925 23.8409 171.955C25.9798 177.178 26.7727 182.855 26.1468 188.464C26.0556 189.297 27.3715 189.297 27.4496 188.464C28.1237 182.168 27.084 175.808 24.4402 170.054C26.4335 163.869 28.0098 157.568 29.4689 151.24C32.4783 153.245 34.159 156.656 35.2794 160.041C36.5821 163.947 37.2205 168.114 38.9792 171.903C39.9147 174.027 41.328 175.907 43.1091 177.397C43.7605 177.918 44.6854 177.006 44.034 176.473C40.5817 173.699 39.1877 169.39 38.0803 165.262C37.0381 161.356 36.1261 157.32 33.8723 153.909C32.8197 152.284 31.4177 150.914 29.7685 149.899C31.0713 143.871 32.3742 137.816 33.8984 131.814C33.9896 131.681 34.0268 131.518 34.0026 131.358C34.185 130.642 34.3544 129.913 34.5368 129.184C41.4155 131.267 44.5942 138.611 49.4927 143.506C49.2804 147.8 50.4841 152.045 52.919 155.589C53.388 156.279 54.5214 155.589 54.0394 154.938C51.9489 151.916 50.8102 148.338 50.7695 144.665C52.6385 146.304 54.9324 147.383 57.3876 147.777C58.2083 147.907 58.5731 146.644 57.7393 146.475C55.1184 145.986 52.7015 144.731 50.7955 142.868C50.7805 142.741 50.7215 142.623 50.6286 142.535C50.5358 142.447 50.4151 142.395 50.2874 142.386C48.7052 140.794 47.2422 139.089 45.91 137.283C42.9397 133.377 39.6828 129.379 34.8625 127.921C35.9568 123.664 37.1814 119.419 38.6014 115.253L38.8751 114.94C38.9631 114.84 39.0188 114.716 39.035 114.583C39.0513 114.451 39.0274 114.317 38.9663 114.198C40.0519 111.073 41.2678 108.005 42.614 104.993C42.6017 104.958 42.598 104.92 42.6033 104.883C42.6086 104.846 42.6227 104.811 42.6443 104.78C42.666 104.75 42.6947 104.725 42.728 104.708C42.7612 104.691 42.7981 104.682 42.8355 104.682C42.8729 104.682 42.9097 104.691 42.943 104.708C42.9762 104.725 43.005 104.75 43.0266 104.78C43.0483 104.811 43.0624 104.846 43.0677 104.883C43.073 104.92 43.0692 104.958 43.0569 104.993C43.9168 105.162 44.7636 105.384 45.6625 105.618C47.044 106.363 48.5416 106.869 50.092 107.115C56.0322 109.524 61.2825 113.367 65.3736 118.299C65.9078 118.95 66.8197 118.026 66.2856 117.375C62.6379 112.987 58.0881 109.434 52.9451 106.959C53.5387 106.789 54.1047 106.535 54.6257 106.204C55.4741 105.633 56.1972 104.895 56.7505 104.036C57.3038 103.176 57.6758 102.213 57.8436 101.204C60.107 102.177 62.545 102.679 65.0089 102.679C67.4728 102.679 69.9108 102.177 72.1742 101.204C72.9428 100.879 72.2784 99.759 71.5228 100.084Z" fill="#467390"/>
<path d="M72.9428 109.459C69.6432 110.622 66.196 111.314 62.703 111.516C61.8692 111.516 61.8692 112.818 62.703 112.818C66.3123 112.627 69.8752 111.916 73.2816 110.709C74.0763 110.448 73.7766 109.185 72.9428 109.459Z" fill="#467390"/>
<path d="M61.0225 139.209C55.5377 138.702 52.2938 133.598 49.6752 129.353L40.3603 114.211C39.9173 113.495 38.7969 114.211 39.2268 114.862C42.5489 120.239 45.832 125.643 49.1671 131.007C51.9029 135.408 55.4465 139.991 61.0225 140.511C61.8562 140.59 61.8562 139.288 61.0225 139.209Z" fill="#467390"/>
<path d="M37.3638 110.422C28.1499 108.902 19.1262 106.397 10.4483 102.949C9.66665 102.649 9.3279 103.899 10.0965 104.251C18.78 107.69 27.8079 110.186 37.025 111.698C37.8458 111.815 38.1976 110.565 37.3638 110.422Z" fill="#467390"/>
<path d="M118.866 132.986C116.117 131.762 112.998 131.657 110.173 132.696C107.349 133.734 105.041 135.833 103.741 138.545C101.642 135.45 98.8492 132.886 95.5851 131.059C95.4348 130.973 95.2563 130.949 95.089 130.995C94.9216 131.04 94.7791 131.15 94.6927 131.3C94.6063 131.45 94.5831 131.628 94.6283 131.796C94.6735 131.963 94.7834 132.105 94.9337 132.192C97.5984 133.671 99.9389 135.669 101.816 138.069C103.694 140.469 105.07 143.221 105.864 146.162L105.473 146.331C105.399 146.258 105.31 146.2 105.213 146.162C93.7784 141.97 81.2557 141.8 69.7118 145.68C68.9302 145.941 69.2689 147.204 70.0636 146.982C81.0119 143.303 92.8701 143.344 103.793 147.1C98.0455 149.561 92.4853 152.437 87.1561 155.706C87.1965 155.572 87.1929 155.429 87.146 155.298C87.0991 155.167 87.0113 155.054 86.8955 154.977C83.6166 152.689 79.8384 151.216 75.8752 150.682C71.912 150.147 67.8784 150.566 64.1099 151.904C63.3282 152.19 63.6669 153.44 64.4616 153.206C68.0641 151.921 71.9226 151.519 75.7129 152.033C79.5033 152.547 83.1148 153.963 86.2441 156.161L86.4135 156.24C84.1814 157.637 82.0101 159.104 79.8996 160.64C79.8702 160.629 79.8378 160.629 79.8084 160.64C79.9908 160.106 79.4697 159.429 78.9225 159.833C71.0587 165.658 61.3017 168.337 51.5641 167.346C50.7303 167.254 50.7433 168.556 51.5641 168.648C61.2587 169.611 70.9752 167.04 78.9225 161.408C76.7078 163.006 74.5365 164.689 72.4086 166.46C65.3753 172.334 58.9901 178.942 53.3619 186.172C53.295 186.05 53.1905 185.952 53.0639 185.894C52.9372 185.835 52.795 185.819 52.6584 185.847C48.4288 186.62 44.4501 188.407 41.0636 191.055C40.3992 191.576 41.3372 192.487 41.9886 191.979C45.0883 189.565 48.7115 187.91 52.5671 187.149C50.1961 190.235 47.9554 193.425 45.8839 196.732C41.8697 203.132 38.4424 209.882 35.644 216.9C35.3313 217.681 36.595 218.019 36.9468 217.238C40.7076 207.699 45.6395 198.663 51.6292 190.339C49.6822 195.015 49.0734 200.14 49.8705 205.143C50.0007 205.963 51.2514 205.624 51.1732 204.791C50.3067 199.32 51.2201 193.716 53.7788 188.802C53.8206 188.723 53.8456 188.635 53.8524 188.545C53.8592 188.455 53.8477 188.365 53.8184 188.28C53.7892 188.194 53.7428 188.116 53.6823 188.049C53.6217 187.982 53.5481 187.929 53.4661 187.891C54.7689 186.264 55.9804 184.649 57.3744 183.074C57.7262 182.657 58.104 182.253 58.4688 181.772C59.5078 186.934 59.945 192.198 59.7716 197.461C59.7716 198.294 61.0744 198.294 61.0744 197.461C61.2782 191.874 60.8057 186.282 59.6673 180.808C59.6431 180.726 59.6081 180.647 59.5632 180.574C62.0645 177.762 64.6961 175.079 67.3799 172.488C69.4736 178.292 72.608 183.666 76.6296 188.347C77.1768 188.985 78.0887 188.06 77.5546 187.435C75.7859 185.366 74.191 183.153 72.7864 180.821C79.3766 180.696 85.7978 182.91 90.9081 187.071C91.5465 187.605 92.4714 186.68 91.82 186.146C86.3329 181.629 79.3829 179.272 72.2783 179.519C72.1917 179.521 72.1067 179.543 72.0307 179.584C70.6857 177.202 69.5439 174.711 68.6174 172.137C68.5807 172.031 68.5168 171.937 68.4322 171.864C68.3476 171.791 68.2452 171.741 68.1354 171.72C71.8914 168.248 75.8455 164.996 79.9778 161.981C81.988 163.145 83.8588 164.534 85.5536 166.122C85.5286 166.248 85.5425 166.38 85.5937 166.498C85.6449 166.617 85.7309 166.717 85.8403 166.786C86.2051 167.033 86.5959 167.254 86.9867 167.489C90.3947 171.056 92.881 175.4 94.2302 180.144C94.2527 180.317 94.3428 180.474 94.4808 180.58C94.6189 180.686 94.7935 180.733 94.9663 180.711C95.139 180.688 95.2958 180.598 95.402 180.46C95.5083 180.322 95.5555 180.148 95.533 179.975V178.816C95.5276 178.683 95.4808 178.555 95.399 178.45C95.3172 178.345 95.2046 178.268 95.077 178.23C93.9513 174.975 92.3059 171.924 90.2046 169.194C94.9208 171.397 100.087 172.467 105.291 172.319C106.125 172.319 106.125 171.017 105.291 171.017C99.1785 171.191 93.1439 169.614 87.8987 166.473C85.9224 164.399 83.669 162.607 81.2024 161.148C83.2087 159.716 85.241 158.323 87.3255 157.021C89.4099 155.719 91.7028 154.417 93.9305 153.193V153.284C99.3596 158.331 103.47 164.629 105.903 171.629C106.164 172.41 107.427 172.072 107.206 171.278C104.742 164.156 100.589 157.737 95.1031 152.568C99.0646 150.457 103.14 148.566 107.31 146.904C108.014 146.631 107.805 145.602 107.18 145.602C106.592 143.458 105.716 141.404 104.574 139.496C104.668 139.465 104.754 139.414 104.826 139.347C104.898 139.279 104.954 139.197 104.991 139.105C106.111 136.676 108.139 134.781 110.64 133.827C113.141 132.873 115.916 132.936 118.371 134.001C118.97 134.47 119.621 133.35 118.866 132.986Z" fill="#467390"/>
<path d="M62.7029 173.504C55.8639 173.49 49.1355 175.229 43.1611 178.556C43.0108 178.644 42.9017 178.788 42.8577 178.956C42.8137 179.125 42.8385 179.304 42.9266 179.454C43.0147 179.604 43.159 179.713 43.3276 179.757C43.4961 179.801 43.6753 179.777 43.8256 179.688C49.587 176.474 56.0783 174.793 62.6768 174.806C62.8496 174.809 63.0166 174.744 63.1412 174.625C63.2658 174.505 63.3378 174.341 63.3412 174.168C63.3447 173.995 63.2794 173.828 63.1597 173.704C63.04 173.579 62.8756 173.507 62.7029 173.504V173.504Z" fill="#467390"/>
<path d="M122.931 159.247C119.058 159.484 115.177 158.962 111.505 157.711L121.107 150.927C121.784 150.446 121.107 149.313 120.455 149.795L110.541 156.812C110.464 156.863 110.4 156.93 110.352 157.009C110.305 157.088 110.276 157.176 110.268 157.268C106.447 155.795 102.971 153.552 100.054 150.68C99.9931 150.619 99.921 150.571 99.8417 150.538C99.7623 150.505 99.6772 150.488 99.5914 150.488C99.5055 150.488 99.4204 150.505 99.341 150.538C99.2617 150.571 99.1896 150.619 99.1289 150.68C99.0682 150.741 99.02 150.813 98.9871 150.892C98.9542 150.971 98.9373 151.056 98.9373 151.142C98.9373 151.228 98.9542 151.313 98.9871 151.392C99.02 151.472 99.0682 151.544 99.1289 151.604C102.251 154.674 105.982 157.057 110.081 158.597C114.181 160.138 118.558 160.803 122.931 160.549C123.764 160.497 123.764 159.195 122.931 159.247Z" fill="#467390"/>
<path d="M279.473 39.4115C273.037 38.0227 266.554 36.8552 260.023 35.9091C262.063 33.3613 263.811 30.5924 265.234 27.6545C266.636 24.7471 267.703 21.6893 268.413 18.5405C268.595 17.7202 267.344 17.3687 267.11 18.1889C264.595 29.1041 257.915 38.6066 248.493 44.6715C246.034 46.2488 243.414 47.5583 240.676 48.5775C241.223 45.7392 241.666 42.8748 241.979 39.9844C242.07 39.1511 240.767 39.1511 240.676 39.9844C240.585 40.8176 240.507 41.4426 240.416 42.1587C237.166 36.1038 232.793 30.7221 227.531 26.3004C227.697 26.349 227.876 26.3347 228.032 26.2602C228.188 26.1858 228.311 26.0564 228.378 25.8968C230.728 20.2947 231.332 14.1142 230.111 8.16358C229.941 7.34332 228.678 7.68181 228.808 8.50207C229.958 14.1827 229.382 20.0773 227.153 25.428C227.124 25.4935 227.109 25.5645 227.109 25.6363C227.109 25.7082 227.124 25.7792 227.153 25.8447C223.403 22.7411 219.243 20.1693 214.79 18.202C214.034 17.8634 213.37 18.9831 214.139 19.3217C222.521 23.0371 229.79 28.8706 235.231 36.2476C236.769 38.3336 238.149 40.5314 239.36 42.8227C239.406 42.9053 239.47 42.9763 239.547 43.0302C239.625 43.084 239.714 43.1192 239.807 43.1331C239.9 43.147 239.996 43.1391 240.085 43.1101C240.175 43.0811 240.257 43.0317 240.325 42.9659C240.203 43.8339 240.073 44.6672 239.934 45.4658C239.908 45.4299 239.871 45.4026 239.829 45.3876C234.545 43.0675 228.591 42.7709 223.102 44.5543C217.161 46.286 211.872 49.6321 206.7 52.9132C205.996 53.3558 206.7 54.4886 207.364 54.0329C216.484 48.239 228.209 41.2212 239.178 46.5073C239.267 46.552 239.365 46.5753 239.465 46.5753C239.564 46.5753 239.662 46.552 239.751 46.5073C238.849 51.4993 237.653 56.4338 236.169 61.285C236.112 61.2776 236.056 61.2776 235.999 61.285C231.039 61.0176 226.075 61.7603 221.41 63.468C216.745 65.1757 212.476 67.8128 208.862 71.2192C206.796 73.1598 204.976 75.3461 203.443 77.7292C202.987 78.4323 204.107 79.0312 204.563 78.3932C207.202 74.3864 210.629 70.9581 214.636 68.3169C218.643 65.6757 223.146 63.8768 227.87 63.0297C230.475 62.5683 233.124 62.4111 235.765 62.561C233.693 69.2011 231.179 75.7111 228.534 82.0909L228.026 83.2887C228.012 83.205 227.98 83.1254 227.932 83.0557C227.884 82.9859 227.82 82.9278 227.747 82.8854C227.673 82.8431 227.591 82.8176 227.507 82.8108C227.422 82.804 227.337 82.816 227.258 82.846C217.926 85.8961 209.133 90.3953 201.202 96.1785C200.524 96.6732 201.202 97.806 201.853 97.3112C209.683 91.5918 218.36 87.1327 227.57 84.096H227.674C224.756 91.0746 221.695 98.0013 218.803 105.006C215.878 104.738 212.936 105.292 210.31 106.606C207.684 107.92 205.476 109.94 203.938 112.44C203.495 113.157 204.628 113.742 205.058 113.091C206.447 110.849 208.423 109.028 210.771 107.826C213.12 106.624 215.753 106.085 218.386 106.269C216.601 110.631 214.894 115.018 213.344 119.471C213.2 119.403 213.038 119.387 212.883 119.425C212.729 119.463 212.593 119.553 212.497 119.68C209.958 123.13 208.045 127 206.843 131.111C206.796 131.284 206.82 131.468 206.909 131.623C206.999 131.778 207.146 131.891 207.318 131.938C207.491 131.984 207.675 131.961 207.831 131.871C207.986 131.782 208.099 131.635 208.146 131.463C209.14 128.129 210.615 124.958 212.523 122.049C212.393 122.466 212.236 122.869 212.106 123.273C209.497 131.053 207.673 139.074 206.661 147.217C206.569 148.05 207.872 148.037 207.963 147.217C209.579 132.895 214.477 119.224 219.858 105.97C219.852 106.008 219.852 106.048 219.858 106.087C224.146 114.481 225.769 123.984 224.509 133.324C224.405 134.145 225.655 134.509 225.812 133.676C227.133 123.975 225.45 114.101 220.991 105.384C220.958 105.308 220.908 105.24 220.846 105.186C220.783 105.132 220.71 105.092 220.63 105.069C220.55 105.047 220.466 105.042 220.385 105.056C220.303 105.07 220.225 105.102 220.157 105.149L220.236 104.954C222.242 100.098 224.339 95.2671 226.411 90.4367C232.646 99.335 235.777 110.037 235.322 120.89C235.322 121.724 236.625 121.724 236.625 120.89C237.083 109.795 233.879 98.8564 227.505 89.7596C227.428 89.6465 227.318 89.5605 227.189 89.5137C227.06 89.467 226.92 89.4619 226.789 89.4993C229.329 83.5491 231.817 77.573 234.045 71.5057C236.488 82.3559 241.75 92.3707 249.301 100.54C251.468 102.89 253.816 105.066 256.323 107.05C256.961 107.558 257.899 106.647 257.235 106.126C248.566 99.2429 241.9 90.1662 237.927 79.8384C236.832 76.941 235.961 73.9637 235.322 70.9328C235.304 70.8436 235.265 70.7598 235.209 70.688C235.154 70.6163 235.082 70.5585 234.999 70.5193C234.917 70.4802 234.827 70.4607 234.736 70.4624C234.645 70.4641 234.556 70.487 234.475 70.5292C235.283 68.3028 236.064 66.0763 236.794 63.8109C237.276 62.3136 237.719 60.7902 238.097 59.2799C238.132 59.3739 238.188 59.4588 238.26 59.5286C238.332 59.5984 238.419 59.6513 238.514 59.6835C243.195 61.1284 247.53 63.5183 251.25 66.7052C254.97 69.892 257.996 73.8081 260.14 78.2109C261.357 80.6942 262.262 83.318 262.837 86.0229C263.006 86.8432 264.27 86.4916 264.139 85.6844C263.033 80.7252 260.919 76.0463 257.927 71.9385C254.935 67.8307 251.129 64.3816 246.747 61.8058C244.289 60.3579 241.664 59.2125 238.931 58.3946C238.838 58.3627 238.739 58.3556 238.643 58.3739C238.547 58.3921 238.458 58.4352 238.383 58.4987C239.061 56.0249 239.686 53.5381 240.233 51.0253C250.174 54.775 261.312 58.7331 271.787 54.6318C274.318 53.6671 276.63 52.2063 278.587 50.3352C279.2 49.7493 278.275 48.8249 277.675 49.4108C270.171 56.6629 258.798 55.7515 249.6 52.9392C246.604 52.0278 243.673 50.9341 240.754 49.8274C247.885 47.2084 254.211 42.7797 259.111 36.9767C259.171 36.9916 259.233 36.9916 259.293 36.9767C265.955 37.9228 272.568 39.112 279.134 40.5442C279.942 40.8437 280.294 39.5938 279.473 39.4115Z" fill="#467390"/>
<path d="M258.537 142.569C256.39 144.301 253.991 145.697 251.424 146.709V146.709C250.952 144.197 251.161 141.605 252.029 139.201C252.897 136.797 254.393 134.669 256.362 133.038C257.013 132.504 256.088 131.593 255.437 132.114C253.303 133.908 251.689 136.241 250.761 138.869C249.834 141.497 249.626 144.325 250.16 147.061V147.178C244.886 148.997 239.205 149.291 233.771 148.024C231.34 147.453 228.999 146.551 226.815 145.342C226.718 145.292 226.611 145.265 226.502 145.264C226.451 145.17 226.376 145.092 226.284 145.037C226.192 144.982 226.088 144.952 225.981 144.951H225.877C237.237 140.149 247.381 132.872 255.567 123.651C256.127 123.026 255.202 122.101 254.655 122.726C248.211 129.967 240.542 136.018 232 140.603C229.681 141.905 227.297 142.972 224.873 143.988L224.678 143.662L228.274 137.283C228.691 136.553 227.557 135.889 227.153 136.618L223.909 142.386L222.607 140.147C222.177 139.431 221.043 140.082 221.486 140.798L223.245 143.727C223.209 143.888 223.236 144.056 223.321 144.196C223.406 144.337 223.542 144.44 223.701 144.483L223.935 144.873L215.637 144.535C214.803 144.535 214.803 145.837 215.637 145.837L224.574 146.201C225.338 148.996 226.076 151.808 226.789 154.638C219.758 163.552 214.896 173.978 212.588 185.092C211.953 188.203 211.517 191.351 211.285 194.518C211.288 194.647 211.328 194.772 211.4 194.878C211.473 194.984 211.575 195.067 211.693 195.117C211.812 195.166 211.942 195.18 212.069 195.157C212.195 195.134 212.312 195.075 212.406 194.987L213.096 194.141C213.17 194.052 213.22 193.946 213.243 193.832C213.265 193.719 213.258 193.601 213.223 193.491C213.188 193.381 213.126 193.282 213.042 193.202C212.958 193.122 212.856 193.064 212.745 193.034C213.748 182.554 217.039 172.421 222.385 163.349C223.85 160.902 225.455 158.541 227.192 156.279C228.183 160.297 229.09 164.334 229.915 168.387C229.834 168.45 229.767 168.53 229.72 168.622C223.413 181.153 220.409 195.085 220.991 209.101C220.991 209.804 222.164 210.038 222.294 209.283L222.581 207.2C222.599 207.069 222.579 206.935 222.524 206.815C222.468 206.695 222.379 206.594 222.268 206.523C222.157 196.687 223.826 186.913 227.192 177.67C228.106 175.189 229.145 172.755 230.306 170.379C230.984 173.764 231.609 177.176 232.169 180.587C234.129 192.402 235.434 204.316 236.077 216.275C236.425 223.01 236.564 229.75 236.494 236.495C236.494 236.667 236.563 236.833 236.685 236.955C236.807 237.077 236.973 237.146 237.146 237.146C237.318 237.146 237.484 237.077 237.606 236.955C237.728 236.833 237.797 236.667 237.797 236.495C237.884 227.711 237.615 218.926 236.989 210.142C240.414 215.577 242.284 221.845 242.396 228.266C242.396 228.439 242.465 228.604 242.587 228.726C242.709 228.848 242.875 228.917 243.047 228.917C243.22 228.917 243.386 228.848 243.508 228.726C243.63 228.604 243.699 228.439 243.699 228.266C243.57 221.522 241.572 214.946 237.927 209.27C237.866 209.186 237.785 209.119 237.692 209.072C237.6 209.025 237.497 209.001 237.393 209.001C237.289 209.001 237.187 209.025 237.094 209.072C237.001 209.119 236.921 209.186 236.859 209.27C236.651 206.353 236.39 203.45 236.103 200.547C234.896 188.623 233.039 176.775 230.541 165.054C229.273 159.169 227.848 153.327 226.267 147.529C226.341 147.49 226.406 147.436 226.458 147.371C226.51 147.306 226.549 147.232 226.572 147.152C226.595 147.072 226.602 146.988 226.592 146.905C226.582 146.822 226.556 146.742 226.515 146.67C230.548 148.774 235.001 149.95 239.547 150.113C244.094 150.275 248.619 149.419 252.792 147.607C255.183 146.563 257.423 145.201 259.449 143.558C260.075 142.959 259.189 142.009 258.537 142.569Z" fill="#467390"/>
<path d="M199.521 130.681C195.262 127.956 192.116 123.801 190.649 118.963C190.402 118.169 189.151 118.508 189.347 119.315C190.913 124.465 194.273 128.885 198.818 131.775C199.573 132.257 200.225 131.137 199.521 130.681Z" fill="#467390"/>
<path d="M197.437 141.423C191.043 141.985 184.633 140.533 179.107 137.269C178.96 137.203 178.793 137.194 178.64 137.243C178.486 137.292 178.356 137.396 178.275 137.535C178.194 137.675 178.168 137.839 178.201 137.997C178.234 138.155 178.325 138.294 178.455 138.389C184.172 141.785 190.811 143.301 197.437 142.725C198.271 142.647 198.271 141.345 197.437 141.423Z" fill="#467390"/>
<path d="M222.711 146.435C218.423 152.703 211.851 157.045 204.402 158.534C196.952 160.023 189.216 158.541 182.845 154.404C182.129 153.948 181.478 155.081 182.181 155.536C187.564 158.99 193.887 160.687 200.277 160.393L200.98 160.328C203.414 166.877 204.175 173.93 203.195 180.847C203.078 181.667 204.328 182.019 204.498 181.199C205.509 174.138 204.757 166.937 202.309 160.237C207.678 159.595 212.779 157.532 217.083 154.261C219.73 152.258 222.036 149.839 223.909 147.1C224.313 146.396 223.193 145.745 222.711 146.435Z" fill="#467390"/>
<path d="M255.411 185.73C253.743 178.845 250.643 172.389 246.313 166.78C241.984 161.172 236.521 156.538 230.28 153.18C229.538 152.789 228.886 153.909 229.616 154.3C239.15 159.45 246.733 167.582 251.203 177.449C252.463 180.215 253.449 183.097 254.147 186.055C254.343 186.889 255.606 186.55 255.411 185.73Z" fill="#467390"/>
<path d="M239.048 184.063C237.582 181.704 235.936 179.462 234.123 177.358C233.576 176.72 232.664 177.644 233.198 178.282C239.461 185.623 243.617 194.523 245.223 204.036C245.676 206.751 245.915 209.498 245.939 212.251C245.939 212.424 246.008 212.59 246.13 212.712C246.252 212.834 246.418 212.902 246.591 212.902C246.764 212.902 246.929 212.834 247.051 212.712C247.173 212.59 247.242 212.424 247.242 212.251C247.121 202.286 244.288 192.542 239.048 184.063V184.063Z" fill="#467390"/>
<path d="M233.55 202.721C230.531 207.127 228.655 212.214 228.091 217.524C228 218.358 229.303 218.345 229.394 217.524C229.946 212.476 231.736 207.642 234.605 203.45C235.152 202.695 234.019 202.044 233.55 202.721Z" fill="#467390"/>
</svg>
