<svg width="100" height="125" viewBox="0 0 100 125" fill="none" xmlns="http://www.w3.org/2000/svg">
<path d="M32.269 108C33.645 108 35.059 107.992 36.501 107.992H63.796C65.231 107.992 66.646 108 68.024 108C80.649 108 90.295 107.353 90.295 94.156C90.293 81.473 81.385 70.883 69.488 68.277C71.624 70.442 73.026 73.33 73.299 76.535C76.188 77.182 78.354 79.764 78.354 82.844C78.354 86.411 75.452 89.314 71.884 89.314C68.316 89.314 65.414 86.412 65.414 82.844C65.414 79.821 67.503 77.281 70.31 76.575C69.871 72.429 66.987 69.004 63.13 67.767H36.492C32.4 69.08 29.411 72.86 29.268 77.348C29.843 77.683 30.31 78.201 30.595 78.827C32.721 79.831 34.6 81.942 36.037 84.95C36.278 85.457 36.309 86.028 36.133 86.55C36.995 88.77 37.487 91.194 37.487 93.231C37.487 96.085 37.487 98.783 34.377 99.476C34.04 99.756 33.619 99.91 33.175 99.91H31.097C30.055 99.91 29.206 99.061 29.206 98.019L29.208 97.945C29.248 96.941 30.089 96.129 31.097 96.129H33.175C33.388 96.129 33.596 96.165 33.797 96.235C33.923 96.199 33.963 96.171 33.963 96.17C34.194 95.759 34.194 94.052 34.194 93.232C34.194 91.577 33.78 89.58 33.054 87.723C32.678 87.509 32.374 87.185 32.186 86.794C30.926 84.155 29.212 82.451 27.82 82.451C26.397 82.451 24.597 84.293 23.342 87.034C23.137 87.48 22.778 87.845 22.336 88.061C21.68 89.838 21.32 91.666 21.32 93.231C21.32 93.919 21.32 95.749 21.583 96.176C21.586 96.176 21.645 96.212 21.81 96.253C22.025 96.171 22.256 96.128 22.487 96.128H24.569C25.54 96.128 26.35 96.867 26.448 97.827L26.458 97.944C26.458 99.06 25.61 99.909 24.568 99.909H22.486C22.073 99.909 21.673 99.771 21.345 99.52C20.156 99.296 19.318 98.771 18.787 97.916C18.144 96.884 18.027 95.528 18.027 93.229C18.027 91.21 18.492 88.888 19.339 86.67C19.214 86.195 19.256 85.7 19.463 85.253C20.344 83.326 21.465 81.676 22.703 80.482C23.384 79.827 24.116 79.298 24.881 78.914C25.169 78.241 25.67 77.689 26.281 77.34C26.368 73.911 27.746 70.803 29.951 68.477C18.484 71.395 10 81.779 10 94.156C10 107.351 19.642 108 32.269 108Z" fill="#5F5EAA"/>
<path d="M50.1459 63.786C62.7909 63.786 73.0409 53.535 73.0409 40.893C73.0409 28.248 62.7909 18 50.1459 18C37.5049 18 27.2539 28.248 27.2539 40.893C27.2539 53.535 37.5049 63.786 50.1459 63.786Z" fill="#5F5EAA"/>
<path d="M71.883 85.83C73.5321 85.83 74.869 84.4932 74.869 82.844C74.869 81.1949 73.5321 79.858 71.883 79.858C70.2339 79.858 68.897 81.1949 68.897 82.844C68.897 84.4932 70.2339 85.83 71.883 85.83Z" fill="#5F5EAA"/>
</svg>
