<svg width="116" height="145" viewBox="0 0 116 145" fill="none" xmlns="http://www.w3.org/2000/svg">
<g clip-path="url(#clip0_349_926)">
<path d="M43.732 37.584C30.856 37.584 20.416 48.024 20.416 60.9C20.416 73.776 30.856 84.216 43.732 84.216C56.608 84.216 67.048 73.776 67.048 60.9C67.048 48.024 56.608 37.584 43.732 37.584Z" fill="#CCAEF8"/>
<path d="M47.676 54.868L41.412 61.712L39.208 59.276C38.048 58 35.96 57.884 34.684 59.16C33.408 60.32 33.292 62.408 34.568 63.684L39.208 68.556C39.788 69.252 40.716 69.6 41.528 69.6C42.456 69.6 43.268 69.252 43.848 68.556L52.548 59.16C53.708 57.884 53.708 55.796 52.432 54.636C50.924 53.476 48.836 53.592 47.676 54.868Z" fill="white"/>
<path d="M78.0679 98.368V101.964H9.3959V19.836H16.3559V22.504C16.3559 24.244 17.7479 25.752 19.6039 25.752C21.4599 25.752 22.8519 24.36 22.8519 22.504V19.836H32.4799V22.504C32.4799 24.244 33.8719 25.752 35.7279 25.752C37.5839 25.752 38.9759 24.36 38.9759 22.504V19.836H48.6039V22.504C48.6039 24.244 49.9959 25.752 51.8519 25.752C53.7079 25.752 55.0999 24.36 55.0999 22.504V19.836H64.7279V22.504C64.7279 24.244 66.1199 25.752 67.9759 25.752C69.7159 25.752 71.2239 24.36 71.2239 22.504V19.836H78.1839V63.336L84.6799 56.84V18.676C84.6799 15.776 82.3599 13.34 79.3439 13.34H71.2239V10.788C71.2239 9.04798 69.8319 7.53998 67.9759 7.53998C66.2359 7.53998 64.7279 8.93198 64.7279 10.788V13.34H55.0999V10.788C55.0999 9.04798 53.7079 7.53998 51.8519 7.53998C49.9959 7.53998 48.6039 8.93198 48.6039 10.788V13.34H38.9759V10.788C38.9759 9.04798 37.5839 7.53998 35.7279 7.53998C33.8719 7.53998 32.4799 8.93198 32.4799 10.788V13.34H22.8519V10.788C22.8519 9.04798 21.4599 7.53998 19.6039 7.53998C17.7479 7.53998 16.3559 8.93198 16.3559 10.788V13.34H8.2359C5.3359 13.34 2.8999 15.66 2.8999 18.676V103.124C2.8999 106.024 5.2199 108.344 8.2359 108.344H79.2279C82.1279 108.344 84.5639 106.024 84.5639 103.124V92.452L80.1559 96.86C79.5759 97.44 78.7639 98.02 78.0679 98.368Z" fill="#5F5EAA"/>
<path d="M95.0443 54.4066L72.3237 77.1271L82.0025 86.8059L104.723 64.0854L95.0443 54.4066Z" fill="#5F5EAA"/>
<path d="M66.3518 95.352L75.0518 93.38C75.3998 93.264 75.7478 93.148 76.0958 92.8L78.7638 90.132L69.1358 80.504L66.4678 83.172C66.2358 83.404 66.0038 83.752 65.8878 84.216L63.7998 92.916C63.5678 94.308 64.8438 95.7 66.3518 95.352Z" fill="#5F5EAA"/>
<path d="M112.52 53.476L105.792 46.748C104.98 45.936 103.704 45.936 102.892 46.748L98.3677 51.272L107.996 60.9L112.52 56.376C113.332 55.564 113.332 54.288 112.52 53.476Z" fill="#5F5EAA"/>
</g>
<defs>
<clipPath id="clip0_349_926">
<rect width="116" height="145" fill="white"/>
</clipPath>
</defs>
</svg>
