<svg width="21" height="25" viewBox="0 0 21 25" fill="none" xmlns="http://www.w3.org/2000/svg">
<path d="M11.7083 14.9167H6.87492C6.55445 14.9167 6.2471 15.044 6.0205 15.2706C5.79389 15.4972 5.66658 15.8046 5.66658 16.125C5.66658 16.4455 5.79389 16.7528 6.0205 16.9794C6.2471 17.206 6.55445 17.3334 6.87492 17.3334H11.7083C12.0287 17.3334 12.3361 17.206 12.5627 16.9794C12.7893 16.7528 12.9166 16.4455 12.9166 16.125C12.9166 15.8046 12.7893 15.4972 12.5627 15.2706C12.3361 15.044 12.0287 14.9167 11.7083 14.9167ZM16.5416 2.83335H15.1158C14.8665 2.12823 14.4052 1.51748 13.7951 1.08482C13.1851 0.652165 12.4561 0.418789 11.7083 0.416687H9.29158C8.54369 0.418789 7.81476 0.652165 7.20471 1.08482C6.59467 1.51748 6.13338 2.12823 5.88409 2.83335H4.45825C3.49684 2.83335 2.57481 3.21527 1.89499 3.89509C1.21517 4.57491 0.833252 5.49694 0.833252 6.45835V20.9584C0.833252 21.9198 1.21517 22.8418 1.89499 23.5216C2.57481 24.2014 3.49684 24.5834 4.45825 24.5834H16.5416C17.503 24.5834 18.425 24.2014 19.1048 23.5216C19.7847 22.8418 20.1666 21.9198 20.1666 20.9584V6.45835C20.1666 5.49694 19.7847 4.57491 19.1048 3.89509C18.425 3.21527 17.503 2.83335 16.5416 2.83335ZM8.08325 4.04169C8.08325 3.72122 8.21056 3.41387 8.43716 3.18727C8.66377 2.96066 8.97112 2.83335 9.29158 2.83335H11.7083C12.0287 2.83335 12.3361 2.96066 12.5627 3.18727C12.7893 3.41387 12.9166 3.72122 12.9166 4.04169V5.25002H8.08325V4.04169ZM17.7499 20.9584C17.7499 21.2788 17.6226 21.5862 17.396 21.8128C17.1694 22.0394 16.8621 22.1667 16.5416 22.1667H4.45825C4.13778 22.1667 3.83044 22.0394 3.60383 21.8128C3.37722 21.5862 3.24992 21.2788 3.24992 20.9584V6.45835C3.24992 6.13788 3.37722 5.83054 3.60383 5.60393C3.83044 5.37733 4.13778 5.25002 4.45825 5.25002H5.66658V6.45835C5.66658 6.77882 5.79389 7.08617 6.0205 7.31277C6.2471 7.53938 6.55445 7.66669 6.87492 7.66669H14.1249C14.4454 7.66669 14.7527 7.53938 14.9793 7.31277C15.2059 7.08617 15.3333 6.77882 15.3333 6.45835V5.25002H16.5416C16.8621 5.25002 17.1694 5.37733 17.396 5.60393C17.6226 5.83054 17.7499 6.13788 17.7499 6.45835V20.9584ZM14.1249 10.0834H6.87492C6.55445 10.0834 6.2471 10.2107 6.0205 10.4373C5.79389 10.6639 5.66658 10.9712 5.66658 11.2917C5.66658 11.6122 5.79389 11.9195 6.0205 12.1461C6.2471 12.3727 6.55445 12.5 6.87492 12.5H14.1249C14.4454 12.5 14.7527 12.3727 14.9793 12.1461C15.2059 11.9195 15.3333 11.6122 15.3333 11.2917C15.3333 10.9712 15.2059 10.6639 14.9793 10.4373C14.7527 10.2107 14.4454 10.0834 14.1249 10.0834Z" fill="#BB308A"/>
</svg>
