<svg width="204" height="125" viewBox="0 0 204 125" fill="none" xmlns="http://www.w3.org/2000/svg">
<g clip-path="url(#clip0_969_897)">
<path d="M87.0347 87.6585C85.8539 69.9801 67.76 59.9561 51.482 60.1132C38.2569 60.2236 27.6409 70.4589 24.5464 80.7279C18.0696 102.303 45.2002 128.089 70.2457 116.844C81.8709 111.554 87.8199 99.2579 87.0347 87.6585Z" fill="#CCAEF8"/>
<path d="M82.4437 78.0347C75.8998 62.9952 56.9801 59.8411 42.8207 64.998C31.3114 69.1728 25.2371 81.365 25.7385 91.2669C26.8136 112.063 58.5367 126.164 76.8911 108.643C85.3885 100.448 86.7465 87.8994 82.4437 78.0347Z" fill="#D7BDFC"/>
<path d="M56.9799 89.5371C56.3991 90.2092 55.6603 91.0769 54.7585 91.1052C53.8566 91.1334 53.685 90.4576 53.814 89.7724C54.1068 88.8958 54.4834 88.0492 54.9385 87.2442C55.196 86.766 55.3227 86.2288 55.3057 85.6864C55.2887 85.1441 55.1287 84.6159 54.8418 84.1547C54.3273 83.4488 53.161 84.2074 53.6883 84.8856C54.2157 85.5639 53.5473 86.9335 53.1074 87.7374C52.4947 88.6575 52.2604 89.7769 52.453 90.864C52.6094 91.4022 52.9621 91.8628 53.442 92.1552C53.9218 92.4477 54.4941 92.551 55.0466 92.4448C56.2378 92.1847 57.2862 91.4851 57.9808 90.4866C58.5479 89.8149 57.5475 88.879 56.9799 89.5371Z" fill="#351D47"/>
<path d="M55.5482 106.461C57.9035 106.434 60.1706 105.563 61.9333 104.006C63.696 102.45 64.8362 100.312 65.1448 97.9865C65.1738 97.7967 65.1286 97.603 65.0184 97.4455C65.0017 97.2533 64.9099 97.0753 64.7627 96.95C64.6155 96.8246 64.4247 96.7619 64.2314 96.7754C58.5469 96.9533 52.8534 96.9863 47.1507 96.8741C47.1507 96.8741 47.0824 96.8763 47.0414 96.8776C46.934 96.8639 46.825 96.8748 46.7225 96.9095C46.62 96.9442 46.5268 97.0017 46.4501 97.0777C46.3733 97.1537 46.315 97.2461 46.2795 97.348C46.244 97.4498 46.2324 97.5584 46.2454 97.6654C46.484 99.9973 47.5536 102.167 49.2602 103.78C50.9669 105.394 53.1977 106.345 55.5482 106.461Z" fill="#351D47"/>
<path d="M67.9313 76.0778C66.7372 75.9827 65.5844 75.6326 64.5632 75.0549C63.542 74.4772 62.6801 73.6877 62.0451 72.7481C61.9369 72.5853 61.7632 72.4694 61.5622 72.4257C61.3612 72.382 61.1492 72.4142 60.9731 72.5152C60.7969 72.6162 60.6709 72.7778 60.6228 72.9643C60.5748 73.1508 60.6085 73.347 60.7167 73.5098C61.5023 74.6581 62.5681 75.6187 63.8288 76.3145C65.0895 77.0103 66.5099 77.422 67.9763 77.5165C68.1822 77.5101 68.3773 77.4281 68.5187 77.2886C68.6601 77.1491 68.7362 76.9636 68.7302 76.7728C68.7203 76.5833 68.6316 76.4051 68.4826 76.2755C68.3337 76.1459 68.1361 76.0751 67.9313 76.0778Z" fill="#351D47"/>
<path d="M49.5812 73.7631C49.417 73.6682 49.2251 73.647 49.0472 73.7039C48.8693 73.7608 48.7197 73.8913 48.631 74.0671C47.8471 75.2114 46.8216 76.137 45.639 76.7674C44.4563 77.3979 43.1504 77.7151 41.829 77.6929C40.9266 77.7212 40.9743 79.2433 41.8767 79.2151C43.4411 79.2152 44.9814 78.814 46.3707 78.0447C47.7599 77.2754 48.9584 76.1599 49.8673 74.7902C49.9124 74.7031 49.9407 74.6071 49.9506 74.5079C49.9606 74.4086 49.9519 74.3081 49.9253 74.2123C49.8986 74.1165 49.8544 74.0274 49.7953 73.9502C49.7361 73.873 49.6633 73.8094 49.5812 73.7631Z" fill="#351D47"/>
<path d="M66.0601 81.7644C65.5216 81.4518 64.9082 81.2995 64.2894 81.3248C63.5472 81.1934 62.7835 81.294 62.0983 81.6135C61.413 81.9329 60.838 82.4563 60.4486 83.1152C60.0389 83.8226 59.8285 84.632 59.8406 85.4539C59.8527 86.2758 60.0869 87.0783 60.5172 87.7728C61.0231 88.4745 61.7256 89.0025 62.5318 89.2869C63.3379 89.5714 64.2096 89.5989 65.0313 89.3657C65.8483 89.1742 66.5845 88.7222 67.1337 88.0751C67.6828 87.428 68.0165 86.6193 68.0865 85.7658C68.132 84.9742 67.9678 84.1848 67.6112 83.4806C67.2546 82.7764 66.7188 82.1835 66.0601 81.7644Z" fill="#351D47"/>
<path d="M49.5525 81.7644C49.014 81.4518 48.4006 81.2995 47.7818 81.3248C47.0396 81.1934 46.2759 81.294 45.5906 81.6135C44.9054 81.9329 44.3304 82.4563 43.941 83.1152C43.5313 83.8226 43.3209 84.6319 43.333 85.4539C43.3451 86.2758 43.5793 87.0783 44.0096 87.7728C44.5155 88.4744 45.218 89.0025 46.0242 89.2869C46.8303 89.5714 47.702 89.5989 48.5237 89.3657C49.3407 89.1742 50.0769 88.7222 50.6261 88.0751C51.1752 87.428 51.5089 86.6193 51.5789 85.7658C51.6244 84.9742 51.4602 84.1848 51.1036 83.4806C50.747 82.7764 50.2111 82.1835 49.5525 81.7644Z" fill="#351D47"/>
</g>
<g clip-path="url(#clip1_969_897)">
<path d="M174.725 63.9161C173.141 40.2071 148.875 26.7636 127.044 26.9743C109.308 27.1224 95.0701 40.8493 90.92 54.6214C82.2338 83.5562 118.619 118.139 152.209 103.058C167.8 95.9632 175.778 79.4725 174.725 63.9161Z" fill="#5F5EAA"/>
<path d="M168.568 51.0093C159.792 30.8394 134.418 26.6094 115.428 33.5254C99.9926 39.1244 91.8462 55.4757 92.5187 68.7555C93.9605 96.6459 136.505 115.558 161.121 92.0586C172.517 81.0684 174.338 64.2391 168.568 51.0093Z" fill="#7777BD"/>
<path d="M134.417 66.4356C133.639 67.3369 132.648 68.5007 131.438 68.5386C130.229 68.5765 129.999 67.6701 130.172 66.7512C130.564 65.5756 131.069 64.4401 131.68 63.3605C132.025 62.7192 132.195 61.9987 132.172 61.2714C132.149 60.5441 131.935 59.8356 131.55 59.2172C130.86 58.2704 129.296 59.2877 130.003 60.1974C130.71 61.107 129.814 62.9439 129.224 64.022C128.402 65.256 128.088 66.7572 128.346 68.2152C128.556 68.937 129.029 69.5546 129.673 69.9469C130.316 70.3391 131.084 70.4776 131.825 70.3353C133.422 69.9864 134.828 69.0481 135.76 67.709C136.52 66.8082 135.179 65.553 134.417 66.4356Z" fill="#351D47"/>
<path d="M149.105 48.385C147.503 48.2574 145.957 47.7879 144.588 47.0132C143.218 46.2385 142.062 45.1796 141.211 43.9195C141.066 43.7012 140.833 43.5457 140.563 43.4871C140.293 43.4285 140.009 43.4717 139.773 43.6072C139.537 43.7426 139.368 43.9592 139.303 44.2094C139.239 44.4595 139.284 44.7227 139.429 44.9409C140.483 46.4811 141.912 47.7693 143.603 48.7025C145.294 49.6356 147.199 50.1877 149.165 50.3145C149.441 50.3059 149.703 50.1959 149.893 50.0089C150.082 49.8218 150.184 49.573 150.176 49.3172C150.163 49.063 150.044 48.824 149.844 48.6502C149.645 48.4764 149.379 48.3813 149.105 48.385Z" fill="#351D47"/>
<path d="M124.495 45.2805C124.275 45.1534 124.017 45.1248 123.779 45.2012C123.54 45.2775 123.34 45.4525 123.22 45.6882C122.169 47.223 120.794 48.4643 119.208 49.3098C117.622 50.1553 115.87 50.5807 114.098 50.551C112.888 50.5889 112.952 52.6303 114.162 52.5924C116.26 52.5925 118.326 52.0546 120.189 51.0228C122.052 49.991 123.66 48.495 124.879 46.658C124.939 46.5413 124.977 46.4125 124.99 46.2794C125.004 46.1463 124.992 46.0115 124.956 45.883C124.92 45.7545 124.861 45.635 124.782 45.5315C124.703 45.428 124.605 45.3427 124.495 45.2805Z" fill="#351D47"/>
<g clip-path="url(#clip2_969_897)">
<path d="M114.321 74.8907C117.107 81.7285 121.425 88.4732 128.468 91.1181C131.619 92.4727 135.128 92.63 138.371 91.562C141.615 90.4941 144.382 88.2701 146.182 85.2855C148.23 82.0324 149.851 78.511 151.001 74.8137C151.14 74.4991 151.159 74.1418 151.056 73.8122C150.952 73.4825 150.733 73.2045 150.442 73.0327C150.144 72.886 149.804 72.8633 149.491 72.9694C149.179 73.0754 148.918 73.302 148.764 73.602C146.881 79.0079 144.637 85.3173 139.473 88.2519C133.712 91.5197 126.722 88.43 122.575 83.8765C120.103 80.9924 118.145 77.6797 116.79 74.0925C116.112 72.4859 113.679 73.3087 114.321 74.8907Z" fill="#351D47"/>
</g>
<path d="M143.796 55.6667C143.757 55.1947 143.609 54.7379 143.364 54.3312C143.119 53.9246 142.783 53.5789 142.383 53.3208C141.951 53.0639 141.46 52.9223 140.957 52.9101C140.454 52.8978 139.956 53.0152 139.513 53.2507C139.079 53.4808 138.718 53.8247 138.468 54.2446C138.219 54.6646 138.091 55.1445 138.099 55.6317C138.039 56.1062 138.112 56.5879 138.311 57.0239C138.509 57.46 138.824 57.8335 139.223 58.1037C139.434 58.26 139.674 58.3742 139.93 58.4398L140.191 58.5378C140.626 58.6494 141.081 58.6588 141.521 58.5652C141.96 58.4716 142.371 58.2776 142.721 57.9987C143.072 57.7198 143.351 57.3638 143.538 56.9589C143.724 56.554 143.813 56.1115 143.796 55.6667Z" fill="#351D47"/>
<path d="M123.777 57.0967C123.738 56.6247 123.59 56.1678 123.345 55.7612C123.1 55.3546 122.764 55.0089 122.363 54.7507C121.932 54.4938 121.44 54.3523 120.937 54.34C120.434 54.3277 119.936 54.4451 119.493 54.6807C119.059 54.9108 118.698 55.2546 118.449 55.6746C118.199 56.0946 118.071 56.5745 118.079 57.0617C118.019 57.5362 118.093 58.0179 118.291 58.4539C118.489 58.8899 118.805 59.2635 119.203 59.5336C119.415 59.69 119.655 59.8042 119.91 59.8698L120.172 59.9678C120.607 60.0794 121.062 60.0887 121.501 59.9951C121.94 59.9015 122.352 59.7076 122.702 59.4287C123.052 59.1498 123.331 58.7937 123.518 58.3888C123.705 57.984 123.793 57.5415 123.777 57.0967Z" fill="#351D47"/>
<g clip-path="url(#clip3_969_897)">
<path d="M115.023 27.3006L112.543 11.9954C112.38 10.9783 110.861 11.4065 111.024 12.4183C111.847 17.5218 112.674 22.6236 113.505 27.7235C113.668 28.7407 115.186 28.3124 115.023 27.3006Z" fill="#7777BD"/>
<path d="M118.565 18.987C118.565 18.774 118.482 18.5698 118.335 18.4192C118.187 18.2686 117.986 18.184 117.777 18.184C117.568 18.184 117.368 18.2686 117.22 18.4192C117.072 18.5698 116.989 18.774 116.989 18.987C117.01 21.2389 117.027 23.4927 117.041 25.7483C117.041 25.9612 117.124 26.1655 117.272 26.3161C117.42 26.4666 117.621 26.5513 117.83 26.5513C118.039 26.5513 118.239 26.4666 118.387 26.3161C118.535 26.1655 118.618 25.9612 118.618 25.7483C118.604 23.4963 118.586 21.2425 118.565 18.987Z" fill="#7777BD"/>
<path d="M122.481 9.15826C121.369 14.4913 121.007 19.9581 121.403 25.395C121.477 26.4175 123.054 26.4282 122.98 25.395C122.585 20.1029 122.928 14.7805 123.999 9.58653C124.204 8.5801 122.686 8.14648 122.481 9.15826Z" fill="#7777BD"/>
<path d="M129.16 16.76C128.953 16.7654 128.755 16.8518 128.609 17.0012C128.462 17.1506 128.377 17.3517 128.372 17.563C128.172 20.0612 127.971 22.5595 127.768 25.0577C127.768 25.2707 127.851 25.4749 127.998 25.6255C128.146 25.7761 128.347 25.8607 128.556 25.8607C128.763 25.8553 128.961 25.7689 129.107 25.6195C129.254 25.4701 129.339 25.269 129.344 25.0577C129.544 22.5595 129.745 20.0612 129.949 17.563C129.949 17.35 129.865 17.1458 129.718 16.9952C129.57 16.8446 129.369 16.76 129.16 16.76Z" fill="#7777BD"/>
<path d="M136.812 10.9408C134.936 15.6235 133.639 20.5254 132.949 25.534C132.899 25.7361 132.925 25.9503 133.022 26.1338C133.119 26.3174 133.281 26.4568 133.475 26.5244C133.677 26.5803 133.893 26.5526 134.075 26.4473C134.257 26.342 134.391 26.1677 134.447 25.9623C135.144 20.9495 136.449 16.0441 138.331 11.3583C138.714 10.4108 137.196 9.99858 136.812 10.9408Z" fill="#7777BD"/>
<path d="M142.167 17.4451C141.969 17.3897 141.758 17.4145 141.578 17.5143C141.397 17.6141 141.262 17.7812 141.2 17.9805L138.835 24.4045C138.804 24.5072 138.794 24.6152 138.804 24.7221C138.815 24.829 138.846 24.9326 138.897 25.0269C138.947 25.1212 139.016 25.2042 139.099 25.2709C139.181 25.3376 139.276 25.3868 139.378 25.4155C139.48 25.4441 139.586 25.4517 139.691 25.4378C139.795 25.4238 139.896 25.3887 139.987 25.3343C140.078 25.28 140.157 25.2076 140.22 25.1215C140.283 25.0353 140.329 24.9371 140.354 24.8328L142.719 18.4087C142.766 18.2067 142.735 17.9939 142.632 17.8144C142.53 17.635 142.363 17.5028 142.167 17.4451Z" fill="#7777BD"/>
<path d="M148.232 15.989L143.045 25.9891C142.572 26.9045 143.933 27.7182 144.406 26.8028L149.593 16.8027C150.071 15.8873 148.71 15.0736 148.232 15.989Z" fill="#7777BD"/>
<path d="M154.197 21.6208C154.046 21.4755 153.847 21.3945 153.64 21.3945C153.432 21.3945 153.233 21.4755 153.083 21.6208C151.127 23.216 149.612 25.3027 148.689 27.6755C148.634 27.8806 148.662 28.0995 148.765 28.2842C148.869 28.4688 149.04 28.6042 149.241 28.6605C149.439 28.7146 149.649 28.6892 149.829 28.5895C150.009 28.4899 150.145 28.3237 150.208 28.1252C151.063 26.0209 152.437 24.1771 154.197 22.7718C154.272 22.697 154.332 22.6075 154.373 22.5087C154.414 22.4098 154.435 22.3036 154.435 22.1963C154.435 22.089 154.414 21.9828 154.373 21.884C154.332 21.7852 154.272 21.6957 154.197 21.6208Z" fill="#7777BD"/>
<path d="M165.475 20.0682C160.34 22.583 155.761 26.1346 152.016 30.5072C151.354 31.2835 152.462 32.4237 153.13 31.6421C156.785 27.3776 161.256 23.9167 166.268 21.4708C167.188 20.9943 166.389 19.6239 165.475 20.0682Z" fill="#7777BD"/>
<path d="M112.496 28.4891L109.342 23.8692C109.292 23.7741 109.224 23.6902 109.142 23.6226C109.059 23.5549 108.964 23.5049 108.862 23.4756C108.76 23.4462 108.653 23.4381 108.548 23.4516C108.443 23.4652 108.342 23.5002 108.25 23.5545C108.159 23.6089 108.079 23.6815 108.016 23.7679C107.952 23.8544 107.907 23.953 107.882 24.0578C107.856 24.1626 107.852 24.2715 107.869 24.378C107.887 24.4845 107.925 24.5864 107.981 24.6776L111.134 29.2975C111.243 29.4781 111.415 29.609 111.616 29.6629C111.817 29.7168 112.03 29.6894 112.212 29.5866C112.391 29.4783 112.521 29.3025 112.575 29.0971C112.628 28.8918 112.599 28.6734 112.496 28.4891Z" fill="#7777BD"/>
<path d="M109.143 31.5565L96.5561 20.8766C95.7836 20.2181 94.6642 21.3477 95.442 22.0115L108.023 32.6914C108.817 33.3499 109.92 32.2364 109.143 31.5565Z" fill="#7777BD"/>
</g>
</g>
<defs>
<clipPath id="clip0_969_897">
<rect width="105.925" height="81.4811" fill="white" transform="translate(0 43.3144) rotate(-1.79309)"/>
</clipPath>
<clipPath id="clip1_969_897">
<rect width="142.06" height="109.277" fill="white" transform="translate(58 4.44507) rotate(-1.79309)"/>
</clipPath>
<clipPath id="clip2_969_897">
<rect width="36.8508" height="20.0047" fill="white" transform="translate(152.047 91.238) rotate(176.86)"/>
</clipPath>
<clipPath id="clip3_969_897">
<rect width="71.4987" height="24.3096" fill="white" transform="translate(95.1793 8.57999)"/>
</clipPath>
</defs>
</svg>
