<svg width="179" height="138" viewBox="0 0 179 138" fill="none" xmlns="http://www.w3.org/2000/svg">
<g clip-path="url(#clip0_1_178)">
<path d="M144.661 79.6783C143.601 49.6895 113.57 31.7618 86.0672 31.1651C63.7235 30.6512 45.2514 47.4151 39.4817 64.6346C27.4014 100.814 71.8625 145.903 114.76 128.195C134.675 119.855 145.373 99.3556 144.661 79.6783Z" fill="#5F5EAA"/>
<path d="M137.415 63.1443C127.158 37.3385 95.3682 30.9966 71.1796 38.9758C51.5192 45.4331 40.6147 65.7502 40.9381 82.539C41.6543 117.8 94.4903 143.352 126.418 114.664C141.204 101.242 144.161 80.0714 137.415 63.1443Z" fill="#7777BD"/>
<path d="M93.7973 81.2661C92.7808 82.3731 91.487 83.8029 89.9622 83.8029C88.4374 83.8029 88.1833 82.6498 88.4374 81.4967C88.9784 80.0283 89.6592 78.6151 90.4705 77.2765C90.9308 76.4807 91.1731 75.5779 91.1731 74.659C91.1731 73.74 90.9308 72.8373 90.4705 72.0415C89.6388 70.8192 87.6288 72.0415 88.4836 73.2176C89.3384 74.3938 88.1371 76.6769 87.3516 78.0144C86.268 79.5395 85.8131 81.422 86.0809 83.2724C86.3167 84.1919 86.8881 84.9902 87.6831 85.5107C88.4781 86.0312 89.4393 86.2364 90.378 86.0859C92.4039 85.7087 94.2115 84.58 95.4375 82.9265C96.431 81.8196 94.7907 80.1822 93.7973 81.2661Z" fill="#351D47"/>
<path d="M90.4844 109.839C94.4641 109.919 98.3393 108.564 101.399 106.022C104.459 103.48 106.497 99.9227 107.141 96.0017C107.201 95.682 107.134 95.3517 106.957 95.0793C106.939 94.753 106.793 94.4468 106.551 94.2268C106.309 94.0068 105.99 93.8905 105.663 93.9031C96.0522 93.9031 86.4338 93.6571 76.8076 93.1652C76.8076 93.1652 76.6921 93.1652 76.6228 93.1652C76.4422 93.1363 76.2574 93.1491 76.0825 93.2024C75.9076 93.2556 75.7471 93.3481 75.6134 93.4726C75.4797 93.5972 75.3763 93.7506 75.311 93.9211C75.2457 94.0916 75.2203 94.2748 75.2367 94.4566C75.5164 98.4167 77.2082 102.146 80.0055 104.968C82.8028 107.79 86.5204 109.518 90.4844 109.839Z" fill="#351D47"/>
<path d="M80.7961 74.6754C77.6764 72.4159 73.8088 70.9981 69.7032 70.609C65.5977 70.22 61.4472 70.8779 57.7992 72.496C56.3357 73.1716 57.6423 75.0459 59.1319 74.3921C62.272 73.0022 65.8414 72.4335 69.3747 72.76C72.9081 73.0866 76.2416 74.2932 78.9406 76.2227C80.2996 77.1381 82.0504 75.5689 80.7961 74.6754Z" fill="#351D47"/>
<path d="M125.948 74.1953C122.559 70.9117 118.184 69.0667 113.634 69.0018C109.083 68.9369 104.665 70.6565 101.197 73.8422C99.9654 74.9829 101.75 76.9114 102.956 75.7706C105.949 73.0737 109.737 71.6262 113.633 71.691C117.529 71.7558 121.274 73.3285 124.189 76.1237C125.395 77.3188 127.154 75.3904 125.948 74.1953Z" fill="#351D47"/>
<path d="M113.007 59.0621C110.995 58.8378 109.066 58.184 107.372 57.1521C105.678 56.1201 104.264 54.7378 103.241 53.1136C103.067 52.8324 102.779 52.6269 102.442 52.5423C102.105 52.4577 101.745 52.501 101.442 52.6626C101.139 52.8243 100.918 53.091 100.827 53.4042C100.736 53.7174 100.783 54.0513 100.957 54.3326C102.223 56.3182 103.972 58.0007 106.065 59.2454C108.157 60.4901 110.535 61.2622 113.007 61.5C113.355 61.5 113.689 61.3715 113.935 61.1429C114.181 60.9143 114.319 60.6043 114.319 60.281C114.313 59.9597 114.172 59.6533 113.927 59.426C113.683 59.1987 113.353 59.0683 113.007 59.0621V59.0621Z" fill="#351D47"/>
<path d="M82.1348 54.1714C81.8625 54.0022 81.5395 53.956 81.236 54.0429C80.9325 54.1299 80.673 54.3429 80.5138 54.6356C79.1294 56.5313 77.3483 58.0438 75.3174 59.0483C73.2866 60.0528 71.0641 60.5207 68.8333 60.4132C67.3077 60.4132 67.3077 62.9924 68.8333 62.9924C71.4757 63.0754 74.0986 62.478 76.4857 61.2493C78.8729 60.0206 80.9562 58.1958 82.5638 55.9253C82.6445 55.7803 82.6974 55.6193 82.7194 55.4518C82.7415 55.2843 82.7322 55.1137 82.6922 54.9501C82.6522 54.7865 82.5822 54.6333 82.4865 54.4995C82.3907 54.3658 82.2711 54.2542 82.1348 54.1714V54.1714Z" fill="#351D47"/>
</g>
<defs>
<clipPath id="clip0_1_178">
<rect width="179" height="138" fill="white"/>
</clipPath>
</defs>
</svg>
