<svg width="196" height="146" viewBox="0 0 196 146" fill="none" xmlns="http://www.w3.org/2000/svg">
<g clip-path="url(#clip0_969_896)">
<path d="M96.9792 100.274C96.2689 79.8464 76.1361 67.6348 57.6987 67.2283C42.7198 66.8783 30.3362 78.2971 26.4683 90.0264C18.3697 114.67 48.1761 145.383 76.9342 133.321C90.2852 127.641 97.4572 113.677 96.9792 100.274Z" fill="#5F5EAA"/>
<path d="M92.1218 89.0112C85.2452 71.4333 63.9339 67.1135 47.7181 72.5486C34.5379 76.947 27.2277 90.7862 27.4445 102.222C27.9246 126.24 63.3454 143.646 84.7496 124.104C94.6619 114.962 96.6443 100.541 92.1218 89.0112Z" fill="#7777BD"/>
<path d="M62.8808 101.355C62.1994 102.109 61.332 103.083 60.3098 103.083C59.2876 103.083 59.1173 102.298 59.2876 101.512C59.6503 100.512 60.1067 99.5493 60.6506 98.6375C60.9591 98.0954 61.1216 97.4805 61.1216 96.8545C61.1216 96.2286 60.9591 95.6137 60.6506 95.0716C60.093 94.2391 58.7455 95.0716 59.3186 95.8728C59.8916 96.6739 59.0863 98.229 58.5597 99.1401C57.8333 100.179 57.5283 101.461 57.7078 102.722C57.8659 103.348 58.249 103.892 58.7819 104.246C59.3149 104.601 59.9593 104.741 60.5886 104.638C61.9467 104.381 63.1585 103.612 63.9804 102.486C64.6464 101.732 63.5468 100.617 62.8808 101.355Z" fill="#351D47"/>
<path d="M60.66 120.818C63.3279 120.872 65.9258 119.949 67.9769 118.218C70.0281 116.487 71.395 114.063 71.8267 111.392C71.8664 111.175 71.822 110.95 71.7028 110.764C71.6908 110.542 71.5931 110.333 71.4309 110.183C71.2686 110.034 71.0548 109.954 70.8355 109.963C64.3925 109.963 57.9444 109.795 51.4912 109.46C51.4912 109.46 51.4137 109.46 51.3672 109.46C51.2462 109.441 51.1223 109.449 51.0051 109.486C50.8878 109.522 50.7802 109.585 50.6906 109.67C50.601 109.755 50.5317 109.859 50.4879 109.975C50.4441 110.091 50.427 110.216 50.438 110.34C50.6255 113.037 51.7597 115.577 53.635 117.5C55.5103 119.422 58.0025 120.599 60.66 120.818Z" fill="#351D47"/>
<path d="M54.165 96.8657C52.0736 95.3267 49.4807 94.3609 46.7284 94.0959C43.9761 93.8309 41.1936 94.279 38.748 95.3813C37.767 95.8414 38.6429 97.1181 39.6415 96.6728C41.7466 95.726 44.1395 95.3386 46.5082 95.5611C48.8769 95.7835 51.1117 96.6054 52.9211 97.9197C53.8321 98.5432 55.0059 97.4744 54.165 96.8657Z" fill="#351D47"/>
<path d="M84.4345 96.5388C82.1626 94.3022 79.2297 93.0454 76.179 93.0012C73.1282 92.957 70.1661 94.1283 67.8413 96.2983C67.0159 97.0753 68.2119 98.3889 69.0205 97.6119C71.0269 95.7748 73.5667 94.7888 76.1785 94.833C78.7904 94.8771 81.3013 95.9484 83.2553 97.8524C84.0639 98.6664 85.2431 97.3529 84.4345 96.5388Z" fill="#351D47"/>
<path d="M75.7586 86.2308C74.4099 86.078 73.117 85.6327 71.9812 84.9297C70.8453 84.2268 69.8974 83.2853 69.2116 82.1789C69.0949 81.9873 68.9024 81.8474 68.6763 81.7897C68.4502 81.7321 68.2091 81.7616 68.006 81.8717C67.803 81.9818 67.6546 82.1635 67.5935 82.3768C67.5325 82.5902 67.5637 82.8176 67.6804 83.0092C68.5293 84.3617 69.7021 85.5078 71.105 86.3556C72.5078 87.2035 74.1016 87.7294 75.7586 87.8914C75.992 87.8914 76.2158 87.8039 76.3809 87.6482C76.5459 87.4925 76.6386 87.2813 76.6386 87.0611C76.6341 86.8422 76.54 86.6335 76.3759 86.4787C76.2119 86.3239 75.9906 86.235 75.7586 86.2308Z" fill="#351D47"/>
<path d="M55.0624 82.8993C54.8799 82.7841 54.6634 82.7526 54.4599 82.8118C54.2564 82.871 54.0824 83.0161 53.9757 83.2155C53.0476 84.5068 51.8536 85.537 50.4921 86.2213C49.1306 86.9055 47.6407 87.2242 46.1452 87.151C45.1224 87.151 45.1224 88.9078 46.1452 88.9078C47.9166 88.9644 49.675 88.5574 51.2753 87.7205C52.8757 86.8836 54.2723 85.6406 55.35 84.094C55.4041 83.9952 55.4395 83.8856 55.4543 83.7715C55.4691 83.6574 55.4629 83.5412 55.4361 83.4297C55.4093 83.3183 55.3624 83.214 55.2982 83.1228C55.234 83.0317 55.1538 82.9557 55.0624 82.8993Z" fill="#351D47"/>
</g>
<g clip-path="url(#clip1_969_896)">
<path d="M168.7 59.0207C167.237 37.1275 144.83 24.7136 124.671 24.9081C108.292 25.0449 95.1454 37.7205 91.3132 50.4378C83.2922 77.1566 116.891 109.091 147.908 95.165C162.305 88.6134 169.672 73.3856 168.7 59.0207Z" fill="#CCAEF8"/>
<path d="M163.014 47.1029C154.91 28.4778 131.48 24.5717 113.944 30.9581C99.691 36.1282 92.1685 51.2272 92.7895 63.49C94.1209 89.2443 133.407 106.708 156.138 85.0083C166.661 74.8599 168.343 59.3195 163.014 47.1029Z" fill="#D7BDFC"/>
<path d="M131.479 61.3475C130.76 62.1798 129.845 63.2545 128.728 63.2894C127.611 63.3244 127.399 62.4875 127.558 61.6389C127.921 60.5534 128.387 59.5049 128.951 58.5079C129.27 57.9157 129.427 57.2504 129.406 56.5788C129.385 55.9072 129.187 55.253 128.831 54.6819C128.194 53.8077 126.75 54.7471 127.403 55.5871C128.056 56.427 127.228 58.1232 126.683 59.1188C125.925 60.2582 125.634 61.6445 125.873 62.9908C126.067 63.6573 126.503 64.2277 127.098 64.5899C127.692 64.9521 128.401 65.08 129.085 64.9485C130.56 64.6264 131.858 63.7599 132.719 62.5234C133.421 61.6916 132.182 60.5325 131.479 61.3475Z" fill="#351D47"/>
<path d="M145.042 44.6792C143.563 44.5615 142.135 44.1279 140.871 43.4125C139.606 42.6971 138.539 41.7193 137.752 40.5557C137.618 40.3541 137.403 40.2105 137.154 40.1565C136.905 40.1024 136.643 40.1423 136.425 40.2673C136.206 40.3924 136.05 40.5924 135.991 40.8234C135.931 41.0544 135.973 41.2974 136.107 41.499C137.08 42.9211 138.4 44.1107 139.961 44.9724C141.522 45.8341 143.282 46.3439 145.098 46.461C145.353 46.453 145.594 46.3515 145.769 46.1788C145.944 46.006 146.039 45.7763 146.031 45.54C146.019 45.3053 145.909 45.0846 145.725 44.9241C145.54 44.7636 145.295 44.6759 145.042 44.6792Z" fill="#351D47"/>
<path d="M122.317 41.8128C122.113 41.6953 121.876 41.669 121.655 41.7395C121.435 41.81 121.25 41.9716 121.14 42.1892C120.169 43.6065 118.899 44.7527 117.435 45.5334C115.97 46.3141 114.353 46.707 112.716 46.6796C111.599 46.7146 111.658 48.5996 112.775 48.5647C114.713 48.5648 116.62 48.068 118.341 47.1152C120.061 46.1625 121.545 44.7811 122.671 43.0847C122.727 42.9769 122.762 42.858 122.774 42.7351C122.786 42.6122 122.776 42.4877 122.743 42.3691C122.71 42.2505 122.655 42.1401 122.582 42.0445C122.508 41.949 122.418 41.8702 122.317 41.8128Z" fill="#351D47"/>
<path d="M129.482 85.1195C132.797 85.1833 136.026 84.1036 138.575 82.0784C141.123 80.0532 142.822 77.2184 143.359 74.094C143.408 73.8392 143.353 73.5761 143.205 73.359C143.19 73.099 143.068 72.8551 142.867 72.6798C142.665 72.5045 142.399 72.4118 142.127 72.4218C134.12 72.4218 126.108 72.2258 118.088 71.8338C118.088 71.8338 117.992 71.8338 117.934 71.8338C117.784 71.8109 117.63 71.821 117.484 71.8635C117.338 71.9059 117.205 71.9796 117.093 72.0788C116.982 72.1781 116.896 72.3003 116.842 72.4362C116.787 72.572 116.766 72.718 116.78 72.8629C117.013 76.0183 118.422 78.9896 120.752 81.2382C123.083 83.4867 126.18 84.8637 129.482 85.1195Z" fill="#351D47"/>
<path d="M144.349 55.3143C143.462 54.8689 142.482 54.6176 141.48 54.5785C140.479 54.5395 139.481 54.7137 138.558 55.0885C138.999 53.841 139.71 52.6961 140.644 51.7281C141.267 51.0779 140.257 50.1061 139.626 50.7563C138.125 52.2976 137.129 54.2246 136.76 56.2998C136.711 56.4468 136.715 56.6052 136.772 56.7494C136.83 56.8936 136.936 57.0151 137.074 57.0943C137.213 57.1735 137.375 57.2057 137.536 57.1858C137.696 57.1658 137.844 57.0948 137.956 56.9842C138.756 56.397 139.714 56.0404 140.719 55.9568C141.723 55.8731 142.732 56.0657 143.625 56.512C144.435 56.9089 145.166 55.7318 144.349 55.3143Z" fill="#351D47"/>
<path d="M119.367 57.4368C118.455 55.4912 116.875 53.9857 114.95 53.2268C114.777 53.1769 114.593 53.2012 114.438 53.2946C114.283 53.3879 114.169 53.5426 114.121 53.7246C114.074 53.9066 114.097 54.101 114.186 54.2651C114.274 54.4291 114.42 54.5494 114.593 54.5993C115.578 55.0023 116.456 55.6514 117.151 56.491C114.929 55.7798 112.593 55.4883 110.458 56.7185C109.697 57.1523 110.378 58.3826 111.132 57.9417C113.495 56.5834 116.256 57.6146 118.599 58.4822C119.205 58.7026 119.602 57.9488 119.367 57.4368Z" fill="#351D47"/>
</g>
<g clip-path="url(#clip2_969_896)">
<path d="M150.265 121.161C149.503 109.766 137.841 103.305 127.349 103.406C118.824 103.478 111.981 110.075 109.987 116.694C105.812 130.6 123.299 147.221 139.443 139.973C146.936 136.563 150.771 128.638 150.265 121.161Z" fill="#5F5EAA"/>
<path d="M147.305 114.958C143.087 105.264 130.892 103.231 121.766 106.555C114.347 109.246 110.432 117.105 110.755 123.487C111.448 136.892 131.896 145.981 143.726 134.687C149.203 129.405 150.079 121.316 147.305 114.958Z" fill="#7777BD"/>
<path d="M130.892 122.372C130.518 122.805 130.042 123.365 129.46 123.383C128.879 123.401 128.768 122.966 128.852 122.524C129.04 121.959 129.283 121.413 129.576 120.894C129.742 120.586 129.824 120.24 129.813 119.89C129.802 119.541 129.699 119.2 129.514 118.903C129.182 118.448 128.431 118.937 128.771 119.374C129.11 119.811 128.68 120.694 128.396 121.212C128.001 121.805 127.85 122.527 127.974 123.227C128.075 123.574 128.303 123.871 128.612 124.06C128.921 124.248 129.29 124.315 129.646 124.246C130.414 124.079 131.09 123.628 131.537 122.984C131.903 122.551 131.258 121.948 130.892 122.372Z" fill="#351D47"/>
<path d="M129.969 133.281C131.488 133.264 132.949 132.702 134.085 131.699C135.221 130.695 135.956 129.318 136.155 127.818C136.174 127.696 136.145 127.571 136.074 127.47C136.063 127.346 136.004 127.231 135.909 127.15C135.814 127.069 135.691 127.029 135.566 127.038C131.902 127.152 128.232 127.174 124.557 127.101C124.557 127.101 124.513 127.103 124.486 127.104C124.417 127.095 124.347 127.102 124.281 127.124C124.215 127.147 124.155 127.184 124.105 127.233C124.056 127.282 124.018 127.341 123.995 127.407C123.972 127.472 123.965 127.542 123.973 127.611C124.127 129.114 124.816 130.513 125.916 131.553C127.016 132.593 128.454 133.206 129.969 133.281Z" fill="#351D47"/>
<path d="M137.951 113.697C137.182 113.635 136.438 113.41 135.78 113.037C135.122 112.665 134.566 112.156 134.157 111.551C134.087 111.446 133.975 111.371 133.846 111.343C133.716 111.315 133.58 111.335 133.466 111.4C133.353 111.466 133.271 111.57 133.24 111.69C133.209 111.81 133.231 111.937 133.301 112.042C133.807 112.782 134.494 113.401 135.307 113.849C136.119 114.298 137.035 114.563 137.98 114.624C138.113 114.62 138.239 114.567 138.33 114.477C138.421 114.387 138.47 114.268 138.466 114.145C138.46 114.023 138.403 113.908 138.307 113.824C138.211 113.741 138.083 113.695 137.951 113.697Z" fill="#351D47"/>
<path d="M126.123 112.205C126.017 112.144 125.894 112.13 125.779 112.167C125.664 112.203 125.568 112.287 125.511 112.401C125.006 113.138 124.345 113.735 123.582 114.141C122.82 114.548 121.978 114.752 121.126 114.738C120.545 114.756 120.576 115.737 121.157 115.719C122.166 115.719 123.158 115.46 124.054 114.965C124.949 114.469 125.722 113.75 126.308 112.867C126.337 112.811 126.355 112.749 126.361 112.685C126.368 112.621 126.362 112.556 126.345 112.494C126.328 112.433 126.299 112.375 126.261 112.325C126.223 112.276 126.176 112.235 126.123 112.205Z" fill="#351D47"/>
<path d="M136.745 117.362C136.398 117.161 136.003 117.062 135.604 117.079C135.125 116.994 134.633 117.059 134.191 117.265C133.75 117.471 133.379 117.808 133.128 118.233C132.864 118.689 132.728 119.21 132.736 119.74C132.744 120.27 132.895 120.787 133.172 121.235C133.498 121.687 133.951 122.028 134.471 122.211C134.99 122.394 135.552 122.412 136.082 122.262C136.608 122.138 137.083 121.847 137.437 121.43C137.791 121.013 138.006 120.491 138.051 119.941C138.081 119.431 137.975 118.922 137.745 118.468C137.515 118.014 137.17 117.632 136.745 117.362Z" fill="#351D47"/>
<path d="M126.105 117.362C125.758 117.161 125.362 117.062 124.963 117.079C124.485 116.994 123.993 117.059 123.551 117.265C123.109 117.471 122.739 117.808 122.488 118.233C122.224 118.689 122.088 119.21 122.096 119.74C122.104 120.27 122.255 120.787 122.532 121.235C122.858 121.687 123.311 122.028 123.831 122.211C124.35 122.394 124.912 122.412 125.442 122.262C125.968 122.138 126.443 121.847 126.797 121.43C127.151 121.013 127.366 120.491 127.411 119.941C127.44 119.431 127.334 118.922 127.105 118.468C126.875 118.014 126.529 117.632 126.105 117.362Z" fill="#351D47"/>
</g>
<defs>
<clipPath id="clip0_969_896">
<rect width="120" height="94" fill="white" transform="translate(0 46)"/>
</clipPath>
<clipPath id="clip1_969_896">
<rect width="131.18" height="100.908" fill="white" transform="translate(60.9143 4.10464) rotate(-1.79308)"/>
</clipPath>
<clipPath id="clip2_969_896">
<rect width="68.2758" height="52.5199" fill="white" transform="translate(94.165 92.5786) rotate(-1.79309)"/>
</clipPath>
</defs>
</svg>
